<?xml version="1.0" encoding="utf-8" standalone="no"?>
<!DOCTYPE svg PUBLIC "-//W3C//DTD SVG 1.1//EN"
  "http://www.w3.org/Graphics/SVG/1.1/DTD/svg11.dtd">
<!-- Created with matplotlib (https://matplotlib.org/) -->
<svg height="391.8755pt" version="1.1" viewBox="0 0 387.08375 391.8755" width="387.08375pt" xmlns="http://www.w3.org/2000/svg" xmlns:xlink="http://www.w3.org/1999/xlink">
 <defs>
  <style type="text/css">
*{stroke-linecap:butt;stroke-linejoin:round;}
  </style>
 </defs>
 <g id="figure_1">
  <g id="patch_1">
   <path d="M 0 391.8755 
L 387.08375 391.8755 
L 387.08375 0 
L 0 0 
z
" style="fill:#ffffff;"/>
  </g>
  <g id="axes_1">
   <g id="patch_2">
    <path d="M 45.08375 350.448 
L 379.88375 350.448 
L 379.88375 24.288 
L 45.08375 24.288 
z
" style="fill:#ffffff;"/>
   </g>
   <g id="line2d_1">
    <path clip-path="url(#pba96caa619)" d="M 60.301932 335.581285 
L 364.665568 39.154715 
" style="fill:none;stroke:#000000;stroke-linecap:square;stroke-opacity:0.75;stroke-width:1.5;"/>
   </g>
   <g id="PathCollection_1">
    <defs>
     <path d="M 0 3 
C 0.795609 3 1.55874 2.683901 2.12132 2.12132 
C 2.683901 1.55874 3 0.795609 3 0 
C 3 -0.795609 2.683901 -1.55874 2.12132 -2.12132 
C 1.55874 -2.683901 0.795609 -3 0 -3 
C -0.795609 -3 -1.55874 -2.683901 -2.12132 -2.12132 
C -2.683901 -1.55874 -3 -0.795609 -3 0 
C -3 0.795609 -2.683901 1.55874 -2.12132 2.12132 
C -1.55874 2.683901 -0.795609 3 0 3 
z
" id="mbdc2c90713" style="stroke:#000000;stroke-opacity:0.4;"/>
    </defs>
    <g clip-path="url(#pba96caa619)">
     <use style="fill-opacity:0.4;stroke:#000000;stroke-opacity:0.4;" x="226.397791" xlink:href="#mbdc2c90713" y="203.696582"/>
     <use style="fill-opacity:0.4;stroke:#000000;stroke-opacity:0.4;" x="271.390153" xlink:href="#mbdc2c90713" y="135.466435"/>
     <use style="fill-opacity:0.4;stroke:#000000;stroke-opacity:0.4;" x="261.664647" xlink:href="#mbdc2c90713" y="109.807235"/>
     <use style="fill-opacity:0.4;stroke:#000000;stroke-opacity:0.4;" x="236.430147" xlink:href="#mbdc2c90713" y="204.055452"/>
     <use style="fill-opacity:0.4;stroke:#000000;stroke-opacity:0.4;" x="135.174517" xlink:href="#mbdc2c90713" y="309.877225"/>
     <use style="fill-opacity:0.4;stroke:#000000;stroke-opacity:0.4;" x="181.915903" xlink:href="#mbdc2c90713" y="317.682646"/>
     <use style="fill-opacity:0.4;stroke:#000000;stroke-opacity:0.4;" x="189.923652" xlink:href="#mbdc2c90713" y="310.101519"/>
     <use style="fill-opacity:0.4;stroke:#000000;stroke-opacity:0.4;" x="164.07416" xlink:href="#mbdc2c90713" y="320.733041"/>
     <use style="fill-opacity:0.4;stroke:#000000;stroke-opacity:0.4;" x="114.867701" xlink:href="#mbdc2c90713" y="324.815186"/>
     <use style="fill-opacity:0.4;stroke:#000000;stroke-opacity:0.4;" x="131.215236" xlink:href="#mbdc2c90713" y="328.134733"/>
     <use style="fill-opacity:0.4;stroke:#000000;stroke-opacity:0.4;" x="137.460687" xlink:href="#mbdc2c90713" y="325.03948"/>
     <use style="fill-opacity:0.4;stroke:#000000;stroke-opacity:0.4;" x="109.878107" xlink:href="#mbdc2c90713" y="329.211343"/>
     <use style="fill-opacity:0.4;stroke:#000000;stroke-opacity:0.4;" x="108.643863" xlink:href="#mbdc2c90713" y="327.91044"/>
     <use style="fill-opacity:0.4;stroke:#000000;stroke-opacity:0.4;" x="126.758787" xlink:href="#mbdc2c90713" y="330.960834"/>
     <use style="fill-opacity:0.4;stroke:#000000;stroke-opacity:0.4;" x="162.400662" xlink:href="#mbdc2c90713" y="323.559142"/>
     <use style="fill-opacity:0.4;stroke:#000000;stroke-opacity:0.4;" x="105.402098" xlink:href="#mbdc2c90713" y="330.781399"/>
     <use style="fill-opacity:0.4;stroke:#000000;stroke-opacity:0.4;" x="289.229604" xlink:href="#mbdc2c90713" y="194.50054"/>
     <use style="fill-opacity:0.4;stroke:#000000;stroke-opacity:0.4;" x="329.300238" xlink:href="#mbdc2c90713" y="77.598658"/>
     <use style="fill-opacity:0.4;stroke:#000000;stroke-opacity:0.4;" x="315.527011" xlink:href="#mbdc2c90713" y="67.729734"/>
     <use style="fill-opacity:0.4;stroke:#000000;stroke-opacity:0.4;" x="269.885086" xlink:href="#mbdc2c90713" y="167.181566"/>
     <use style="fill-opacity:0.4;stroke:#000000;stroke-opacity:0.4;" x="168.363246" xlink:href="#mbdc2c90713" y="291.260847"/>
     <use style="fill-opacity:0.4;stroke:#000000;stroke-opacity:0.4;" x="201.216934" xlink:href="#mbdc2c90713" y="301.982087"/>
     <use style="fill-opacity:0.4;stroke:#000000;stroke-opacity:0.4;" x="204.021818" xlink:href="#mbdc2c90713" y="288.569323"/>
     <use style="fill-opacity:0.4;stroke:#000000;stroke-opacity:0.4;" x="181.963378" xlink:href="#mbdc2c90713" y="312.748185"/>
     <use style="fill-opacity:0.4;stroke:#000000;stroke-opacity:0.4;" x="134.569013" xlink:href="#mbdc2c90713" y="325.75722"/>
     <use style="fill-opacity:0.4;stroke:#000000;stroke-opacity:0.4;" x="139.790607" xlink:href="#mbdc2c90713" y="322.617108"/>
     <use style="fill-opacity:0.4;stroke:#000000;stroke-opacity:0.4;" x="144.207967" xlink:href="#mbdc2c90713" y="324.411458"/>
     <use style="fill-opacity:0.4;stroke:#000000;stroke-opacity:0.4;" x="115.611234" xlink:href="#mbdc2c90713" y="324.860045"/>
     <use style="fill-opacity:0.4;stroke:#000000;stroke-opacity:0.4;" x="128.183135" xlink:href="#mbdc2c90713" y="309.608073"/>
     <use style="fill-opacity:0.4;stroke:#000000;stroke-opacity:0.4;" x="136.055078" xlink:href="#mbdc2c90713" y="321.719933"/>
     <use style="fill-opacity:0.4;stroke:#000000;stroke-opacity:0.4;" x="173.00115" xlink:href="#mbdc2c90713" y="306.916548"/>
     <use style="fill-opacity:0.4;stroke:#000000;stroke-opacity:0.4;" x="113.064938" xlink:href="#mbdc2c90713" y="335.581285"/>
     <use style="fill-opacity:0.4;stroke:#000000;stroke-opacity:0.4;" x="149.514971" xlink:href="#mbdc2c90713" y="316.785472"/>
     <use style="fill-opacity:0.4;stroke:#000000;stroke-opacity:0.4;" x="187.670716" xlink:href="#mbdc2c90713" y="271.971588"/>
     <use style="fill-opacity:0.4;stroke:#000000;stroke-opacity:0.4;" x="181.197887" xlink:href="#mbdc2c90713" y="287.22356"/>
     <use style="fill-opacity:0.4;stroke:#000000;stroke-opacity:0.4;" x="178.521196" xlink:href="#mbdc2c90713" y="274.214525"/>
     <use style="fill-opacity:0.4;stroke:#000000;stroke-opacity:0.4;" x="92.274501" xlink:href="#mbdc2c90713" y="319.476996"/>
     <use style="fill-opacity:0.4;stroke:#000000;stroke-opacity:0.4;" x="145.117132" xlink:href="#mbdc2c90713" y="326.205808"/>
     <use style="fill-opacity:0.4;stroke:#000000;stroke-opacity:0.4;" x="149.252425" xlink:href="#mbdc2c90713" y="324.860045"/>
     <use style="fill-opacity:0.4;stroke:#000000;stroke-opacity:0.4;" x="133.598316" xlink:href="#mbdc2c90713" y="325.75722"/>
     <use style="fill-opacity:0.4;stroke:#000000;stroke-opacity:0.4;" x="86.651387" xlink:href="#mbdc2c90713" y="325.981514"/>
     <use style="fill-opacity:0.4;stroke:#000000;stroke-opacity:0.4;" x="114.139696" xlink:href="#mbdc2c90713" y="328.089875"/>
     <use style="fill-opacity:0.4;stroke:#000000;stroke-opacity:0.4;" x="109.386557" xlink:href="#mbdc2c90713" y="325.846938"/>
     <use style="fill-opacity:0.4;stroke:#000000;stroke-opacity:0.4;" x="99.17648" xlink:href="#mbdc2c90713" y="331.364563"/>
     <use style="fill-opacity:0.4;stroke:#000000;stroke-opacity:0.4;" x="74.371986" xlink:href="#mbdc2c90713" y="327.820722"/>
     <use style="fill-opacity:0.4;stroke:#000000;stroke-opacity:0.4;" x="101.503646" xlink:href="#mbdc2c90713" y="329.659931"/>
     <use style="fill-opacity:0.4;stroke:#000000;stroke-opacity:0.4;" x="116.027395" xlink:href="#mbdc2c90713" y="323.020837"/>
     <use style="fill-opacity:0.4;stroke:#000000;stroke-opacity:0.4;" x="86.13272" xlink:href="#mbdc2c90713" y="329.256202"/>
     <use style="fill-opacity:0.4;stroke:#000000;stroke-opacity:0.4;" x="228.188747" xlink:href="#mbdc2c90713" y="244.204027"/>
     <use style="fill-opacity:0.4;stroke:#000000;stroke-opacity:0.4;" x="270.160714" xlink:href="#mbdc2c90713" y="218.679402"/>
     <use style="fill-opacity:0.4;stroke:#000000;stroke-opacity:0.4;" x="266.841586" xlink:href="#mbdc2c90713" y="220.922339"/>
     <use style="fill-opacity:0.4;stroke:#000000;stroke-opacity:0.4;" x="234.586797" xlink:href="#mbdc2c90713" y="236.622899"/>
     <use style="fill-opacity:0.4;stroke:#000000;stroke-opacity:0.4;" x="124.917821" xlink:href="#mbdc2c90713" y="316.785472"/>
     <use style="fill-opacity:0.4;stroke:#000000;stroke-opacity:0.4;" x="171.070457" xlink:href="#mbdc2c90713" y="325.75722"/>
     <use style="fill-opacity:0.4;stroke:#000000;stroke-opacity:0.4;" x="173.004506" xlink:href="#mbdc2c90713" y="319.925584"/>
     <use style="fill-opacity:0.4;stroke:#000000;stroke-opacity:0.4;" x="150.12413" xlink:href="#mbdc2c90713" y="323.065696"/>
     <use style="fill-opacity:0.4;stroke:#000000;stroke-opacity:0.4;" x="107.904946" xlink:href="#mbdc2c90713" y="327.102982"/>
     <use style="fill-opacity:0.4;stroke:#000000;stroke-opacity:0.4;" x="124.975083" xlink:href="#mbdc2c90713" y="327.55157"/>
     <use style="fill-opacity:0.4;stroke:#000000;stroke-opacity:0.4;" x="124.365064" xlink:href="#mbdc2c90713" y="326.205808"/>
     <use style="fill-opacity:0.4;stroke:#000000;stroke-opacity:0.4;" x="104.221715" xlink:href="#mbdc2c90713" y="335.581285"/>
     <use style="fill-opacity:0.4;stroke:#000000;stroke-opacity:0.4;" x="93.742336" xlink:href="#mbdc2c90713" y="328.897332"/>
     <use style="fill-opacity:0.4;stroke:#000000;stroke-opacity:0.4;" x="111.840081" xlink:href="#mbdc2c90713" y="335.581285"/>
     <use style="fill-opacity:0.4;stroke:#000000;stroke-opacity:0.4;" x="138.510873" xlink:href="#mbdc2c90713" y="324.860045"/>
     <use style="fill-opacity:0.4;stroke:#000000;stroke-opacity:0.4;" x="91.530722" xlink:href="#mbdc2c90713" y="328.897332"/>
     <use style="fill-opacity:0.4;stroke:#000000;stroke-opacity:0.4;" x="288.786091" xlink:href="#mbdc2c90713" y="203.696582"/>
     <use style="fill-opacity:0.4;stroke:#000000;stroke-opacity:0.4;" x="328.978101" xlink:href="#mbdc2c90713" y="91.011421"/>
     <use style="fill-opacity:0.4;stroke:#000000;stroke-opacity:0.4;" x="323.066876" xlink:href="#mbdc2c90713" y="99.085995"/>
     <use style="fill-opacity:0.4;stroke:#000000;stroke-opacity:0.4;" x="270.130352" xlink:href="#mbdc2c90713" y="183.285854"/>
     <use style="fill-opacity:0.4;stroke:#000000;stroke-opacity:0.4;" x="155.975967" xlink:href="#mbdc2c90713" y="296.643896"/>
     <use style="fill-opacity:0.4;stroke:#000000;stroke-opacity:0.4;" x="187.961191" xlink:href="#mbdc2c90713" y="313.690218"/>
     <use style="fill-opacity:0.4;stroke:#000000;stroke-opacity:0.4;" x="182.53332" xlink:href="#mbdc2c90713" y="310.101519"/>
     <use style="fill-opacity:0.4;stroke:#000000;stroke-opacity:0.4;" x="167.065476" xlink:href="#mbdc2c90713" y="317.413494"/>
     <use style="fill-opacity:0.4;stroke:#000000;stroke-opacity:0.4;" x="124.161212" xlink:href="#mbdc2c90713" y="324.815186"/>
     <use style="fill-opacity:0.4;stroke:#000000;stroke-opacity:0.4;" x="129.738353" xlink:href="#mbdc2c90713" y="326.47496"/>
     <use style="fill-opacity:0.4;stroke:#000000;stroke-opacity:0.4;" x="127.023117" xlink:href="#mbdc2c90713" y="324.546034"/>
     <use style="fill-opacity:0.4;stroke:#000000;stroke-opacity:0.4;" x="106.812319" xlink:href="#mbdc2c90713" y="328.224451"/>
     <use style="fill-opacity:0.4;stroke:#000000;stroke-opacity:0.4;" x="110.05827" xlink:href="#mbdc2c90713" y="327.91044"/>
     <use style="fill-opacity:0.4;stroke:#000000;stroke-opacity:0.4;" x="117.842971" xlink:href="#mbdc2c90713" y="329.929083"/>
     <use style="fill-opacity:0.4;stroke:#000000;stroke-opacity:0.4;" x="145.813106" xlink:href="#mbdc2c90713" y="323.559142"/>
     <use style="fill-opacity:0.4;stroke:#000000;stroke-opacity:0.4;" x="96.869757" xlink:href="#mbdc2c90713" y="329.704789"/>
     <use style="fill-opacity:0.4;stroke:#000000;stroke-opacity:0.4;" x="137.177284" xlink:href="#mbdc2c90713" y="318.220951"/>
     <use style="fill-opacity:0.4;stroke:#000000;stroke-opacity:0.4;" x="186.075548" xlink:href="#mbdc2c90713" y="265.153059"/>
     <use style="fill-opacity:0.4;stroke:#000000;stroke-opacity:0.4;" x="173.082141" xlink:href="#mbdc2c90713" y="296.15045"/>
     <use style="fill-opacity:0.4;stroke:#000000;stroke-opacity:0.4;" x="182.219125" xlink:href="#mbdc2c90713" y="277.130343"/>
     <use style="fill-opacity:0.4;stroke:#000000;stroke-opacity:0.4;" x="97.744673" xlink:href="#mbdc2c90713" y="330.153377"/>
     <use style="fill-opacity:0.4;stroke:#000000;stroke-opacity:0.4;" x="149.712041" xlink:href="#mbdc2c90713" y="326.340384"/>
     <use style="fill-opacity:0.4;stroke:#000000;stroke-opacity:0.4;" x="158.102878" xlink:href="#mbdc2c90713" y="326.071231"/>
     <use style="fill-opacity:0.4;stroke:#000000;stroke-opacity:0.4;" x="146.923638" xlink:href="#mbdc2c90713" y="322.213379"/>
     <use style="fill-opacity:0.4;stroke:#000000;stroke-opacity:0.4;" x="90.650267" xlink:href="#mbdc2c90713" y="335.581285"/>
     <use style="fill-opacity:0.4;stroke:#000000;stroke-opacity:0.4;" x="117.468163" xlink:href="#mbdc2c90713" y="332.486031"/>
     <use style="fill-opacity:0.4;stroke:#000000;stroke-opacity:0.4;" x="124.239892" xlink:href="#mbdc2c90713" y="335.581285"/>
     <use style="fill-opacity:0.4;stroke:#000000;stroke-opacity:0.4;" x="103.571991" xlink:href="#mbdc2c90713" y="333.96637"/>
     <use style="fill-opacity:0.4;stroke:#000000;stroke-opacity:0.4;" x="91.71656" xlink:href="#mbdc2c90713" y="334.235522"/>
     <use style="fill-opacity:0.4;stroke:#000000;stroke-opacity:0.4;" x="120.015473" xlink:href="#mbdc2c90713" y="333.24863"/>
     <use style="fill-opacity:0.4;stroke:#000000;stroke-opacity:0.4;" x="147.805173" xlink:href="#mbdc2c90713" y="335.581285"/>
     <use style="fill-opacity:0.4;stroke:#000000;stroke-opacity:0.4;" x="105.651304" xlink:href="#mbdc2c90713" y="333.158913"/>
     <use style="fill-opacity:0.4;stroke:#000000;stroke-opacity:0.4;" x="222.287045" xlink:href="#mbdc2c90713" y="230.701545"/>
     <use style="fill-opacity:0.4;stroke:#000000;stroke-opacity:0.4;" x="267.895233" xlink:href="#mbdc2c90713" y="208.04788"/>
     <use style="fill-opacity:0.4;stroke:#000000;stroke-opacity:0.4;" x="256.725612" xlink:href="#mbdc2c90713" y="209.169349"/>
     <use style="fill-opacity:0.4;stroke:#000000;stroke-opacity:0.4;" x="237.125181" xlink:href="#mbdc2c90713" y="224.780191"/>
     <use style="fill-opacity:0.4;stroke:#000000;stroke-opacity:0.4;" x="143.448607" xlink:href="#mbdc2c90713" y="321.226487"/>
     <use style="fill-opacity:0.4;stroke:#000000;stroke-opacity:0.4;" x="190.011926" xlink:href="#mbdc2c90713" y="306.378243"/>
     <use style="fill-opacity:0.4;stroke:#000000;stroke-opacity:0.4;" x="204.855325" xlink:href="#mbdc2c90713" y="314.3631"/>
     <use style="fill-opacity:0.4;stroke:#000000;stroke-opacity:0.4;" x="176.042015" xlink:href="#mbdc2c90713" y="316.47146"/>
     <use style="fill-opacity:0.4;stroke:#000000;stroke-opacity:0.4;" x="118.561413" xlink:href="#mbdc2c90713" y="333.517783"/>
     <use style="fill-opacity:0.4;stroke:#000000;stroke-opacity:0.4;" x="135.368354" xlink:href="#mbdc2c90713" y="329.480496"/>
     <use style="fill-opacity:0.4;stroke:#000000;stroke-opacity:0.4;" x="151.254296" xlink:href="#mbdc2c90713" y="319.34242"/>
     <use style="fill-opacity:0.4;stroke:#000000;stroke-opacity:0.4;" x="113.384519" xlink:href="#mbdc2c90713" y="331.140269"/>
     <use style="fill-opacity:0.4;stroke:#000000;stroke-opacity:0.4;" x="122.71852" xlink:href="#mbdc2c90713" y="328.62818"/>
     <use style="fill-opacity:0.4;stroke:#000000;stroke-opacity:0.4;" x="142.250074" xlink:href="#mbdc2c90713" y="328.26931"/>
     <use style="fill-opacity:0.4;stroke:#000000;stroke-opacity:0.4;" x="187.416085" xlink:href="#mbdc2c90713" y="308.531463"/>
     <use style="fill-opacity:0.4;stroke:#000000;stroke-opacity:0.4;" x="119.811806" xlink:href="#mbdc2c90713" y="326.609536"/>
     <use style="fill-opacity:0.4;stroke:#000000;stroke-opacity:0.4;" x="277.137991" xlink:href="#mbdc2c90713" y="145.604511"/>
     <use style="fill-opacity:0.4;stroke:#000000;stroke-opacity:0.4;" x="313.60273" xlink:href="#mbdc2c90713" y="55.483298"/>
     <use style="fill-opacity:0.4;stroke:#000000;stroke-opacity:0.4;" x="298.8535" xlink:href="#mbdc2c90713" y="39.154715"/>
     <use style="fill-opacity:0.4;stroke:#000000;stroke-opacity:0.4;" x="259.525252" xlink:href="#mbdc2c90713" y="152.826768"/>
     <use style="fill-opacity:0.4;stroke:#000000;stroke-opacity:0.4;" x="175.916246" xlink:href="#mbdc2c90713" y="293.234632"/>
     <use style="fill-opacity:0.4;stroke:#000000;stroke-opacity:0.4;" x="209.787323" xlink:href="#mbdc2c90713" y="295.836439"/>
     <use style="fill-opacity:0.4;stroke:#000000;stroke-opacity:0.4;" x="223.51311" xlink:href="#mbdc2c90713" y="267.26142"/>
     <use style="fill-opacity:0.4;stroke:#000000;stroke-opacity:0.4;" x="192.338341" xlink:href="#mbdc2c90713" y="312.882761"/>
     <use style="fill-opacity:0.4;stroke:#000000;stroke-opacity:0.4;" x="138.603847" xlink:href="#mbdc2c90713" y="327.013265"/>
     <use style="fill-opacity:0.4;stroke:#000000;stroke-opacity:0.4;" x="144.988613" xlink:href="#mbdc2c90713" y="321.226487"/>
     <use style="fill-opacity:0.4;stroke:#000000;stroke-opacity:0.4;" x="160.738507" xlink:href="#mbdc2c90713" y="324.232023"/>
     <use style="fill-opacity:0.4;stroke:#000000;stroke-opacity:0.4;" x="119.411828" xlink:href="#mbdc2c90713" y="323.738577"/>
     <use style="fill-opacity:0.4;stroke:#000000;stroke-opacity:0.4;" x="143.003627" xlink:href="#mbdc2c90713" y="305.750221"/>
     <use style="fill-opacity:0.4;stroke:#000000;stroke-opacity:0.4;" x="152.618184" xlink:href="#mbdc2c90713" y="315.888297"/>
     <use style="fill-opacity:0.4;stroke:#000000;stroke-opacity:0.4;" x="200.199991" xlink:href="#mbdc2c90713" y="306.51282"/>
     <use style="fill-opacity:0.4;stroke:#000000;stroke-opacity:0.4;" x="127.3068" xlink:href="#mbdc2c90713" y="327.461852"/>
    </g>
   </g>
   <g id="matplotlib.axis_1">
    <g id="xtick_1">
     <g id="line2d_2">
      <defs>
       <path d="M 0 0 
L 0 3.5 
" id="m06d19916cb" style="stroke:#000000;stroke-width:0.8;"/>
      </defs>
      <g>
       <use style="stroke:#000000;stroke-width:0.8;" x="60.301932" xlink:href="#m06d19916cb" y="350.448"/>
      </g>
     </g>
     <g id="text_1">
      <!-- 0 -->
      <defs>
       <path d="M 31.78125 66.40625 
Q 24.171875 66.40625 20.328125 58.90625 
Q 16.5 51.421875 16.5 36.375 
Q 16.5 21.390625 20.328125 13.890625 
Q 24.171875 6.390625 31.78125 6.390625 
Q 39.453125 6.390625 43.28125 13.890625 
Q 47.125 21.390625 47.125 36.375 
Q 47.125 51.421875 43.28125 58.90625 
Q 39.453125 66.40625 31.78125 66.40625 
z
M 31.78125 74.21875 
Q 44.046875 74.21875 50.515625 64.515625 
Q 56.984375 54.828125 56.984375 36.375 
Q 56.984375 17.96875 50.515625 8.265625 
Q 44.046875 -1.421875 31.78125 -1.421875 
Q 19.53125 -1.421875 13.0625 8.265625 
Q 6.59375 17.96875 6.59375 36.375 
Q 6.59375 54.828125 13.0625 64.515625 
Q 19.53125 74.21875 31.78125 74.21875 
z
" id="DejaVuSans-48"/>
      </defs>
      <g transform="translate(56.484432 366.566125)scale(0.12 -0.12)">
       <use xlink:href="#DejaVuSans-48"/>
      </g>
     </g>
    </g>
    <g id="xtick_2">
     <g id="line2d_3">
      <g>
       <use style="stroke:#000000;stroke-width:0.8;" x="106.361804" xlink:href="#m06d19916cb" y="350.448"/>
      </g>
     </g>
     <g id="text_2">
      <!-- 10 -->
      <defs>
       <path d="M 12.40625 8.296875 
L 28.515625 8.296875 
L 28.515625 63.921875 
L 10.984375 60.40625 
L 10.984375 69.390625 
L 28.421875 72.90625 
L 38.28125 72.90625 
L 38.28125 8.296875 
L 54.390625 8.296875 
L 54.390625 0 
L 12.40625 0 
z
" id="DejaVuSans-49"/>
      </defs>
      <g transform="translate(98.726804 366.566125)scale(0.12 -0.12)">
       <use xlink:href="#DejaVuSans-49"/>
       <use x="63.623047" xlink:href="#DejaVuSans-48"/>
      </g>
     </g>
    </g>
    <g id="xtick_3">
     <g id="line2d_4">
      <g>
       <use style="stroke:#000000;stroke-width:0.8;" x="152.421676" xlink:href="#m06d19916cb" y="350.448"/>
      </g>
     </g>
     <g id="text_3">
      <!-- 20 -->
      <defs>
       <path d="M 19.1875 8.296875 
L 53.609375 8.296875 
L 53.609375 0 
L 7.328125 0 
L 7.328125 8.296875 
Q 12.9375 14.109375 22.625 23.890625 
Q 32.328125 33.6875 34.8125 36.53125 
Q 39.546875 41.84375 41.421875 45.53125 
Q 43.3125 49.21875 43.3125 52.78125 
Q 43.3125 58.59375 39.234375 62.25 
Q 35.15625 65.921875 28.609375 65.921875 
Q 23.96875 65.921875 18.8125 64.3125 
Q 13.671875 62.703125 7.8125 59.421875 
L 7.8125 69.390625 
Q 13.765625 71.78125 18.9375 73 
Q 24.125 74.21875 28.421875 74.21875 
Q 39.75 74.21875 46.484375 68.546875 
Q 53.21875 62.890625 53.21875 53.421875 
Q 53.21875 48.921875 51.53125 44.890625 
Q 49.859375 40.875 45.40625 35.40625 
Q 44.1875 33.984375 37.640625 27.21875 
Q 31.109375 20.453125 19.1875 8.296875 
z
" id="DejaVuSans-50"/>
      </defs>
      <g transform="translate(144.786676 366.566125)scale(0.12 -0.12)">
       <use xlink:href="#DejaVuSans-50"/>
       <use x="63.623047" xlink:href="#DejaVuSans-48"/>
      </g>
     </g>
    </g>
    <g id="xtick_4">
     <g id="line2d_5">
      <g>
       <use style="stroke:#000000;stroke-width:0.8;" x="198.481549" xlink:href="#m06d19916cb" y="350.448"/>
      </g>
     </g>
     <g id="text_4">
      <!-- 30 -->
      <defs>
       <path d="M 40.578125 39.3125 
Q 47.65625 37.796875 51.625 33 
Q 55.609375 28.21875 55.609375 21.1875 
Q 55.609375 10.40625 48.1875 4.484375 
Q 40.765625 -1.421875 27.09375 -1.421875 
Q 22.515625 -1.421875 17.65625 -0.515625 
Q 12.796875 0.390625 7.625 2.203125 
L 7.625 11.71875 
Q 11.71875 9.328125 16.59375 8.109375 
Q 21.484375 6.890625 26.8125 6.890625 
Q 36.078125 6.890625 40.9375 10.546875 
Q 45.796875 14.203125 45.796875 21.1875 
Q 45.796875 27.640625 41.28125 31.265625 
Q 36.765625 34.90625 28.71875 34.90625 
L 20.21875 34.90625 
L 20.21875 43.015625 
L 29.109375 43.015625 
Q 36.375 43.015625 40.234375 45.921875 
Q 44.09375 48.828125 44.09375 54.296875 
Q 44.09375 59.90625 40.109375 62.90625 
Q 36.140625 65.921875 28.71875 65.921875 
Q 24.65625 65.921875 20.015625 65.03125 
Q 15.375 64.15625 9.8125 62.3125 
L 9.8125 71.09375 
Q 15.4375 72.65625 20.34375 73.4375 
Q 25.25 74.21875 29.59375 74.21875 
Q 40.828125 74.21875 47.359375 69.109375 
Q 53.90625 64.015625 53.90625 55.328125 
Q 53.90625 49.265625 50.4375 45.09375 
Q 46.96875 40.921875 40.578125 39.3125 
z
" id="DejaVuSans-51"/>
      </defs>
      <g transform="translate(190.846549 366.566125)scale(0.12 -0.12)">
       <use xlink:href="#DejaVuSans-51"/>
       <use x="63.623047" xlink:href="#DejaVuSans-48"/>
      </g>
     </g>
    </g>
    <g id="xtick_5">
     <g id="line2d_6">
      <g>
       <use style="stroke:#000000;stroke-width:0.8;" x="244.541421" xlink:href="#m06d19916cb" y="350.448"/>
      </g>
     </g>
     <g id="text_5">
      <!-- 40 -->
      <defs>
       <path d="M 37.796875 64.3125 
L 12.890625 25.390625 
L 37.796875 25.390625 
z
M 35.203125 72.90625 
L 47.609375 72.90625 
L 47.609375 25.390625 
L 58.015625 25.390625 
L 58.015625 17.1875 
L 47.609375 17.1875 
L 47.609375 0 
L 37.796875 0 
L 37.796875 17.1875 
L 4.890625 17.1875 
L 4.890625 26.703125 
z
" id="DejaVuSans-52"/>
      </defs>
      <g transform="translate(236.906421 366.566125)scale(0.12 -0.12)">
       <use xlink:href="#DejaVuSans-52"/>
       <use x="63.623047" xlink:href="#DejaVuSans-48"/>
      </g>
     </g>
    </g>
    <g id="xtick_6">
     <g id="line2d_7">
      <g>
       <use style="stroke:#000000;stroke-width:0.8;" x="290.601293" xlink:href="#m06d19916cb" y="350.448"/>
      </g>
     </g>
     <g id="text_6">
      <!-- 50 -->
      <defs>
       <path d="M 10.796875 72.90625 
L 49.515625 72.90625 
L 49.515625 64.59375 
L 19.828125 64.59375 
L 19.828125 46.734375 
Q 21.96875 47.46875 24.109375 47.828125 
Q 26.265625 48.1875 28.421875 48.1875 
Q 40.625 48.1875 47.75 41.5 
Q 54.890625 34.8125 54.890625 23.390625 
Q 54.890625 11.625 47.5625 5.09375 
Q 40.234375 -1.421875 26.90625 -1.421875 
Q 22.3125 -1.421875 17.546875 -0.640625 
Q 12.796875 0.140625 7.71875 1.703125 
L 7.71875 11.625 
Q 12.109375 9.234375 16.796875 8.0625 
Q 21.484375 6.890625 26.703125 6.890625 
Q 35.15625 6.890625 40.078125 11.328125 
Q 45.015625 15.765625 45.015625 23.390625 
Q 45.015625 31 40.078125 35.4375 
Q 35.15625 39.890625 26.703125 39.890625 
Q 22.75 39.890625 18.8125 39.015625 
Q 14.890625 38.140625 10.796875 36.28125 
z
" id="DejaVuSans-53"/>
      </defs>
      <g transform="translate(282.966293 366.566125)scale(0.12 -0.12)">
       <use xlink:href="#DejaVuSans-53"/>
       <use x="63.623047" xlink:href="#DejaVuSans-48"/>
      </g>
     </g>
    </g>
    <g id="xtick_7">
     <g id="line2d_8">
      <g>
       <use style="stroke:#000000;stroke-width:0.8;" x="336.661166" xlink:href="#m06d19916cb" y="350.448"/>
      </g>
     </g>
     <g id="text_7">
      <!-- 60 -->
      <defs>
       <path d="M 33.015625 40.375 
Q 26.375 40.375 22.484375 35.828125 
Q 18.609375 31.296875 18.609375 23.390625 
Q 18.609375 15.53125 22.484375 10.953125 
Q 26.375 6.390625 33.015625 6.390625 
Q 39.65625 6.390625 43.53125 10.953125 
Q 47.40625 15.53125 47.40625 23.390625 
Q 47.40625 31.296875 43.53125 35.828125 
Q 39.65625 40.375 33.015625 40.375 
z
M 52.59375 71.296875 
L 52.59375 62.3125 
Q 48.875 64.0625 45.09375 64.984375 
Q 41.3125 65.921875 37.59375 65.921875 
Q 27.828125 65.921875 22.671875 59.328125 
Q 17.53125 52.734375 16.796875 39.40625 
Q 19.671875 43.65625 24.015625 45.921875 
Q 28.375 48.1875 33.59375 48.1875 
Q 44.578125 48.1875 50.953125 41.515625 
Q 57.328125 34.859375 57.328125 23.390625 
Q 57.328125 12.15625 50.6875 5.359375 
Q 44.046875 -1.421875 33.015625 -1.421875 
Q 20.359375 -1.421875 13.671875 8.265625 
Q 6.984375 17.96875 6.984375 36.375 
Q 6.984375 53.65625 15.1875 63.9375 
Q 23.390625 74.21875 37.203125 74.21875 
Q 40.921875 74.21875 44.703125 73.484375 
Q 48.484375 72.75 52.59375 71.296875 
z
" id="DejaVuSans-54"/>
      </defs>
      <g transform="translate(329.026166 366.566125)scale(0.12 -0.12)">
       <use xlink:href="#DejaVuSans-54"/>
       <use x="63.623047" xlink:href="#DejaVuSans-48"/>
      </g>
     </g>
    </g>
    <g id="text_8">
     <!-- predicted -->
     <defs>
      <path d="M 18.109375 8.203125 
L 18.109375 -20.796875 
L 9.078125 -20.796875 
L 9.078125 54.6875 
L 18.109375 54.6875 
L 18.109375 46.390625 
Q 20.953125 51.265625 25.265625 53.625 
Q 29.59375 56 35.59375 56 
Q 45.5625 56 51.78125 48.09375 
Q 58.015625 40.1875 58.015625 27.296875 
Q 58.015625 14.40625 51.78125 6.484375 
Q 45.5625 -1.421875 35.59375 -1.421875 
Q 29.59375 -1.421875 25.265625 0.953125 
Q 20.953125 3.328125 18.109375 8.203125 
z
M 48.6875 27.296875 
Q 48.6875 37.203125 44.609375 42.84375 
Q 40.53125 48.484375 33.40625 48.484375 
Q 26.265625 48.484375 22.1875 42.84375 
Q 18.109375 37.203125 18.109375 27.296875 
Q 18.109375 17.390625 22.1875 11.75 
Q 26.265625 6.109375 33.40625 6.109375 
Q 40.53125 6.109375 44.609375 11.75 
Q 48.6875 17.390625 48.6875 27.296875 
z
" id="DejaVuSans-112"/>
      <path d="M 41.109375 46.296875 
Q 39.59375 47.171875 37.8125 47.578125 
Q 36.03125 48 33.890625 48 
Q 26.265625 48 22.1875 43.046875 
Q 18.109375 38.09375 18.109375 28.8125 
L 18.109375 0 
L 9.078125 0 
L 9.078125 54.6875 
L 18.109375 54.6875 
L 18.109375 46.1875 
Q 20.953125 51.171875 25.484375 53.578125 
Q 30.03125 56 36.53125 56 
Q 37.453125 56 38.578125 55.875 
Q 39.703125 55.765625 41.0625 55.515625 
z
" id="DejaVuSans-114"/>
      <path d="M 56.203125 29.59375 
L 56.203125 25.203125 
L 14.890625 25.203125 
Q 15.484375 15.921875 20.484375 11.0625 
Q 25.484375 6.203125 34.421875 6.203125 
Q 39.59375 6.203125 44.453125 7.46875 
Q 49.3125 8.734375 54.109375 11.28125 
L 54.109375 2.78125 
Q 49.265625 0.734375 44.1875 -0.34375 
Q 39.109375 -1.421875 33.890625 -1.421875 
Q 20.796875 -1.421875 13.15625 6.1875 
Q 5.515625 13.8125 5.515625 26.8125 
Q 5.515625 40.234375 12.765625 48.109375 
Q 20.015625 56 32.328125 56 
Q 43.359375 56 49.78125 48.890625 
Q 56.203125 41.796875 56.203125 29.59375 
z
M 47.21875 32.234375 
Q 47.125 39.59375 43.09375 43.984375 
Q 39.0625 48.390625 32.421875 48.390625 
Q 24.90625 48.390625 20.390625 44.140625 
Q 15.875 39.890625 15.1875 32.171875 
z
" id="DejaVuSans-101"/>
      <path d="M 45.40625 46.390625 
L 45.40625 75.984375 
L 54.390625 75.984375 
L 54.390625 0 
L 45.40625 0 
L 45.40625 8.203125 
Q 42.578125 3.328125 38.25 0.953125 
Q 33.9375 -1.421875 27.875 -1.421875 
Q 17.96875 -1.421875 11.734375 6.484375 
Q 5.515625 14.40625 5.515625 27.296875 
Q 5.515625 40.1875 11.734375 48.09375 
Q 17.96875 56 27.875 56 
Q 33.9375 56 38.25 53.625 
Q 42.578125 51.265625 45.40625 46.390625 
z
M 14.796875 27.296875 
Q 14.796875 17.390625 18.875 11.75 
Q 22.953125 6.109375 30.078125 6.109375 
Q 37.203125 6.109375 41.296875 11.75 
Q 45.40625 17.390625 45.40625 27.296875 
Q 45.40625 37.203125 41.296875 42.84375 
Q 37.203125 48.484375 30.078125 48.484375 
Q 22.953125 48.484375 18.875 42.84375 
Q 14.796875 37.203125 14.796875 27.296875 
z
" id="DejaVuSans-100"/>
      <path d="M 9.421875 54.6875 
L 18.40625 54.6875 
L 18.40625 0 
L 9.421875 0 
z
M 9.421875 75.984375 
L 18.40625 75.984375 
L 18.40625 64.59375 
L 9.421875 64.59375 
z
" id="DejaVuSans-105"/>
      <path d="M 48.78125 52.59375 
L 48.78125 44.1875 
Q 44.96875 46.296875 41.140625 47.34375 
Q 37.3125 48.390625 33.40625 48.390625 
Q 24.65625 48.390625 19.8125 42.84375 
Q 14.984375 37.3125 14.984375 27.296875 
Q 14.984375 17.28125 19.8125 11.734375 
Q 24.65625 6.203125 33.40625 6.203125 
Q 37.3125 6.203125 41.140625 7.25 
Q 44.96875 8.296875 48.78125 10.40625 
L 48.78125 2.09375 
Q 45.015625 0.34375 40.984375 -0.53125 
Q 36.96875 -1.421875 32.421875 -1.421875 
Q 20.0625 -1.421875 12.78125 6.34375 
Q 5.515625 14.109375 5.515625 27.296875 
Q 5.515625 40.671875 12.859375 48.328125 
Q 20.21875 56 33.015625 56 
Q 37.15625 56 41.109375 55.140625 
Q 45.0625 54.296875 48.78125 52.59375 
z
" id="DejaVuSans-99"/>
      <path d="M 18.3125 70.21875 
L 18.3125 54.6875 
L 36.8125 54.6875 
L 36.8125 47.703125 
L 18.3125 47.703125 
L 18.3125 18.015625 
Q 18.3125 11.328125 20.140625 9.421875 
Q 21.96875 7.515625 27.59375 7.515625 
L 36.8125 7.515625 
L 36.8125 0 
L 27.59375 0 
Q 17.1875 0 13.234375 3.875 
Q 9.28125 7.765625 9.28125 18.015625 
L 9.28125 47.703125 
L 2.6875 47.703125 
L 2.6875 54.6875 
L 9.28125 54.6875 
L 9.28125 70.21875 
z
" id="DejaVuSans-116"/>
     </defs>
     <g transform="translate(183.89 382.179875)scale(0.12 -0.12)">
      <use xlink:href="#DejaVuSans-112"/>
      <use x="63.476562" xlink:href="#DejaVuSans-114"/>
      <use x="104.558594" xlink:href="#DejaVuSans-101"/>
      <use x="166.082031" xlink:href="#DejaVuSans-100"/>
      <use x="229.558594" xlink:href="#DejaVuSans-105"/>
      <use x="257.341797" xlink:href="#DejaVuSans-99"/>
      <use x="312.322266" xlink:href="#DejaVuSans-116"/>
      <use x="351.53125" xlink:href="#DejaVuSans-101"/>
      <use x="413.054688" xlink:href="#DejaVuSans-100"/>
     </g>
    </g>
   </g>
   <g id="matplotlib.axis_2">
    <g id="ytick_1">
     <g id="line2d_9">
      <defs>
       <path d="M 0 0 
L -3.5 0 
" id="mf3aefd28ef" style="stroke:#000000;stroke-width:0.8;"/>
      </defs>
      <g>
       <use style="stroke:#000000;stroke-width:0.8;" x="45.08375" xlink:href="#mf3aefd28ef" y="335.581285"/>
      </g>
     </g>
     <g id="text_9">
      <!-- 0 -->
      <g transform="translate(30.44875 340.140347)scale(0.12 -0.12)">
       <use xlink:href="#DejaVuSans-48"/>
      </g>
     </g>
    </g>
    <g id="ytick_2">
     <g id="line2d_10">
      <g>
       <use style="stroke:#000000;stroke-width:0.8;" x="45.08375" xlink:href="#mf3aefd28ef" y="290.722542"/>
      </g>
     </g>
     <g id="text_10">
      <!-- 10 -->
      <g transform="translate(22.81375 295.281605)scale(0.12 -0.12)">
       <use xlink:href="#DejaVuSans-49"/>
       <use x="63.623047" xlink:href="#DejaVuSans-48"/>
      </g>
     </g>
    </g>
    <g id="ytick_3">
     <g id="line2d_11">
      <g>
       <use style="stroke:#000000;stroke-width:0.8;" x="45.08375" xlink:href="#mf3aefd28ef" y="245.8638"/>
      </g>
     </g>
     <g id="text_11">
      <!-- 20 -->
      <g transform="translate(22.81375 250.422862)scale(0.12 -0.12)">
       <use xlink:href="#DejaVuSans-50"/>
       <use x="63.623047" xlink:href="#DejaVuSans-48"/>
      </g>
     </g>
    </g>
    <g id="ytick_4">
     <g id="line2d_12">
      <g>
       <use style="stroke:#000000;stroke-width:0.8;" x="45.08375" xlink:href="#mf3aefd28ef" y="201.005058"/>
      </g>
     </g>
     <g id="text_12">
      <!-- 30 -->
      <g transform="translate(22.81375 205.56412)scale(0.12 -0.12)">
       <use xlink:href="#DejaVuSans-51"/>
       <use x="63.623047" xlink:href="#DejaVuSans-48"/>
      </g>
     </g>
    </g>
    <g id="ytick_5">
     <g id="line2d_13">
      <g>
       <use style="stroke:#000000;stroke-width:0.8;" x="45.08375" xlink:href="#mf3aefd28ef" y="156.146315"/>
      </g>
     </g>
     <g id="text_13">
      <!-- 40 -->
      <g transform="translate(22.81375 160.705378)scale(0.12 -0.12)">
       <use xlink:href="#DejaVuSans-52"/>
       <use x="63.623047" xlink:href="#DejaVuSans-48"/>
      </g>
     </g>
    </g>
    <g id="ytick_6">
     <g id="line2d_14">
      <g>
       <use style="stroke:#000000;stroke-width:0.8;" x="45.08375" xlink:href="#mf3aefd28ef" y="111.287573"/>
      </g>
     </g>
     <g id="text_14">
      <!-- 50 -->
      <g transform="translate(22.81375 115.846636)scale(0.12 -0.12)">
       <use xlink:href="#DejaVuSans-53"/>
       <use x="63.623047" xlink:href="#DejaVuSans-48"/>
      </g>
     </g>
    </g>
    <g id="ytick_7">
     <g id="line2d_15">
      <g>
       <use style="stroke:#000000;stroke-width:0.8;" x="45.08375" xlink:href="#mf3aefd28ef" y="66.428831"/>
      </g>
     </g>
     <g id="text_15">
      <!-- 60 -->
      <g transform="translate(22.81375 70.987893)scale(0.12 -0.12)">
       <use xlink:href="#DejaVuSans-54"/>
       <use x="63.623047" xlink:href="#DejaVuSans-48"/>
      </g>
     </g>
    </g>
    <g id="text_16">
     <!-- observed -->
     <defs>
      <path d="M 30.609375 48.390625 
Q 23.390625 48.390625 19.1875 42.75 
Q 14.984375 37.109375 14.984375 27.296875 
Q 14.984375 17.484375 19.15625 11.84375 
Q 23.34375 6.203125 30.609375 6.203125 
Q 37.796875 6.203125 41.984375 11.859375 
Q 46.1875 17.53125 46.1875 27.296875 
Q 46.1875 37.015625 41.984375 42.703125 
Q 37.796875 48.390625 30.609375 48.390625 
z
M 30.609375 56 
Q 42.328125 56 49.015625 48.375 
Q 55.71875 40.765625 55.71875 27.296875 
Q 55.71875 13.875 49.015625 6.21875 
Q 42.328125 -1.421875 30.609375 -1.421875 
Q 18.84375 -1.421875 12.171875 6.21875 
Q 5.515625 13.875 5.515625 27.296875 
Q 5.515625 40.765625 12.171875 48.375 
Q 18.84375 56 30.609375 56 
z
" id="DejaVuSans-111"/>
      <path d="M 48.6875 27.296875 
Q 48.6875 37.203125 44.609375 42.84375 
Q 40.53125 48.484375 33.40625 48.484375 
Q 26.265625 48.484375 22.1875 42.84375 
Q 18.109375 37.203125 18.109375 27.296875 
Q 18.109375 17.390625 22.1875 11.75 
Q 26.265625 6.109375 33.40625 6.109375 
Q 40.53125 6.109375 44.609375 11.75 
Q 48.6875 17.390625 48.6875 27.296875 
z
M 18.109375 46.390625 
Q 20.953125 51.265625 25.265625 53.625 
Q 29.59375 56 35.59375 56 
Q 45.5625 56 51.78125 48.09375 
Q 58.015625 40.1875 58.015625 27.296875 
Q 58.015625 14.40625 51.78125 6.484375 
Q 45.5625 -1.421875 35.59375 -1.421875 
Q 29.59375 -1.421875 25.265625 0.953125 
Q 20.953125 3.328125 18.109375 8.203125 
L 18.109375 0 
L 9.078125 0 
L 9.078125 75.984375 
L 18.109375 75.984375 
z
" id="DejaVuSans-98"/>
      <path d="M 44.28125 53.078125 
L 44.28125 44.578125 
Q 40.484375 46.53125 36.375 47.5 
Q 32.28125 48.484375 27.875 48.484375 
Q 21.1875 48.484375 17.84375 46.4375 
Q 14.5 44.390625 14.5 40.28125 
Q 14.5 37.15625 16.890625 35.375 
Q 19.28125 33.59375 26.515625 31.984375 
L 29.59375 31.296875 
Q 39.15625 29.25 43.1875 25.515625 
Q 47.21875 21.78125 47.21875 15.09375 
Q 47.21875 7.46875 41.1875 3.015625 
Q 35.15625 -1.421875 24.609375 -1.421875 
Q 20.21875 -1.421875 15.453125 -0.5625 
Q 10.6875 0.296875 5.421875 2 
L 5.421875 11.28125 
Q 10.40625 8.6875 15.234375 7.390625 
Q 20.0625 6.109375 24.8125 6.109375 
Q 31.15625 6.109375 34.5625 8.28125 
Q 37.984375 10.453125 37.984375 14.40625 
Q 37.984375 18.0625 35.515625 20.015625 
Q 33.0625 21.96875 24.703125 23.78125 
L 21.578125 24.515625 
Q 13.234375 26.265625 9.515625 29.90625 
Q 5.8125 33.546875 5.8125 39.890625 
Q 5.8125 47.609375 11.28125 51.796875 
Q 16.75 56 26.8125 56 
Q 31.78125 56 36.171875 55.265625 
Q 40.578125 54.546875 44.28125 53.078125 
z
" id="DejaVuSans-115"/>
      <path d="M 2.984375 54.6875 
L 12.5 54.6875 
L 29.59375 8.796875 
L 46.6875 54.6875 
L 56.203125 54.6875 
L 35.6875 0 
L 23.484375 0 
z
" id="DejaVuSans-118"/>
     </defs>
     <g transform="translate(16.318125 215.184563)rotate(-90)scale(0.12 -0.12)">
      <use xlink:href="#DejaVuSans-111"/>
      <use x="61.181641" xlink:href="#DejaVuSans-98"/>
      <use x="124.658203" xlink:href="#DejaVuSans-115"/>
      <use x="176.757812" xlink:href="#DejaVuSans-101"/>
      <use x="238.28125" xlink:href="#DejaVuSans-114"/>
      <use x="279.394531" xlink:href="#DejaVuSans-118"/>
      <use x="338.574219" xlink:href="#DejaVuSans-101"/>
      <use x="400.097656" xlink:href="#DejaVuSans-100"/>
     </g>
    </g>
   </g>
   <g id="patch_3">
    <path d="M 45.08375 350.448 
L 45.08375 24.288 
" style="fill:none;stroke:#000000;stroke-linecap:square;stroke-linejoin:miter;stroke-width:0.8;"/>
   </g>
   <g id="patch_4">
    <path d="M 379.88375 350.448 
L 379.88375 24.288 
" style="fill:none;stroke:#000000;stroke-linecap:square;stroke-linejoin:miter;stroke-width:0.8;"/>
   </g>
   <g id="patch_5">
    <path d="M 45.08375 350.448 
L 379.88375 350.448 
" style="fill:none;stroke:#000000;stroke-linecap:square;stroke-linejoin:miter;stroke-width:0.8;"/>
   </g>
   <g id="patch_6">
    <path d="M 45.08375 24.288 
L 379.88375 24.288 
" style="fill:none;stroke:#000000;stroke-linecap:square;stroke-linejoin:miter;stroke-width:0.8;"/>
   </g>
   <g id="text_17">
    <!-- GP|$P(Ph)_2Cy$|DFT(RMSE = 14.28, R^2 = 0.11) -->
    <defs>
     <path d="M 59.515625 10.40625 
L 59.515625 29.984375 
L 43.40625 29.984375 
L 43.40625 38.09375 
L 69.28125 38.09375 
L 69.28125 6.78125 
Q 63.578125 2.734375 56.6875 0.65625 
Q 49.8125 -1.421875 42 -1.421875 
Q 24.90625 -1.421875 15.25 8.5625 
Q 5.609375 18.5625 5.609375 36.375 
Q 5.609375 54.25 15.25 64.234375 
Q 24.90625 74.21875 42 74.21875 
Q 49.125 74.21875 55.546875 72.453125 
Q 61.96875 70.703125 67.390625 67.28125 
L 67.390625 56.78125 
Q 61.921875 61.421875 55.765625 63.765625 
Q 49.609375 66.109375 42.828125 66.109375 
Q 29.4375 66.109375 22.71875 58.640625 
Q 16.015625 51.171875 16.015625 36.375 
Q 16.015625 21.625 22.71875 14.15625 
Q 29.4375 6.6875 42.828125 6.6875 
Q 48.046875 6.6875 52.140625 7.59375 
Q 56.25 8.5 59.515625 10.40625 
z
" id="DejaVuSans-71"/>
     <path d="M 19.671875 64.796875 
L 19.671875 37.40625 
L 32.078125 37.40625 
Q 38.96875 37.40625 42.71875 40.96875 
Q 46.484375 44.53125 46.484375 51.125 
Q 46.484375 57.671875 42.71875 61.234375 
Q 38.96875 64.796875 32.078125 64.796875 
z
M 9.8125 72.90625 
L 32.078125 72.90625 
Q 44.34375 72.90625 50.609375 67.359375 
Q 56.890625 61.8125 56.890625 51.125 
Q 56.890625 40.328125 50.609375 34.8125 
Q 44.34375 29.296875 32.078125 29.296875 
L 19.671875 29.296875 
L 19.671875 0 
L 9.8125 0 
z
" id="DejaVuSans-80"/>
     <path d="M 21 76.421875 
L 21 -23.578125 
L 12.703125 -23.578125 
L 12.703125 76.421875 
z
" id="DejaVuSans-124"/>
     <path d="M 16.890625 72.90625 
L 39.703125 72.90625 
Q 49.65625 72.90625 54.875 68.265625 
Q 60.109375 63.625 60.109375 54.6875 
Q 60.109375 42.671875 52.390625 35.984375 
Q 44.671875 29.296875 30.71875 29.296875 
L 18.3125 29.296875 
L 12.59375 0 
L 2.6875 0 
z
M 25.203125 64.796875 
L 19.921875 37.40625 
L 32.328125 37.40625 
Q 40.71875 37.40625 45.203125 41.703125 
Q 49.703125 46 49.703125 54 
Q 49.703125 59.125 46.65625 61.953125 
Q 43.609375 64.796875 38.09375 64.796875 
z
" id="DejaVuSans-Oblique-80"/>
     <path d="M 31 75.875 
Q 24.46875 64.65625 21.28125 53.65625 
Q 18.109375 42.671875 18.109375 31.390625 
Q 18.109375 20.125 21.3125 9.0625 
Q 24.515625 -2 31 -13.1875 
L 23.1875 -13.1875 
Q 15.875 -1.703125 12.234375 9.375 
Q 8.59375 20.453125 8.59375 31.390625 
Q 8.59375 42.28125 12.203125 53.3125 
Q 15.828125 64.359375 23.1875 75.875 
z
" id="DejaVuSans-40"/>
     <path d="M 55.71875 33.015625 
L 49.3125 0 
L 40.28125 0 
L 46.6875 32.671875 
Q 47.125 34.96875 47.359375 36.71875 
Q 47.609375 38.484375 47.609375 39.5 
Q 47.609375 43.609375 45.015625 45.890625 
Q 42.4375 48.1875 37.796875 48.1875 
Q 30.5625 48.1875 25.265625 43.296875 
Q 19.96875 38.421875 18.40625 30.328125 
L 12.5 0 
L 3.515625 0 
L 18.3125 75.984375 
L 27.296875 75.984375 
L 21.484375 46.09375 
Q 24.90625 50.6875 30.21875 53.34375 
Q 35.546875 56 41.40625 56 
Q 48.640625 56 52.609375 52.09375 
Q 56.59375 48.1875 56.59375 41.109375 
Q 56.59375 39.359375 56.375 37.359375 
Q 56.15625 35.359375 55.71875 33.015625 
z
" id="DejaVuSans-Oblique-104"/>
     <path d="M 8.015625 75.875 
L 15.828125 75.875 
Q 23.140625 64.359375 26.78125 53.3125 
Q 30.421875 42.28125 30.421875 31.390625 
Q 30.421875 20.453125 26.78125 9.375 
Q 23.140625 -1.703125 15.828125 -13.1875 
L 8.015625 -13.1875 
Q 14.5 -2 17.703125 9.0625 
Q 20.90625 20.125 20.90625 31.390625 
Q 20.90625 42.671875 17.703125 53.65625 
Q 14.5 64.65625 8.015625 75.875 
z
" id="DejaVuSans-41"/>
     <path d="M 69.484375 67.28125 
L 67.484375 56.890625 
Q 62.796875 61.625 57.546875 63.921875 
Q 52.296875 66.21875 46.1875 66.21875 
Q 37.84375 66.21875 31.515625 62.203125 
Q 25.203125 58.203125 20.609375 50 
Q 17.671875 44.734375 16.125 38.84375 
Q 14.59375 32.953125 14.59375 27 
Q 14.59375 17.046875 19.75 11.8125 
Q 24.90625 6.59375 34.71875 6.59375 
Q 41.5 6.59375 47.75 8.765625 
Q 54 10.9375 59.90625 15.28125 
L 57.625 3.609375 
Q 51.8125 1.125 45.875 -0.140625 
Q 39.9375 -1.421875 33.984375 -1.421875 
Q 19.96875 -1.421875 12.078125 6.1875 
Q 4.203125 13.8125 4.203125 27.390625 
Q 4.203125 36.078125 7.203125 44.46875 
Q 10.203125 52.875 15.828125 59.8125 
Q 21.78125 67.1875 29.421875 70.703125 
Q 37.0625 74.21875 47.21875 74.21875 
Q 53.46875 74.21875 59.0625 72.484375 
Q 64.65625 70.75 69.484375 67.28125 
z
" id="DejaVuSans-Oblique-67"/>
     <path d="M 24.8125 -5.078125 
Q 18.5625 -15.578125 14.625 -18.1875 
Q 10.6875 -20.796875 4.59375 -20.796875 
L -2.484375 -20.796875 
L -0.984375 -13.28125 
L 4.203125 -13.28125 
Q 7.953125 -13.28125 10.59375 -11.234375 
Q 13.234375 -9.1875 16.5 -3.21875 
L 19.28125 2 
L 7.171875 54.6875 
L 16.703125 54.6875 
L 25.78125 12.796875 
L 50.875 54.6875 
L 60.296875 54.6875 
z
" id="DejaVuSans-Oblique-121"/>
     <path d="M 19.671875 64.796875 
L 19.671875 8.109375 
L 31.59375 8.109375 
Q 46.6875 8.109375 53.6875 14.9375 
Q 60.6875 21.78125 60.6875 36.53125 
Q 60.6875 51.171875 53.6875 57.984375 
Q 46.6875 64.796875 31.59375 64.796875 
z
M 9.8125 72.90625 
L 30.078125 72.90625 
Q 51.265625 72.90625 61.171875 64.09375 
Q 71.09375 55.28125 71.09375 36.53125 
Q 71.09375 17.671875 61.125 8.828125 
Q 51.171875 0 30.078125 0 
L 9.8125 0 
z
" id="DejaVuSans-68"/>
     <path d="M 9.8125 72.90625 
L 51.703125 72.90625 
L 51.703125 64.59375 
L 19.671875 64.59375 
L 19.671875 43.109375 
L 48.578125 43.109375 
L 48.578125 34.8125 
L 19.671875 34.8125 
L 19.671875 0 
L 9.8125 0 
z
" id="DejaVuSans-70"/>
     <path d="M -0.296875 72.90625 
L 61.375 72.90625 
L 61.375 64.59375 
L 35.5 64.59375 
L 35.5 0 
L 25.59375 0 
L 25.59375 64.59375 
L -0.296875 64.59375 
z
" id="DejaVuSans-84"/>
     <path d="M 44.390625 34.1875 
Q 47.5625 33.109375 50.5625 29.59375 
Q 53.5625 26.078125 56.59375 19.921875 
L 66.609375 0 
L 56 0 
L 46.6875 18.703125 
Q 43.0625 26.03125 39.671875 28.421875 
Q 36.28125 30.8125 30.421875 30.8125 
L 19.671875 30.8125 
L 19.671875 0 
L 9.8125 0 
L 9.8125 72.90625 
L 32.078125 72.90625 
Q 44.578125 72.90625 50.734375 67.671875 
Q 56.890625 62.453125 56.890625 51.90625 
Q 56.890625 45.015625 53.6875 40.46875 
Q 50.484375 35.9375 44.390625 34.1875 
z
M 19.671875 64.796875 
L 19.671875 38.921875 
L 32.078125 38.921875 
Q 39.203125 38.921875 42.84375 42.21875 
Q 46.484375 45.515625 46.484375 51.90625 
Q 46.484375 58.296875 42.84375 61.546875 
Q 39.203125 64.796875 32.078125 64.796875 
z
" id="DejaVuSans-82"/>
     <path d="M 9.8125 72.90625 
L 24.515625 72.90625 
L 43.109375 23.296875 
L 61.8125 72.90625 
L 76.515625 72.90625 
L 76.515625 0 
L 66.890625 0 
L 66.890625 64.015625 
L 48.09375 14.015625 
L 38.1875 14.015625 
L 19.390625 64.015625 
L 19.390625 0 
L 9.8125 0 
z
" id="DejaVuSans-77"/>
     <path d="M 53.515625 70.515625 
L 53.515625 60.890625 
Q 47.90625 63.578125 42.921875 64.890625 
Q 37.9375 66.21875 33.296875 66.21875 
Q 25.25 66.21875 20.875 63.09375 
Q 16.5 59.96875 16.5 54.203125 
Q 16.5 49.359375 19.40625 46.890625 
Q 22.3125 44.4375 30.421875 42.921875 
L 36.375 41.703125 
Q 47.40625 39.59375 52.65625 34.296875 
Q 57.90625 29 57.90625 20.125 
Q 57.90625 9.515625 50.796875 4.046875 
Q 43.703125 -1.421875 29.984375 -1.421875 
Q 24.8125 -1.421875 18.96875 -0.25 
Q 13.140625 0.921875 6.890625 3.21875 
L 6.890625 13.375 
Q 12.890625 10.015625 18.65625 8.296875 
Q 24.421875 6.59375 29.984375 6.59375 
Q 38.421875 6.59375 43.015625 9.90625 
Q 47.609375 13.234375 47.609375 19.390625 
Q 47.609375 24.75 44.3125 27.78125 
Q 41.015625 30.8125 33.5 32.328125 
L 27.484375 33.5 
Q 16.453125 35.6875 11.515625 40.375 
Q 6.59375 45.0625 6.59375 53.421875 
Q 6.59375 63.09375 13.40625 68.65625 
Q 20.21875 74.21875 32.171875 74.21875 
Q 37.3125 74.21875 42.625 73.28125 
Q 47.953125 72.359375 53.515625 70.515625 
z
" id="DejaVuSans-83"/>
     <path d="M 9.8125 72.90625 
L 55.90625 72.90625 
L 55.90625 64.59375 
L 19.671875 64.59375 
L 19.671875 43.015625 
L 54.390625 43.015625 
L 54.390625 34.71875 
L 19.671875 34.71875 
L 19.671875 8.296875 
L 56.78125 8.296875 
L 56.78125 0 
L 9.8125 0 
z
" id="DejaVuSans-69"/>
     <path id="DejaVuSans-32"/>
     <path d="M 10.59375 45.40625 
L 73.1875 45.40625 
L 73.1875 37.203125 
L 10.59375 37.203125 
z
M 10.59375 25.484375 
L 73.1875 25.484375 
L 73.1875 17.1875 
L 10.59375 17.1875 
z
" id="DejaVuSans-61"/>
     <path d="M 10.6875 12.40625 
L 21 12.40625 
L 21 0 
L 10.6875 0 
z
" id="DejaVuSans-46"/>
     <path d="M 31.78125 34.625 
Q 24.75 34.625 20.71875 30.859375 
Q 16.703125 27.09375 16.703125 20.515625 
Q 16.703125 13.921875 20.71875 10.15625 
Q 24.75 6.390625 31.78125 6.390625 
Q 38.8125 6.390625 42.859375 10.171875 
Q 46.921875 13.96875 46.921875 20.515625 
Q 46.921875 27.09375 42.890625 30.859375 
Q 38.875 34.625 31.78125 34.625 
z
M 21.921875 38.8125 
Q 15.578125 40.375 12.03125 44.71875 
Q 8.5 49.078125 8.5 55.328125 
Q 8.5 64.0625 14.71875 69.140625 
Q 20.953125 74.21875 31.78125 74.21875 
Q 42.671875 74.21875 48.875 69.140625 
Q 55.078125 64.0625 55.078125 55.328125 
Q 55.078125 49.078125 51.53125 44.71875 
Q 48 40.375 41.703125 38.8125 
Q 48.828125 37.15625 52.796875 32.3125 
Q 56.78125 27.484375 56.78125 20.515625 
Q 56.78125 9.90625 50.3125 4.234375 
Q 43.84375 -1.421875 31.78125 -1.421875 
Q 19.734375 -1.421875 13.25 4.234375 
Q 6.78125 9.90625 6.78125 20.515625 
Q 6.78125 27.484375 10.78125 32.3125 
Q 14.796875 37.15625 21.921875 38.8125 
z
M 18.3125 54.390625 
Q 18.3125 48.734375 21.84375 45.5625 
Q 25.390625 42.390625 31.78125 42.390625 
Q 38.140625 42.390625 41.71875 45.5625 
Q 45.3125 48.734375 45.3125 54.390625 
Q 45.3125 60.0625 41.71875 63.234375 
Q 38.140625 66.40625 31.78125 66.40625 
Q 25.390625 66.40625 21.84375 63.234375 
Q 18.3125 60.0625 18.3125 54.390625 
z
" id="DejaVuSans-56"/>
     <path d="M 11.71875 12.40625 
L 22.015625 12.40625 
L 22.015625 4 
L 14.015625 -11.625 
L 7.71875 -11.625 
L 11.71875 4 
z
" id="DejaVuSans-44"/>
     <path d="M 46.6875 72.90625 
L 73.1875 45.703125 
L 63.375 45.703125 
L 41.890625 64.984375 
L 20.40625 45.703125 
L 10.59375 45.703125 
L 37.109375 72.90625 
z
" id="DejaVuSans-94"/>
    </defs>
    <g transform="translate(47.96375 18.288)scale(0.144 -0.144)">
     <use transform="translate(0 0.578125)" xlink:href="#DejaVuSans-71"/>
     <use transform="translate(77.490234 0.578125)" xlink:href="#DejaVuSans-80"/>
     <use transform="translate(137.792969 0.578125)" xlink:href="#DejaVuSans-124"/>
     <use transform="translate(171.484375 0.578125)" xlink:href="#DejaVuSans-Oblique-80"/>
     <use transform="translate(231.787109 0.578125)" xlink:href="#DejaVuSans-40"/>
     <use transform="translate(270.800781 0.578125)" xlink:href="#DejaVuSans-Oblique-80"/>
     <use transform="translate(331.103516 0.578125)" xlink:href="#DejaVuSans-Oblique-104"/>
     <use transform="translate(394.482422 0.578125)" xlink:href="#DejaVuSans-41"/>
     <use transform="translate(434.453125 -15.828125)scale(0.7)" xlink:href="#DejaVuSans-50"/>
     <use transform="translate(481.723633 0.578125)" xlink:href="#DejaVuSans-Oblique-67"/>
     <use transform="translate(551.547852 0.578125)" xlink:href="#DejaVuSans-Oblique-121"/>
     <use transform="translate(610.727539 0.578125)" xlink:href="#DejaVuSans-124"/>
     <use transform="translate(644.418945 0.578125)" xlink:href="#DejaVuSans-68"/>
     <use transform="translate(721.420898 0.578125)" xlink:href="#DejaVuSans-70"/>
     <use transform="translate(778.94043 0.578125)" xlink:href="#DejaVuSans-84"/>
     <use transform="translate(840.024414 0.578125)" xlink:href="#DejaVuSans-40"/>
     <use transform="translate(879.038086 0.578125)" xlink:href="#DejaVuSans-82"/>
     <use transform="translate(948.520508 0.578125)" xlink:href="#DejaVuSans-77"/>
     <use transform="translate(1034.799805 0.578125)" xlink:href="#DejaVuSans-83"/>
     <use transform="translate(1098.276367 0.578125)" xlink:href="#DejaVuSans-69"/>
     <use transform="translate(1161.459961 0.578125)" xlink:href="#DejaVuSans-32"/>
     <use transform="translate(1193.24707 0.578125)" xlink:href="#DejaVuSans-61"/>
     <use transform="translate(1277.036133 0.578125)" xlink:href="#DejaVuSans-32"/>
     <use transform="translate(1308.823242 0.578125)" xlink:href="#DejaVuSans-49"/>
     <use transform="translate(1372.446289 0.578125)" xlink:href="#DejaVuSans-52"/>
     <use transform="translate(1436.069336 0.578125)" xlink:href="#DejaVuSans-46"/>
     <use transform="translate(1467.77832 0.578125)" xlink:href="#DejaVuSans-50"/>
     <use transform="translate(1531.401367 0.578125)" xlink:href="#DejaVuSans-56"/>
     <use transform="translate(1595.024414 0.578125)" xlink:href="#DejaVuSans-44"/>
     <use transform="translate(1626.811523 0.578125)" xlink:href="#DejaVuSans-32"/>
     <use transform="translate(1658.598633 0.578125)" xlink:href="#DejaVuSans-82"/>
     <use transform="translate(1728.081055 0.578125)" xlink:href="#DejaVuSans-94"/>
     <use transform="translate(1811.870117 0.578125)" xlink:href="#DejaVuSans-50"/>
     <use transform="translate(1875.493164 0.578125)" xlink:href="#DejaVuSans-32"/>
     <use transform="translate(1907.280273 0.578125)" xlink:href="#DejaVuSans-61"/>
     <use transform="translate(1991.069336 0.578125)" xlink:href="#DejaVuSans-32"/>
     <use transform="translate(2022.856445 0.578125)" xlink:href="#DejaVuSans-48"/>
     <use transform="translate(2086.479492 0.578125)" xlink:href="#DejaVuSans-46"/>
     <use transform="translate(2118.266602 0.578125)" xlink:href="#DejaVuSans-49"/>
     <use transform="translate(2181.889648 0.578125)" xlink:href="#DejaVuSans-49"/>
     <use transform="translate(2245.512695 0.578125)" xlink:href="#DejaVuSans-41"/>
    </g>
   </g>
  </g>
 </g>
 <defs>
  <clipPath id="pba96caa619">
   <rect height="326.16" width="334.8" x="45.08375" y="24.288"/>
  </clipPath>
 </defs>
</svg>
