<?xml version="1.0" encoding="utf-8" standalone="no"?>
<!DOCTYPE svg PUBLIC "-//W3C//DTD SVG 1.1//EN"
  "http://www.w3.org/Graphics/SVG/1.1/DTD/svg11.dtd">
<!-- Created with matplotlib (https://matplotlib.org/) -->
<svg height="391.79225pt" version="1.1" viewBox="0 0 403.557125 391.79225" width="403.557125pt" xmlns="http://www.w3.org/2000/svg" xmlns:xlink="http://www.w3.org/1999/xlink">
 <defs>
  <style type="text/css">
*{stroke-linecap:butt;stroke-linejoin:round;}
  </style>
 </defs>
 <g id="figure_1">
  <g id="patch_1">
   <path d="M 0 391.79225 
L 403.557125 391.79225 
L 403.557125 0 
L 0 0 
z
" style="fill:#ffffff;"/>
  </g>
  <g id="axes_1">
   <g id="patch_2">
    <path d="M 45.08375 350.36475 
L 379.88375 350.36475 
L 379.88375 24.20475 
L 45.08375 24.20475 
z
" style="fill:#ffffff;"/>
   </g>
   <g id="line2d_1">
    <path clip-path="url(#p18fa5be705)" d="M 60.301932 335.486389 
L 364.612661 39.030205 
" style="fill:none;stroke:#000000;stroke-linecap:square;stroke-opacity:0.75;stroke-width:1.5;"/>
   </g>
   <g id="PathCollection_1">
    <defs>
     <path d="M 0 3 
C 0.795609 3 1.55874 2.683901 2.12132 2.12132 
C 2.683901 1.55874 3 0.795609 3 0 
C 3 -0.795609 2.683901 -1.55874 2.12132 -2.12132 
C 1.55874 -2.683901 0.795609 -3 0 -3 
C -0.795609 -3 -1.55874 -2.683901 -2.12132 -2.12132 
C -2.683901 -1.55874 -3 -0.795609 -3 0 
C -3 0.795609 -2.683901 1.55874 -2.12132 2.12132 
C -1.55874 2.683901 -0.795609 3 0 3 
z
" id="maa0ee43b02" style="stroke:#000000;stroke-opacity:0.4;"/>
    </defs>
    <g clip-path="url(#p18fa5be705)">
     <use style="fill-opacity:0.4;stroke:#000000;stroke-opacity:0.4;" x="253.43324" xlink:href="#maa0ee43b02" y="305.690977"/>
     <use style="fill-opacity:0.4;stroke:#000000;stroke-opacity:0.4;" x="250.432857" xlink:href="#maa0ee43b02" y="307.53162"/>
     <use style="fill-opacity:0.4;stroke:#000000;stroke-opacity:0.4;" x="239.909194" xlink:href="#maa0ee43b02" y="285.386381"/>
     <use style="fill-opacity:0.4;stroke:#000000;stroke-opacity:0.4;" x="192.923328" xlink:href="#maa0ee43b02" y="319.898441"/>
     <use style="fill-opacity:0.4;stroke:#000000;stroke-opacity:0.4;" x="134.052946" xlink:href="#maa0ee43b02" y="325.938052"/>
     <use style="fill-opacity:0.4;stroke:#000000;stroke-opacity:0.4;" x="170.435338" xlink:href="#maa0ee43b02" y="330.137019"/>
     <use style="fill-opacity:0.4;stroke:#000000;stroke-opacity:0.4;" x="182.386443" xlink:href="#maa0ee43b02" y="327.548615"/>
     <use style="fill-opacity:0.4;stroke:#000000;stroke-opacity:0.4;" x="163.935536" xlink:href="#maa0ee43b02" y="330.021979"/>
     <use style="fill-opacity:0.4;stroke:#000000;stroke-opacity:0.4;" x="105.149314" xlink:href="#maa0ee43b02" y="325.823012"/>
     <use style="fill-opacity:0.4;stroke:#000000;stroke-opacity:0.4;" x="141.916715" xlink:href="#maa0ee43b02" y="335.486389"/>
     <use style="fill-opacity:0.4;stroke:#000000;stroke-opacity:0.4;" x="124.224002" xlink:href="#maa0ee43b02" y="335.486389"/>
     <use style="fill-opacity:0.4;stroke:#000000;stroke-opacity:0.4;" x="132.214928" xlink:href="#maa0ee43b02" y="335.486389"/>
     <use style="fill-opacity:0.4;stroke:#000000;stroke-opacity:0.4;" x="99.712512" xlink:href="#maa0ee43b02" y="327.145974"/>
     <use style="fill-opacity:0.4;stroke:#000000;stroke-opacity:0.4;" x="130.590499" xlink:href="#maa0ee43b02" y="332.782944"/>
     <use style="fill-opacity:0.4;stroke:#000000;stroke-opacity:0.4;" x="147.721374" xlink:href="#maa0ee43b02" y="329.331738"/>
     <use style="fill-opacity:0.4;stroke:#000000;stroke-opacity:0.4;" x="138.363416" xlink:href="#maa0ee43b02" y="332.667904"/>
     <use style="fill-opacity:0.4;stroke:#000000;stroke-opacity:0.4;" x="320.919096" xlink:href="#maa0ee43b02" y="280.957333"/>
     <use style="fill-opacity:0.4;stroke:#000000;stroke-opacity:0.4;" x="364.612661" xlink:href="#maa0ee43b02" y="211.473051"/>
     <use style="fill-opacity:0.4;stroke:#000000;stroke-opacity:0.4;" x="331.146828" xlink:href="#maa0ee43b02" y="264.851705"/>
     <use style="fill-opacity:0.4;stroke:#000000;stroke-opacity:0.4;" x="255.712579" xlink:href="#maa0ee43b02" y="309.084662"/>
     <use style="fill-opacity:0.4;stroke:#000000;stroke-opacity:0.4;" x="153.327373" xlink:href="#maa0ee43b02" y="325.190291"/>
     <use style="fill-opacity:0.4;stroke:#000000;stroke-opacity:0.4;" x="189.339366" xlink:href="#maa0ee43b02" y="315.411874"/>
     <use style="fill-opacity:0.4;stroke:#000000;stroke-opacity:0.4;" x="197.47874" xlink:href="#maa0ee43b02" y="321.163884"/>
     <use style="fill-opacity:0.4;stroke:#000000;stroke-opacity:0.4;" x="178.685534" xlink:href="#maa0ee43b02" y="328.583977"/>
     <use style="fill-opacity:0.4;stroke:#000000;stroke-opacity:0.4;" x="121.838376" xlink:href="#maa0ee43b02" y="322.314286"/>
     <use style="fill-opacity:0.4;stroke:#000000;stroke-opacity:0.4;" x="150.937608" xlink:href="#maa0ee43b02" y="330.884781"/>
     <use style="fill-opacity:0.4;stroke:#000000;stroke-opacity:0.4;" x="124.316128" xlink:href="#maa0ee43b02" y="334.335987"/>
     <use style="fill-opacity:0.4;stroke:#000000;stroke-opacity:0.4;" x="153.326281" xlink:href="#maa0ee43b02" y="335.486389"/>
     <use style="fill-opacity:0.4;stroke:#000000;stroke-opacity:0.4;" x="117.100046" xlink:href="#maa0ee43b02" y="306.208657"/>
     <use style="fill-opacity:0.4;stroke:#000000;stroke-opacity:0.4;" x="146.897944" xlink:href="#maa0ee43b02" y="332.610384"/>
     <use style="fill-opacity:0.4;stroke:#000000;stroke-opacity:0.4;" x="157.101587" xlink:href="#maa0ee43b02" y="328.583977"/>
     <use style="fill-opacity:0.4;stroke:#000000;stroke-opacity:0.4;" x="138.568827" xlink:href="#maa0ee43b02" y="329.734379"/>
     <use style="fill-opacity:0.4;stroke:#000000;stroke-opacity:0.4;" x="199.491824" xlink:href="#maa0ee43b02" y="310.810266"/>
     <use style="fill-opacity:0.4;stroke:#000000;stroke-opacity:0.4;" x="153.667783" xlink:href="#maa0ee43b02" y="330.884781"/>
     <use style="fill-opacity:0.4;stroke:#000000;stroke-opacity:0.4;" x="191.200265" xlink:href="#maa0ee43b02" y="324.039889"/>
     <use style="fill-opacity:0.4;stroke:#000000;stroke-opacity:0.4;" x="130.560259" xlink:href="#maa0ee43b02" y="318.80556"/>
     <use style="fill-opacity:0.4;stroke:#000000;stroke-opacity:0.4;" x="105.571803" xlink:href="#maa0ee43b02" y="325.938052"/>
     <use style="fill-opacity:0.4;stroke:#000000;stroke-opacity:0.4;" x="131.265525" xlink:href="#maa0ee43b02" y="330.884781"/>
     <use style="fill-opacity:0.4;stroke:#000000;stroke-opacity:0.4;" x="156.499148" xlink:href="#maa0ee43b02" y="331.114861"/>
     <use style="fill-opacity:0.4;stroke:#000000;stroke-opacity:0.4;" x="138.643402" xlink:href="#maa0ee43b02" y="329.274218"/>
     <use style="fill-opacity:0.4;stroke:#000000;stroke-opacity:0.4;" x="90.966806" xlink:href="#maa0ee43b02" y="334.335987"/>
     <use style="fill-opacity:0.4;stroke:#000000;stroke-opacity:0.4;" x="121.990922" xlink:href="#maa0ee43b02" y="334.335987"/>
     <use style="fill-opacity:0.4;stroke:#000000;stroke-opacity:0.4;" x="116.044625" xlink:href="#maa0ee43b02" y="334.335987"/>
     <use style="fill-opacity:0.4;stroke:#000000;stroke-opacity:0.4;" x="120.402806" xlink:href="#maa0ee43b02" y="335.486389"/>
     <use style="fill-opacity:0.4;stroke:#000000;stroke-opacity:0.4;" x="83.883146" xlink:href="#maa0ee43b02" y="331.805102"/>
     <use style="fill-opacity:0.4;stroke:#000000;stroke-opacity:0.4;" x="113.119699" xlink:href="#maa0ee43b02" y="335.486389"/>
     <use style="fill-opacity:0.4;stroke:#000000;stroke-opacity:0.4;" x="119.844064" xlink:href="#maa0ee43b02" y="333.070545"/>
     <use style="fill-opacity:0.4;stroke:#000000;stroke-opacity:0.4;" x="115.713219" xlink:href="#maa0ee43b02" y="335.486389"/>
     <use style="fill-opacity:0.4;stroke:#000000;stroke-opacity:0.4;" x="246.69383" xlink:href="#maa0ee43b02" y="305.633456"/>
     <use style="fill-opacity:0.4;stroke:#000000;stroke-opacity:0.4;" x="243.461404" xlink:href="#maa0ee43b02" y="314.836673"/>
     <use style="fill-opacity:0.4;stroke:#000000;stroke-opacity:0.4;" x="254.388575" xlink:href="#maa0ee43b02" y="306.208657"/>
     <use style="fill-opacity:0.4;stroke:#000000;stroke-opacity:0.4;" x="189.102586" xlink:href="#maa0ee43b02" y="323.464688"/>
     <use style="fill-opacity:0.4;stroke:#000000;stroke-opacity:0.4;" x="121.650657" xlink:href="#maa0ee43b02" y="326.915894"/>
     <use style="fill-opacity:0.4;stroke:#000000;stroke-opacity:0.4;" x="167.105448" xlink:href="#maa0ee43b02" y="317.712678"/>
     <use style="fill-opacity:0.4;stroke:#000000;stroke-opacity:0.4;" x="176.25194" xlink:href="#maa0ee43b02" y="328.008776"/>
     <use style="fill-opacity:0.4;stroke:#000000;stroke-opacity:0.4;" x="154.245171" xlink:href="#maa0ee43b02" y="335.486389"/>
     <use style="fill-opacity:0.4;stroke:#000000;stroke-opacity:0.4;" x="96.558635" xlink:href="#maa0ee43b02" y="333.185585"/>
     <use style="fill-opacity:0.4;stroke:#000000;stroke-opacity:0.4;" x="136.231716" xlink:href="#maa0ee43b02" y="333.185585"/>
     <use style="fill-opacity:0.4;stroke:#000000;stroke-opacity:0.4;" x="133.761393" xlink:href="#maa0ee43b02" y="333.760786"/>
     <use style="fill-opacity:0.4;stroke:#000000;stroke-opacity:0.4;" x="123.984301" xlink:href="#maa0ee43b02" y="335.486389"/>
     <use style="fill-opacity:0.4;stroke:#000000;stroke-opacity:0.4;" x="87.271804" xlink:href="#maa0ee43b02" y="330.884781"/>
     <use style="fill-opacity:0.4;stroke:#000000;stroke-opacity:0.4;" x="136.12789" xlink:href="#maa0ee43b02" y="335.486389"/>
     <use style="fill-opacity:0.4;stroke:#000000;stroke-opacity:0.4;" x="127.806041" xlink:href="#maa0ee43b02" y="332.610384"/>
     <use style="fill-opacity:0.4;stroke:#000000;stroke-opacity:0.4;" x="124.711951" xlink:href="#maa0ee43b02" y="334.335987"/>
     <use style="fill-opacity:0.4;stroke:#000000;stroke-opacity:0.4;" x="308.829346" xlink:href="#maa0ee43b02" y="297.005441"/>
     <use style="fill-opacity:0.4;stroke:#000000;stroke-opacity:0.4;" x="334.227751" xlink:href="#maa0ee43b02" y="308.969622"/>
     <use style="fill-opacity:0.4;stroke:#000000;stroke-opacity:0.4;" x="326.383034" xlink:href="#maa0ee43b02" y="294.474557"/>
     <use style="fill-opacity:0.4;stroke:#000000;stroke-opacity:0.4;" x="245.681698" xlink:href="#maa0ee43b02" y="322.141725"/>
     <use style="fill-opacity:0.4;stroke:#000000;stroke-opacity:0.4;" x="144.828568" xlink:href="#maa0ee43b02" y="328.296376"/>
     <use style="fill-opacity:0.4;stroke:#000000;stroke-opacity:0.4;" x="189.352235" xlink:href="#maa0ee43b02" y="314.836673"/>
     <use style="fill-opacity:0.4;stroke:#000000;stroke-opacity:0.4;" x="192.600754" xlink:href="#maa0ee43b02" y="318.86308"/>
     <use style="fill-opacity:0.4;stroke:#000000;stroke-opacity:0.4;" x="176.41827" xlink:href="#maa0ee43b02" y="330.30958"/>
     <use style="fill-opacity:0.4;stroke:#000000;stroke-opacity:0.4;" x="106.386775" xlink:href="#maa0ee43b02" y="328.238856"/>
     <use style="fill-opacity:0.4;stroke:#000000;stroke-opacity:0.4;" x="135.888925" xlink:href="#maa0ee43b02" y="330.884781"/>
     <use style="fill-opacity:0.4;stroke:#000000;stroke-opacity:0.4;" x="122.935559" xlink:href="#maa0ee43b02" y="334.335987"/>
     <use style="fill-opacity:0.4;stroke:#000000;stroke-opacity:0.4;" x="117.601399" xlink:href="#maa0ee43b02" y="335.486389"/>
     <use style="fill-opacity:0.4;stroke:#000000;stroke-opacity:0.4;" x="94.910807" xlink:href="#maa0ee43b02" y="329.216698"/>
     <use style="fill-opacity:0.4;stroke:#000000;stroke-opacity:0.4;" x="125.091192" xlink:href="#maa0ee43b02" y="332.897984"/>
     <use style="fill-opacity:0.4;stroke:#000000;stroke-opacity:0.4;" x="143.844891" xlink:href="#maa0ee43b02" y="330.884781"/>
     <use style="fill-opacity:0.4;stroke:#000000;stroke-opacity:0.4;" x="117.032852" xlink:href="#maa0ee43b02" y="332.840464"/>
     <use style="fill-opacity:0.4;stroke:#000000;stroke-opacity:0.4;" x="162.003397" xlink:href="#maa0ee43b02" y="327.836215"/>
     <use style="fill-opacity:0.4;stroke:#000000;stroke-opacity:0.4;" x="154.980592" xlink:href="#maa0ee43b02" y="332.265263"/>
     <use style="fill-opacity:0.4;stroke:#000000;stroke-opacity:0.4;" x="157.780966" xlink:href="#maa0ee43b02" y="329.274218"/>
     <use style="fill-opacity:0.4;stroke:#000000;stroke-opacity:0.4;" x="136.207066" xlink:href="#maa0ee43b02" y="333.300625"/>
     <use style="fill-opacity:0.4;stroke:#000000;stroke-opacity:0.4;" x="106.068361" xlink:href="#maa0ee43b02" y="329.389258"/>
     <use style="fill-opacity:0.4;stroke:#000000;stroke-opacity:0.4;" x="119.772908" xlink:href="#maa0ee43b02" y="332.610384"/>
     <use style="fill-opacity:0.4;stroke:#000000;stroke-opacity:0.4;" x="129.667691" xlink:href="#maa0ee43b02" y="330.71222"/>
     <use style="fill-opacity:0.4;stroke:#000000;stroke-opacity:0.4;" x="142.585182" xlink:href="#maa0ee43b02" y="333.128065"/>
     <use style="fill-opacity:0.4;stroke:#000000;stroke-opacity:0.4;" x="84.555442" xlink:href="#maa0ee43b02" y="330.137019"/>
     <use style="fill-opacity:0.4;stroke:#000000;stroke-opacity:0.4;" x="105.551583" xlink:href="#maa0ee43b02" y="335.486389"/>
     <use style="fill-opacity:0.4;stroke:#000000;stroke-opacity:0.4;" x="115.204779" xlink:href="#maa0ee43b02" y="331.977663"/>
     <use style="fill-opacity:0.4;stroke:#000000;stroke-opacity:0.4;" x="103.931628" xlink:href="#maa0ee43b02" y="335.486389"/>
     <use style="fill-opacity:0.4;stroke:#000000;stroke-opacity:0.4;" x="92.047287" xlink:href="#maa0ee43b02" y="322.947007"/>
     <use style="fill-opacity:0.4;stroke:#000000;stroke-opacity:0.4;" x="123.04561" xlink:href="#maa0ee43b02" y="328.008776"/>
     <use style="fill-opacity:0.4;stroke:#000000;stroke-opacity:0.4;" x="133.490212" xlink:href="#maa0ee43b02" y="324.61509"/>
     <use style="fill-opacity:0.4;stroke:#000000;stroke-opacity:0.4;" x="125.924596" xlink:href="#maa0ee43b02" y="331.344942"/>
     <use style="fill-opacity:0.4;stroke:#000000;stroke-opacity:0.4;" x="242.306928" xlink:href="#maa0ee43b02" y="290.908311"/>
     <use style="fill-opacity:0.4;stroke:#000000;stroke-opacity:0.4;" x="274.755475" xlink:href="#maa0ee43b02" y="285.961582"/>
     <use style="fill-opacity:0.4;stroke:#000000;stroke-opacity:0.4;" x="254.860496" xlink:href="#maa0ee43b02" y="314.664112"/>
     <use style="fill-opacity:0.4;stroke:#000000;stroke-opacity:0.4;" x="224.260502" xlink:href="#maa0ee43b02" y="324.212449"/>
     <use style="fill-opacity:0.4;stroke:#000000;stroke-opacity:0.4;" x="141.446632" xlink:href="#maa0ee43b02" y="325.190291"/>
     <use style="fill-opacity:0.4;stroke:#000000;stroke-opacity:0.4;" x="176.044597" xlink:href="#maa0ee43b02" y="319.438281"/>
     <use style="fill-opacity:0.4;stroke:#000000;stroke-opacity:0.4;" x="184.665328" xlink:href="#maa0ee43b02" y="327.836215"/>
     <use style="fill-opacity:0.4;stroke:#000000;stroke-opacity:0.4;" x="166.800579" xlink:href="#maa0ee43b02" y="329.389258"/>
     <use style="fill-opacity:0.4;stroke:#000000;stroke-opacity:0.4;" x="100.223027" xlink:href="#maa0ee43b02" y="329.791899"/>
     <use style="fill-opacity:0.4;stroke:#000000;stroke-opacity:0.4;" x="117.459239" xlink:href="#maa0ee43b02" y="332.035183"/>
     <use style="fill-opacity:0.4;stroke:#000000;stroke-opacity:0.4;" x="117.716396" xlink:href="#maa0ee43b02" y="328.238856"/>
     <use style="fill-opacity:0.4;stroke:#000000;stroke-opacity:0.4;" x="97.981874" xlink:href="#maa0ee43b02" y="332.782944"/>
     <use style="fill-opacity:0.4;stroke:#000000;stroke-opacity:0.4;" x="104.347824" xlink:href="#maa0ee43b02" y="312.133228"/>
     <use style="fill-opacity:0.4;stroke:#000000;stroke-opacity:0.4;" x="148.208861" xlink:href="#maa0ee43b02" y="330.827261"/>
     <use style="fill-opacity:0.4;stroke:#000000;stroke-opacity:0.4;" x="152.12618" xlink:href="#maa0ee43b02" y="321.278924"/>
     <use style="fill-opacity:0.4;stroke:#000000;stroke-opacity:0.4;" x="142.511339" xlink:href="#maa0ee43b02" y="330.48214"/>
     <use style="fill-opacity:0.4;stroke:#000000;stroke-opacity:0.4;" x="299.833521" xlink:href="#maa0ee43b02" y="228.901642"/>
     <use style="fill-opacity:0.4;stroke:#000000;stroke-opacity:0.4;" x="321.48084" xlink:href="#maa0ee43b02" y="188.925172"/>
     <use style="fill-opacity:0.4;stroke:#000000;stroke-opacity:0.4;" x="288.716787" xlink:href="#maa0ee43b02" y="218.778104"/>
     <use style="fill-opacity:0.4;stroke:#000000;stroke-opacity:0.4;" x="245.832614" xlink:href="#maa0ee43b02" y="304.252974"/>
     <use style="fill-opacity:0.4;stroke:#000000;stroke-opacity:0.4;" x="158.922025" xlink:href="#maa0ee43b02" y="312.075708"/>
     <use style="fill-opacity:0.4;stroke:#000000;stroke-opacity:0.4;" x="193.799429" xlink:href="#maa0ee43b02" y="315.987075"/>
     <use style="fill-opacity:0.4;stroke:#000000;stroke-opacity:0.4;" x="197.72568" xlink:href="#maa0ee43b02" y="319.438281"/>
     <use style="fill-opacity:0.4;stroke:#000000;stroke-opacity:0.4;" x="181.506332" xlink:href="#maa0ee43b02" y="326.915894"/>
     <use style="fill-opacity:0.4;stroke:#000000;stroke-opacity:0.4;" x="118.68849" xlink:href="#maa0ee43b02" y="320.013482"/>
     <use style="fill-opacity:0.4;stroke:#000000;stroke-opacity:0.4;" x="145.021037" xlink:href="#maa0ee43b02" y="330.71222"/>
     <use style="fill-opacity:0.4;stroke:#000000;stroke-opacity:0.4;" x="118.715203" xlink:href="#maa0ee43b02" y="327.030934"/>
     <use style="fill-opacity:0.4;stroke:#000000;stroke-opacity:0.4;" x="129.466323" xlink:href="#maa0ee43b02" y="332.840464"/>
     <use style="fill-opacity:0.4;stroke:#000000;stroke-opacity:0.4;" x="119.784471" xlink:href="#maa0ee43b02" y="300.226567"/>
     <use style="fill-opacity:0.4;stroke:#000000;stroke-opacity:0.4;" x="165.507348" xlink:href="#maa0ee43b02" y="330.999821"/>
     <use style="fill-opacity:0.4;stroke:#000000;stroke-opacity:0.4;" x="163.116504" xlink:href="#maa0ee43b02" y="325.132771"/>
     <use style="fill-opacity:0.4;stroke:#000000;stroke-opacity:0.4;" x="151.257053" xlink:href="#maa0ee43b02" y="329.389258"/>
    </g>
   </g>
   <g id="matplotlib.axis_1">
    <g id="xtick_1">
     <g id="line2d_2">
      <defs>
       <path d="M 0 0 
L 0 3.5 
" id="m83c47d15d2" style="stroke:#000000;stroke-width:0.8;"/>
      </defs>
      <g>
       <use style="stroke:#000000;stroke-width:0.8;" x="60.301932" xlink:href="#m83c47d15d2" y="350.36475"/>
      </g>
     </g>
     <g id="text_1">
      <!-- 0 -->
      <defs>
       <path d="M 31.78125 66.40625 
Q 24.171875 66.40625 20.328125 58.90625 
Q 16.5 51.421875 16.5 36.375 
Q 16.5 21.390625 20.328125 13.890625 
Q 24.171875 6.390625 31.78125 6.390625 
Q 39.453125 6.390625 43.28125 13.890625 
Q 47.125 21.390625 47.125 36.375 
Q 47.125 51.421875 43.28125 58.90625 
Q 39.453125 66.40625 31.78125 66.40625 
z
M 31.78125 74.21875 
Q 44.046875 74.21875 50.515625 64.515625 
Q 56.984375 54.828125 56.984375 36.375 
Q 56.984375 17.96875 50.515625 8.265625 
Q 44.046875 -1.421875 31.78125 -1.421875 
Q 19.53125 -1.421875 13.0625 8.265625 
Q 6.59375 17.96875 6.59375 36.375 
Q 6.59375 54.828125 13.0625 64.515625 
Q 19.53125 74.21875 31.78125 74.21875 
z
" id="DejaVuSans-48"/>
      </defs>
      <g transform="translate(56.484432 366.482875)scale(0.12 -0.12)">
       <use xlink:href="#DejaVuSans-48"/>
      </g>
     </g>
    </g>
    <g id="xtick_2">
     <g id="line2d_3">
      <g>
       <use style="stroke:#000000;stroke-width:0.8;" x="119.346016" xlink:href="#m83c47d15d2" y="350.36475"/>
      </g>
     </g>
     <g id="text_2">
      <!-- 10 -->
      <defs>
       <path d="M 12.40625 8.296875 
L 28.515625 8.296875 
L 28.515625 63.921875 
L 10.984375 60.40625 
L 10.984375 69.390625 
L 28.421875 72.90625 
L 38.28125 72.90625 
L 38.28125 8.296875 
L 54.390625 8.296875 
L 54.390625 0 
L 12.40625 0 
z
" id="DejaVuSans-49"/>
      </defs>
      <g transform="translate(111.711016 366.482875)scale(0.12 -0.12)">
       <use xlink:href="#DejaVuSans-49"/>
       <use x="63.623047" xlink:href="#DejaVuSans-48"/>
      </g>
     </g>
    </g>
    <g id="xtick_3">
     <g id="line2d_4">
      <g>
       <use style="stroke:#000000;stroke-width:0.8;" x="178.3901" xlink:href="#m83c47d15d2" y="350.36475"/>
      </g>
     </g>
     <g id="text_3">
      <!-- 20 -->
      <defs>
       <path d="M 19.1875 8.296875 
L 53.609375 8.296875 
L 53.609375 0 
L 7.328125 0 
L 7.328125 8.296875 
Q 12.9375 14.109375 22.625 23.890625 
Q 32.328125 33.6875 34.8125 36.53125 
Q 39.546875 41.84375 41.421875 45.53125 
Q 43.3125 49.21875 43.3125 52.78125 
Q 43.3125 58.59375 39.234375 62.25 
Q 35.15625 65.921875 28.609375 65.921875 
Q 23.96875 65.921875 18.8125 64.3125 
Q 13.671875 62.703125 7.8125 59.421875 
L 7.8125 69.390625 
Q 13.765625 71.78125 18.9375 73 
Q 24.125 74.21875 28.421875 74.21875 
Q 39.75 74.21875 46.484375 68.546875 
Q 53.21875 62.890625 53.21875 53.421875 
Q 53.21875 48.921875 51.53125 44.890625 
Q 49.859375 40.875 45.40625 35.40625 
Q 44.1875 33.984375 37.640625 27.21875 
Q 31.109375 20.453125 19.1875 8.296875 
z
" id="DejaVuSans-50"/>
      </defs>
      <g transform="translate(170.7551 366.482875)scale(0.12 -0.12)">
       <use xlink:href="#DejaVuSans-50"/>
       <use x="63.623047" xlink:href="#DejaVuSans-48"/>
      </g>
     </g>
    </g>
    <g id="xtick_4">
     <g id="line2d_5">
      <g>
       <use style="stroke:#000000;stroke-width:0.8;" x="237.434184" xlink:href="#m83c47d15d2" y="350.36475"/>
      </g>
     </g>
     <g id="text_4">
      <!-- 30 -->
      <defs>
       <path d="M 40.578125 39.3125 
Q 47.65625 37.796875 51.625 33 
Q 55.609375 28.21875 55.609375 21.1875 
Q 55.609375 10.40625 48.1875 4.484375 
Q 40.765625 -1.421875 27.09375 -1.421875 
Q 22.515625 -1.421875 17.65625 -0.515625 
Q 12.796875 0.390625 7.625 2.203125 
L 7.625 11.71875 
Q 11.71875 9.328125 16.59375 8.109375 
Q 21.484375 6.890625 26.8125 6.890625 
Q 36.078125 6.890625 40.9375 10.546875 
Q 45.796875 14.203125 45.796875 21.1875 
Q 45.796875 27.640625 41.28125 31.265625 
Q 36.765625 34.90625 28.71875 34.90625 
L 20.21875 34.90625 
L 20.21875 43.015625 
L 29.109375 43.015625 
Q 36.375 43.015625 40.234375 45.921875 
Q 44.09375 48.828125 44.09375 54.296875 
Q 44.09375 59.90625 40.109375 62.90625 
Q 36.140625 65.921875 28.71875 65.921875 
Q 24.65625 65.921875 20.015625 65.03125 
Q 15.375 64.15625 9.8125 62.3125 
L 9.8125 71.09375 
Q 15.4375 72.65625 20.34375 73.4375 
Q 25.25 74.21875 29.59375 74.21875 
Q 40.828125 74.21875 47.359375 69.109375 
Q 53.90625 64.015625 53.90625 55.328125 
Q 53.90625 49.265625 50.4375 45.09375 
Q 46.96875 40.921875 40.578125 39.3125 
z
" id="DejaVuSans-51"/>
      </defs>
      <g transform="translate(229.799184 366.482875)scale(0.12 -0.12)">
       <use xlink:href="#DejaVuSans-51"/>
       <use x="63.623047" xlink:href="#DejaVuSans-48"/>
      </g>
     </g>
    </g>
    <g id="xtick_5">
     <g id="line2d_6">
      <g>
       <use style="stroke:#000000;stroke-width:0.8;" x="296.478268" xlink:href="#m83c47d15d2" y="350.36475"/>
      </g>
     </g>
     <g id="text_5">
      <!-- 40 -->
      <defs>
       <path d="M 37.796875 64.3125 
L 12.890625 25.390625 
L 37.796875 25.390625 
z
M 35.203125 72.90625 
L 47.609375 72.90625 
L 47.609375 25.390625 
L 58.015625 25.390625 
L 58.015625 17.1875 
L 47.609375 17.1875 
L 47.609375 0 
L 37.796875 0 
L 37.796875 17.1875 
L 4.890625 17.1875 
L 4.890625 26.703125 
z
" id="DejaVuSans-52"/>
      </defs>
      <g transform="translate(288.843268 366.482875)scale(0.12 -0.12)">
       <use xlink:href="#DejaVuSans-52"/>
       <use x="63.623047" xlink:href="#DejaVuSans-48"/>
      </g>
     </g>
    </g>
    <g id="xtick_6">
     <g id="line2d_7">
      <g>
       <use style="stroke:#000000;stroke-width:0.8;" x="355.522352" xlink:href="#m83c47d15d2" y="350.36475"/>
      </g>
     </g>
     <g id="text_6">
      <!-- 50 -->
      <defs>
       <path d="M 10.796875 72.90625 
L 49.515625 72.90625 
L 49.515625 64.59375 
L 19.828125 64.59375 
L 19.828125 46.734375 
Q 21.96875 47.46875 24.109375 47.828125 
Q 26.265625 48.1875 28.421875 48.1875 
Q 40.625 48.1875 47.75 41.5 
Q 54.890625 34.8125 54.890625 23.390625 
Q 54.890625 11.625 47.5625 5.09375 
Q 40.234375 -1.421875 26.90625 -1.421875 
Q 22.3125 -1.421875 17.546875 -0.640625 
Q 12.796875 0.140625 7.71875 1.703125 
L 7.71875 11.625 
Q 12.109375 9.234375 16.796875 8.0625 
Q 21.484375 6.890625 26.703125 6.890625 
Q 35.15625 6.890625 40.078125 11.328125 
Q 45.015625 15.765625 45.015625 23.390625 
Q 45.015625 31 40.078125 35.4375 
Q 35.15625 39.890625 26.703125 39.890625 
Q 22.75 39.890625 18.8125 39.015625 
Q 14.890625 38.140625 10.796875 36.28125 
z
" id="DejaVuSans-53"/>
      </defs>
      <g transform="translate(347.887352 366.482875)scale(0.12 -0.12)">
       <use xlink:href="#DejaVuSans-53"/>
       <use x="63.623047" xlink:href="#DejaVuSans-48"/>
      </g>
     </g>
    </g>
    <g id="text_7">
     <!-- predicted -->
     <defs>
      <path d="M 18.109375 8.203125 
L 18.109375 -20.796875 
L 9.078125 -20.796875 
L 9.078125 54.6875 
L 18.109375 54.6875 
L 18.109375 46.390625 
Q 20.953125 51.265625 25.265625 53.625 
Q 29.59375 56 35.59375 56 
Q 45.5625 56 51.78125 48.09375 
Q 58.015625 40.1875 58.015625 27.296875 
Q 58.015625 14.40625 51.78125 6.484375 
Q 45.5625 -1.421875 35.59375 -1.421875 
Q 29.59375 -1.421875 25.265625 0.953125 
Q 20.953125 3.328125 18.109375 8.203125 
z
M 48.6875 27.296875 
Q 48.6875 37.203125 44.609375 42.84375 
Q 40.53125 48.484375 33.40625 48.484375 
Q 26.265625 48.484375 22.1875 42.84375 
Q 18.109375 37.203125 18.109375 27.296875 
Q 18.109375 17.390625 22.1875 11.75 
Q 26.265625 6.109375 33.40625 6.109375 
Q 40.53125 6.109375 44.609375 11.75 
Q 48.6875 17.390625 48.6875 27.296875 
z
" id="DejaVuSans-112"/>
      <path d="M 41.109375 46.296875 
Q 39.59375 47.171875 37.8125 47.578125 
Q 36.03125 48 33.890625 48 
Q 26.265625 48 22.1875 43.046875 
Q 18.109375 38.09375 18.109375 28.8125 
L 18.109375 0 
L 9.078125 0 
L 9.078125 54.6875 
L 18.109375 54.6875 
L 18.109375 46.1875 
Q 20.953125 51.171875 25.484375 53.578125 
Q 30.03125 56 36.53125 56 
Q 37.453125 56 38.578125 55.875 
Q 39.703125 55.765625 41.0625 55.515625 
z
" id="DejaVuSans-114"/>
      <path d="M 56.203125 29.59375 
L 56.203125 25.203125 
L 14.890625 25.203125 
Q 15.484375 15.921875 20.484375 11.0625 
Q 25.484375 6.203125 34.421875 6.203125 
Q 39.59375 6.203125 44.453125 7.46875 
Q 49.3125 8.734375 54.109375 11.28125 
L 54.109375 2.78125 
Q 49.265625 0.734375 44.1875 -0.34375 
Q 39.109375 -1.421875 33.890625 -1.421875 
Q 20.796875 -1.421875 13.15625 6.1875 
Q 5.515625 13.8125 5.515625 26.8125 
Q 5.515625 40.234375 12.765625 48.109375 
Q 20.015625 56 32.328125 56 
Q 43.359375 56 49.78125 48.890625 
Q 56.203125 41.796875 56.203125 29.59375 
z
M 47.21875 32.234375 
Q 47.125 39.59375 43.09375 43.984375 
Q 39.0625 48.390625 32.421875 48.390625 
Q 24.90625 48.390625 20.390625 44.140625 
Q 15.875 39.890625 15.1875 32.171875 
z
" id="DejaVuSans-101"/>
      <path d="M 45.40625 46.390625 
L 45.40625 75.984375 
L 54.390625 75.984375 
L 54.390625 0 
L 45.40625 0 
L 45.40625 8.203125 
Q 42.578125 3.328125 38.25 0.953125 
Q 33.9375 -1.421875 27.875 -1.421875 
Q 17.96875 -1.421875 11.734375 6.484375 
Q 5.515625 14.40625 5.515625 27.296875 
Q 5.515625 40.1875 11.734375 48.09375 
Q 17.96875 56 27.875 56 
Q 33.9375 56 38.25 53.625 
Q 42.578125 51.265625 45.40625 46.390625 
z
M 14.796875 27.296875 
Q 14.796875 17.390625 18.875 11.75 
Q 22.953125 6.109375 30.078125 6.109375 
Q 37.203125 6.109375 41.296875 11.75 
Q 45.40625 17.390625 45.40625 27.296875 
Q 45.40625 37.203125 41.296875 42.84375 
Q 37.203125 48.484375 30.078125 48.484375 
Q 22.953125 48.484375 18.875 42.84375 
Q 14.796875 37.203125 14.796875 27.296875 
z
" id="DejaVuSans-100"/>
      <path d="M 9.421875 54.6875 
L 18.40625 54.6875 
L 18.40625 0 
L 9.421875 0 
z
M 9.421875 75.984375 
L 18.40625 75.984375 
L 18.40625 64.59375 
L 9.421875 64.59375 
z
" id="DejaVuSans-105"/>
      <path d="M 48.78125 52.59375 
L 48.78125 44.1875 
Q 44.96875 46.296875 41.140625 47.34375 
Q 37.3125 48.390625 33.40625 48.390625 
Q 24.65625 48.390625 19.8125 42.84375 
Q 14.984375 37.3125 14.984375 27.296875 
Q 14.984375 17.28125 19.8125 11.734375 
Q 24.65625 6.203125 33.40625 6.203125 
Q 37.3125 6.203125 41.140625 7.25 
Q 44.96875 8.296875 48.78125 10.40625 
L 48.78125 2.09375 
Q 45.015625 0.34375 40.984375 -0.53125 
Q 36.96875 -1.421875 32.421875 -1.421875 
Q 20.0625 -1.421875 12.78125 6.34375 
Q 5.515625 14.109375 5.515625 27.296875 
Q 5.515625 40.671875 12.859375 48.328125 
Q 20.21875 56 33.015625 56 
Q 37.15625 56 41.109375 55.140625 
Q 45.0625 54.296875 48.78125 52.59375 
z
" id="DejaVuSans-99"/>
      <path d="M 18.3125 70.21875 
L 18.3125 54.6875 
L 36.8125 54.6875 
L 36.8125 47.703125 
L 18.3125 47.703125 
L 18.3125 18.015625 
Q 18.3125 11.328125 20.140625 9.421875 
Q 21.96875 7.515625 27.59375 7.515625 
L 36.8125 7.515625 
L 36.8125 0 
L 27.59375 0 
Q 17.1875 0 13.234375 3.875 
Q 9.28125 7.765625 9.28125 18.015625 
L 9.28125 47.703125 
L 2.6875 47.703125 
L 2.6875 54.6875 
L 9.28125 54.6875 
L 9.28125 70.21875 
z
" id="DejaVuSans-116"/>
     </defs>
     <g transform="translate(183.89 382.096625)scale(0.12 -0.12)">
      <use xlink:href="#DejaVuSans-112"/>
      <use x="63.476562" xlink:href="#DejaVuSans-114"/>
      <use x="104.558594" xlink:href="#DejaVuSans-101"/>
      <use x="166.082031" xlink:href="#DejaVuSans-100"/>
      <use x="229.558594" xlink:href="#DejaVuSans-105"/>
      <use x="257.341797" xlink:href="#DejaVuSans-99"/>
      <use x="312.322266" xlink:href="#DejaVuSans-116"/>
      <use x="351.53125" xlink:href="#DejaVuSans-101"/>
      <use x="413.054688" xlink:href="#DejaVuSans-100"/>
     </g>
    </g>
   </g>
   <g id="matplotlib.axis_2">
    <g id="ytick_1">
     <g id="line2d_8">
      <defs>
       <path d="M 0 0 
L -3.5 0 
" id="m75f4c7fe9e" style="stroke:#000000;stroke-width:0.8;"/>
      </defs>
      <g>
       <use style="stroke:#000000;stroke-width:0.8;" x="45.08375" xlink:href="#m75f4c7fe9e" y="335.486389"/>
      </g>
     </g>
     <g id="text_8">
      <!-- 0 -->
      <g transform="translate(30.44875 340.045451)scale(0.12 -0.12)">
       <use xlink:href="#DejaVuSans-48"/>
      </g>
     </g>
    </g>
    <g id="ytick_2">
     <g id="line2d_9">
      <g>
       <use style="stroke:#000000;stroke-width:0.8;" x="45.08375" xlink:href="#m75f4c7fe9e" y="277.966288"/>
      </g>
     </g>
     <g id="text_9">
      <!-- 10 -->
      <g transform="translate(22.81375 282.52535)scale(0.12 -0.12)">
       <use xlink:href="#DejaVuSans-49"/>
       <use x="63.623047" xlink:href="#DejaVuSans-48"/>
      </g>
     </g>
    </g>
    <g id="ytick_3">
     <g id="line2d_10">
      <g>
       <use style="stroke:#000000;stroke-width:0.8;" x="45.08375" xlink:href="#m75f4c7fe9e" y="220.446187"/>
      </g>
     </g>
     <g id="text_10">
      <!-- 20 -->
      <g transform="translate(22.81375 225.005249)scale(0.12 -0.12)">
       <use xlink:href="#DejaVuSans-50"/>
       <use x="63.623047" xlink:href="#DejaVuSans-48"/>
      </g>
     </g>
    </g>
    <g id="ytick_4">
     <g id="line2d_11">
      <g>
       <use style="stroke:#000000;stroke-width:0.8;" x="45.08375" xlink:href="#m75f4c7fe9e" y="162.926086"/>
      </g>
     </g>
     <g id="text_11">
      <!-- 30 -->
      <g transform="translate(22.81375 167.485149)scale(0.12 -0.12)">
       <use xlink:href="#DejaVuSans-51"/>
       <use x="63.623047" xlink:href="#DejaVuSans-48"/>
      </g>
     </g>
    </g>
    <g id="ytick_5">
     <g id="line2d_12">
      <g>
       <use style="stroke:#000000;stroke-width:0.8;" x="45.08375" xlink:href="#m75f4c7fe9e" y="105.405985"/>
      </g>
     </g>
     <g id="text_12">
      <!-- 40 -->
      <g transform="translate(22.81375 109.965048)scale(0.12 -0.12)">
       <use xlink:href="#DejaVuSans-52"/>
       <use x="63.623047" xlink:href="#DejaVuSans-48"/>
      </g>
     </g>
    </g>
    <g id="ytick_6">
     <g id="line2d_13">
      <g>
       <use style="stroke:#000000;stroke-width:0.8;" x="45.08375" xlink:href="#m75f4c7fe9e" y="47.885884"/>
      </g>
     </g>
     <g id="text_13">
      <!-- 50 -->
      <g transform="translate(22.81375 52.444947)scale(0.12 -0.12)">
       <use xlink:href="#DejaVuSans-53"/>
       <use x="63.623047" xlink:href="#DejaVuSans-48"/>
      </g>
     </g>
    </g>
    <g id="text_14">
     <!-- observed -->
     <defs>
      <path d="M 30.609375 48.390625 
Q 23.390625 48.390625 19.1875 42.75 
Q 14.984375 37.109375 14.984375 27.296875 
Q 14.984375 17.484375 19.15625 11.84375 
Q 23.34375 6.203125 30.609375 6.203125 
Q 37.796875 6.203125 41.984375 11.859375 
Q 46.1875 17.53125 46.1875 27.296875 
Q 46.1875 37.015625 41.984375 42.703125 
Q 37.796875 48.390625 30.609375 48.390625 
z
M 30.609375 56 
Q 42.328125 56 49.015625 48.375 
Q 55.71875 40.765625 55.71875 27.296875 
Q 55.71875 13.875 49.015625 6.21875 
Q 42.328125 -1.421875 30.609375 -1.421875 
Q 18.84375 -1.421875 12.171875 6.21875 
Q 5.515625 13.875 5.515625 27.296875 
Q 5.515625 40.765625 12.171875 48.375 
Q 18.84375 56 30.609375 56 
z
" id="DejaVuSans-111"/>
      <path d="M 48.6875 27.296875 
Q 48.6875 37.203125 44.609375 42.84375 
Q 40.53125 48.484375 33.40625 48.484375 
Q 26.265625 48.484375 22.1875 42.84375 
Q 18.109375 37.203125 18.109375 27.296875 
Q 18.109375 17.390625 22.1875 11.75 
Q 26.265625 6.109375 33.40625 6.109375 
Q 40.53125 6.109375 44.609375 11.75 
Q 48.6875 17.390625 48.6875 27.296875 
z
M 18.109375 46.390625 
Q 20.953125 51.265625 25.265625 53.625 
Q 29.59375 56 35.59375 56 
Q 45.5625 56 51.78125 48.09375 
Q 58.015625 40.1875 58.015625 27.296875 
Q 58.015625 14.40625 51.78125 6.484375 
Q 45.5625 -1.421875 35.59375 -1.421875 
Q 29.59375 -1.421875 25.265625 0.953125 
Q 20.953125 3.328125 18.109375 8.203125 
L 18.109375 0 
L 9.078125 0 
L 9.078125 75.984375 
L 18.109375 75.984375 
z
" id="DejaVuSans-98"/>
      <path d="M 44.28125 53.078125 
L 44.28125 44.578125 
Q 40.484375 46.53125 36.375 47.5 
Q 32.28125 48.484375 27.875 48.484375 
Q 21.1875 48.484375 17.84375 46.4375 
Q 14.5 44.390625 14.5 40.28125 
Q 14.5 37.15625 16.890625 35.375 
Q 19.28125 33.59375 26.515625 31.984375 
L 29.59375 31.296875 
Q 39.15625 29.25 43.1875 25.515625 
Q 47.21875 21.78125 47.21875 15.09375 
Q 47.21875 7.46875 41.1875 3.015625 
Q 35.15625 -1.421875 24.609375 -1.421875 
Q 20.21875 -1.421875 15.453125 -0.5625 
Q 10.6875 0.296875 5.421875 2 
L 5.421875 11.28125 
Q 10.40625 8.6875 15.234375 7.390625 
Q 20.0625 6.109375 24.8125 6.109375 
Q 31.15625 6.109375 34.5625 8.28125 
Q 37.984375 10.453125 37.984375 14.40625 
Q 37.984375 18.0625 35.515625 20.015625 
Q 33.0625 21.96875 24.703125 23.78125 
L 21.578125 24.515625 
Q 13.234375 26.265625 9.515625 29.90625 
Q 5.8125 33.546875 5.8125 39.890625 
Q 5.8125 47.609375 11.28125 51.796875 
Q 16.75 56 26.8125 56 
Q 31.78125 56 36.171875 55.265625 
Q 40.578125 54.546875 44.28125 53.078125 
z
" id="DejaVuSans-115"/>
      <path d="M 2.984375 54.6875 
L 12.5 54.6875 
L 29.59375 8.796875 
L 46.6875 54.6875 
L 56.203125 54.6875 
L 35.6875 0 
L 23.484375 0 
z
" id="DejaVuSans-118"/>
     </defs>
     <g transform="translate(16.318125 215.101312)rotate(-90)scale(0.12 -0.12)">
      <use xlink:href="#DejaVuSans-111"/>
      <use x="61.181641" xlink:href="#DejaVuSans-98"/>
      <use x="124.658203" xlink:href="#DejaVuSans-115"/>
      <use x="176.757812" xlink:href="#DejaVuSans-101"/>
      <use x="238.28125" xlink:href="#DejaVuSans-114"/>
      <use x="279.394531" xlink:href="#DejaVuSans-118"/>
      <use x="338.574219" xlink:href="#DejaVuSans-101"/>
      <use x="400.097656" xlink:href="#DejaVuSans-100"/>
     </g>
    </g>
   </g>
   <g id="patch_3">
    <path d="M 45.08375 350.36475 
L 45.08375 24.20475 
" style="fill:none;stroke:#000000;stroke-linecap:square;stroke-linejoin:miter;stroke-width:0.8;"/>
   </g>
   <g id="patch_4">
    <path d="M 379.88375 350.36475 
L 379.88375 24.20475 
" style="fill:none;stroke:#000000;stroke-linecap:square;stroke-linejoin:miter;stroke-width:0.8;"/>
   </g>
   <g id="patch_5">
    <path d="M 45.08375 350.36475 
L 379.88375 350.36475 
" style="fill:none;stroke:#000000;stroke-linecap:square;stroke-linejoin:miter;stroke-width:0.8;"/>
   </g>
   <g id="patch_6">
    <path d="M 45.08375 24.20475 
L 379.88375 24.20475 
" style="fill:none;stroke:#000000;stroke-linecap:square;stroke-linejoin:miter;stroke-width:0.8;"/>
   </g>
   <g id="text_15">
    <!-- RF|Cy-JohnPhos|DFT(RMSE = 16.73, R^2 = -15.98) -->
    <defs>
     <path d="M 44.390625 34.1875 
Q 47.5625 33.109375 50.5625 29.59375 
Q 53.5625 26.078125 56.59375 19.921875 
L 66.609375 0 
L 56 0 
L 46.6875 18.703125 
Q 43.0625 26.03125 39.671875 28.421875 
Q 36.28125 30.8125 30.421875 30.8125 
L 19.671875 30.8125 
L 19.671875 0 
L 9.8125 0 
L 9.8125 72.90625 
L 32.078125 72.90625 
Q 44.578125 72.90625 50.734375 67.671875 
Q 56.890625 62.453125 56.890625 51.90625 
Q 56.890625 45.015625 53.6875 40.46875 
Q 50.484375 35.9375 44.390625 34.1875 
z
M 19.671875 64.796875 
L 19.671875 38.921875 
L 32.078125 38.921875 
Q 39.203125 38.921875 42.84375 42.21875 
Q 46.484375 45.515625 46.484375 51.90625 
Q 46.484375 58.296875 42.84375 61.546875 
Q 39.203125 64.796875 32.078125 64.796875 
z
" id="DejaVuSans-82"/>
     <path d="M 9.8125 72.90625 
L 51.703125 72.90625 
L 51.703125 64.59375 
L 19.671875 64.59375 
L 19.671875 43.109375 
L 48.578125 43.109375 
L 48.578125 34.8125 
L 19.671875 34.8125 
L 19.671875 0 
L 9.8125 0 
z
" id="DejaVuSans-70"/>
     <path d="M 21 76.421875 
L 21 -23.578125 
L 12.703125 -23.578125 
L 12.703125 76.421875 
z
" id="DejaVuSans-124"/>
     <path d="M 64.40625 67.28125 
L 64.40625 56.890625 
Q 59.421875 61.53125 53.78125 63.8125 
Q 48.140625 66.109375 41.796875 66.109375 
Q 29.296875 66.109375 22.65625 58.46875 
Q 16.015625 50.828125 16.015625 36.375 
Q 16.015625 21.96875 22.65625 14.328125 
Q 29.296875 6.6875 41.796875 6.6875 
Q 48.140625 6.6875 53.78125 8.984375 
Q 59.421875 11.28125 64.40625 15.921875 
L 64.40625 5.609375 
Q 59.234375 2.09375 53.4375 0.328125 
Q 47.65625 -1.421875 41.21875 -1.421875 
Q 24.65625 -1.421875 15.125 8.703125 
Q 5.609375 18.84375 5.609375 36.375 
Q 5.609375 53.953125 15.125 64.078125 
Q 24.65625 74.21875 41.21875 74.21875 
Q 47.75 74.21875 53.53125 72.484375 
Q 59.328125 70.75 64.40625 67.28125 
z
" id="DejaVuSans-67"/>
     <path d="M 32.171875 -5.078125 
Q 28.375 -14.84375 24.75 -17.8125 
Q 21.140625 -20.796875 15.09375 -20.796875 
L 7.90625 -20.796875 
L 7.90625 -13.28125 
L 13.1875 -13.28125 
Q 16.890625 -13.28125 18.9375 -11.515625 
Q 21 -9.765625 23.484375 -3.21875 
L 25.09375 0.875 
L 2.984375 54.6875 
L 12.5 54.6875 
L 29.59375 11.921875 
L 46.6875 54.6875 
L 56.203125 54.6875 
z
" id="DejaVuSans-121"/>
     <path d="M 4.890625 31.390625 
L 31.203125 31.390625 
L 31.203125 23.390625 
L 4.890625 23.390625 
z
" id="DejaVuSans-45"/>
     <path d="M 9.8125 72.90625 
L 19.671875 72.90625 
L 19.671875 5.078125 
Q 19.671875 -8.109375 14.671875 -14.0625 
Q 9.671875 -20.015625 -1.421875 -20.015625 
L -5.171875 -20.015625 
L -5.171875 -11.71875 
L -2.09375 -11.71875 
Q 4.4375 -11.71875 7.125 -8.046875 
Q 9.8125 -4.390625 9.8125 5.078125 
z
" id="DejaVuSans-74"/>
     <path d="M 54.890625 33.015625 
L 54.890625 0 
L 45.90625 0 
L 45.90625 32.71875 
Q 45.90625 40.484375 42.875 44.328125 
Q 39.84375 48.1875 33.796875 48.1875 
Q 26.515625 48.1875 22.3125 43.546875 
Q 18.109375 38.921875 18.109375 30.90625 
L 18.109375 0 
L 9.078125 0 
L 9.078125 75.984375 
L 18.109375 75.984375 
L 18.109375 46.1875 
Q 21.34375 51.125 25.703125 53.5625 
Q 30.078125 56 35.796875 56 
Q 45.21875 56 50.046875 50.171875 
Q 54.890625 44.34375 54.890625 33.015625 
z
" id="DejaVuSans-104"/>
     <path d="M 54.890625 33.015625 
L 54.890625 0 
L 45.90625 0 
L 45.90625 32.71875 
Q 45.90625 40.484375 42.875 44.328125 
Q 39.84375 48.1875 33.796875 48.1875 
Q 26.515625 48.1875 22.3125 43.546875 
Q 18.109375 38.921875 18.109375 30.90625 
L 18.109375 0 
L 9.078125 0 
L 9.078125 54.6875 
L 18.109375 54.6875 
L 18.109375 46.1875 
Q 21.34375 51.125 25.703125 53.5625 
Q 30.078125 56 35.796875 56 
Q 45.21875 56 50.046875 50.171875 
Q 54.890625 44.34375 54.890625 33.015625 
z
" id="DejaVuSans-110"/>
     <path d="M 19.671875 64.796875 
L 19.671875 37.40625 
L 32.078125 37.40625 
Q 38.96875 37.40625 42.71875 40.96875 
Q 46.484375 44.53125 46.484375 51.125 
Q 46.484375 57.671875 42.71875 61.234375 
Q 38.96875 64.796875 32.078125 64.796875 
z
M 9.8125 72.90625 
L 32.078125 72.90625 
Q 44.34375 72.90625 50.609375 67.359375 
Q 56.890625 61.8125 56.890625 51.125 
Q 56.890625 40.328125 50.609375 34.8125 
Q 44.34375 29.296875 32.078125 29.296875 
L 19.671875 29.296875 
L 19.671875 0 
L 9.8125 0 
z
" id="DejaVuSans-80"/>
     <path d="M 19.671875 64.796875 
L 19.671875 8.109375 
L 31.59375 8.109375 
Q 46.6875 8.109375 53.6875 14.9375 
Q 60.6875 21.78125 60.6875 36.53125 
Q 60.6875 51.171875 53.6875 57.984375 
Q 46.6875 64.796875 31.59375 64.796875 
z
M 9.8125 72.90625 
L 30.078125 72.90625 
Q 51.265625 72.90625 61.171875 64.09375 
Q 71.09375 55.28125 71.09375 36.53125 
Q 71.09375 17.671875 61.125 8.828125 
Q 51.171875 0 30.078125 0 
L 9.8125 0 
z
" id="DejaVuSans-68"/>
     <path d="M -0.296875 72.90625 
L 61.375 72.90625 
L 61.375 64.59375 
L 35.5 64.59375 
L 35.5 0 
L 25.59375 0 
L 25.59375 64.59375 
L -0.296875 64.59375 
z
" id="DejaVuSans-84"/>
     <path d="M 31 75.875 
Q 24.46875 64.65625 21.28125 53.65625 
Q 18.109375 42.671875 18.109375 31.390625 
Q 18.109375 20.125 21.3125 9.0625 
Q 24.515625 -2 31 -13.1875 
L 23.1875 -13.1875 
Q 15.875 -1.703125 12.234375 9.375 
Q 8.59375 20.453125 8.59375 31.390625 
Q 8.59375 42.28125 12.203125 53.3125 
Q 15.828125 64.359375 23.1875 75.875 
z
" id="DejaVuSans-40"/>
     <path d="M 9.8125 72.90625 
L 24.515625 72.90625 
L 43.109375 23.296875 
L 61.8125 72.90625 
L 76.515625 72.90625 
L 76.515625 0 
L 66.890625 0 
L 66.890625 64.015625 
L 48.09375 14.015625 
L 38.1875 14.015625 
L 19.390625 64.015625 
L 19.390625 0 
L 9.8125 0 
z
" id="DejaVuSans-77"/>
     <path d="M 53.515625 70.515625 
L 53.515625 60.890625 
Q 47.90625 63.578125 42.921875 64.890625 
Q 37.9375 66.21875 33.296875 66.21875 
Q 25.25 66.21875 20.875 63.09375 
Q 16.5 59.96875 16.5 54.203125 
Q 16.5 49.359375 19.40625 46.890625 
Q 22.3125 44.4375 30.421875 42.921875 
L 36.375 41.703125 
Q 47.40625 39.59375 52.65625 34.296875 
Q 57.90625 29 57.90625 20.125 
Q 57.90625 9.515625 50.796875 4.046875 
Q 43.703125 -1.421875 29.984375 -1.421875 
Q 24.8125 -1.421875 18.96875 -0.25 
Q 13.140625 0.921875 6.890625 3.21875 
L 6.890625 13.375 
Q 12.890625 10.015625 18.65625 8.296875 
Q 24.421875 6.59375 29.984375 6.59375 
Q 38.421875 6.59375 43.015625 9.90625 
Q 47.609375 13.234375 47.609375 19.390625 
Q 47.609375 24.75 44.3125 27.78125 
Q 41.015625 30.8125 33.5 32.328125 
L 27.484375 33.5 
Q 16.453125 35.6875 11.515625 40.375 
Q 6.59375 45.0625 6.59375 53.421875 
Q 6.59375 63.09375 13.40625 68.65625 
Q 20.21875 74.21875 32.171875 74.21875 
Q 37.3125 74.21875 42.625 73.28125 
Q 47.953125 72.359375 53.515625 70.515625 
z
" id="DejaVuSans-83"/>
     <path d="M 9.8125 72.90625 
L 55.90625 72.90625 
L 55.90625 64.59375 
L 19.671875 64.59375 
L 19.671875 43.015625 
L 54.390625 43.015625 
L 54.390625 34.71875 
L 19.671875 34.71875 
L 19.671875 8.296875 
L 56.78125 8.296875 
L 56.78125 0 
L 9.8125 0 
z
" id="DejaVuSans-69"/>
     <path id="DejaVuSans-32"/>
     <path d="M 10.59375 45.40625 
L 73.1875 45.40625 
L 73.1875 37.203125 
L 10.59375 37.203125 
z
M 10.59375 25.484375 
L 73.1875 25.484375 
L 73.1875 17.1875 
L 10.59375 17.1875 
z
" id="DejaVuSans-61"/>
     <path d="M 33.015625 40.375 
Q 26.375 40.375 22.484375 35.828125 
Q 18.609375 31.296875 18.609375 23.390625 
Q 18.609375 15.53125 22.484375 10.953125 
Q 26.375 6.390625 33.015625 6.390625 
Q 39.65625 6.390625 43.53125 10.953125 
Q 47.40625 15.53125 47.40625 23.390625 
Q 47.40625 31.296875 43.53125 35.828125 
Q 39.65625 40.375 33.015625 40.375 
z
M 52.59375 71.296875 
L 52.59375 62.3125 
Q 48.875 64.0625 45.09375 64.984375 
Q 41.3125 65.921875 37.59375 65.921875 
Q 27.828125 65.921875 22.671875 59.328125 
Q 17.53125 52.734375 16.796875 39.40625 
Q 19.671875 43.65625 24.015625 45.921875 
Q 28.375 48.1875 33.59375 48.1875 
Q 44.578125 48.1875 50.953125 41.515625 
Q 57.328125 34.859375 57.328125 23.390625 
Q 57.328125 12.15625 50.6875 5.359375 
Q 44.046875 -1.421875 33.015625 -1.421875 
Q 20.359375 -1.421875 13.671875 8.265625 
Q 6.984375 17.96875 6.984375 36.375 
Q 6.984375 53.65625 15.1875 63.9375 
Q 23.390625 74.21875 37.203125 74.21875 
Q 40.921875 74.21875 44.703125 73.484375 
Q 48.484375 72.75 52.59375 71.296875 
z
" id="DejaVuSans-54"/>
     <path d="M 10.6875 12.40625 
L 21 12.40625 
L 21 0 
L 10.6875 0 
z
" id="DejaVuSans-46"/>
     <path d="M 8.203125 72.90625 
L 55.078125 72.90625 
L 55.078125 68.703125 
L 28.609375 0 
L 18.3125 0 
L 43.21875 64.59375 
L 8.203125 64.59375 
z
" id="DejaVuSans-55"/>
     <path d="M 11.71875 12.40625 
L 22.015625 12.40625 
L 22.015625 4 
L 14.015625 -11.625 
L 7.71875 -11.625 
L 11.71875 4 
z
" id="DejaVuSans-44"/>
     <path d="M 46.6875 72.90625 
L 73.1875 45.703125 
L 63.375 45.703125 
L 41.890625 64.984375 
L 20.40625 45.703125 
L 10.59375 45.703125 
L 37.109375 72.90625 
z
" id="DejaVuSans-94"/>
     <path d="M 10.984375 1.515625 
L 10.984375 10.5 
Q 14.703125 8.734375 18.5 7.8125 
Q 22.3125 6.890625 25.984375 6.890625 
Q 35.75 6.890625 40.890625 13.453125 
Q 46.046875 20.015625 46.78125 33.40625 
Q 43.953125 29.203125 39.59375 26.953125 
Q 35.25 24.703125 29.984375 24.703125 
Q 19.046875 24.703125 12.671875 31.3125 
Q 6.296875 37.9375 6.296875 49.421875 
Q 6.296875 60.640625 12.9375 67.421875 
Q 19.578125 74.21875 30.609375 74.21875 
Q 43.265625 74.21875 49.921875 64.515625 
Q 56.59375 54.828125 56.59375 36.375 
Q 56.59375 19.140625 48.40625 8.859375 
Q 40.234375 -1.421875 26.421875 -1.421875 
Q 22.703125 -1.421875 18.890625 -0.6875 
Q 15.09375 0.046875 10.984375 1.515625 
z
M 30.609375 32.421875 
Q 37.25 32.421875 41.125 36.953125 
Q 45.015625 41.5 45.015625 49.421875 
Q 45.015625 57.28125 41.125 61.84375 
Q 37.25 66.40625 30.609375 66.40625 
Q 23.96875 66.40625 20.09375 61.84375 
Q 16.21875 57.28125 16.21875 49.421875 
Q 16.21875 41.5 20.09375 36.953125 
Q 23.96875 32.421875 30.609375 32.421875 
z
" id="DejaVuSans-57"/>
     <path d="M 31.78125 34.625 
Q 24.75 34.625 20.71875 30.859375 
Q 16.703125 27.09375 16.703125 20.515625 
Q 16.703125 13.921875 20.71875 10.15625 
Q 24.75 6.390625 31.78125 6.390625 
Q 38.8125 6.390625 42.859375 10.171875 
Q 46.921875 13.96875 46.921875 20.515625 
Q 46.921875 27.09375 42.890625 30.859375 
Q 38.875 34.625 31.78125 34.625 
z
M 21.921875 38.8125 
Q 15.578125 40.375 12.03125 44.71875 
Q 8.5 49.078125 8.5 55.328125 
Q 8.5 64.0625 14.71875 69.140625 
Q 20.953125 74.21875 31.78125 74.21875 
Q 42.671875 74.21875 48.875 69.140625 
Q 55.078125 64.0625 55.078125 55.328125 
Q 55.078125 49.078125 51.53125 44.71875 
Q 48 40.375 41.703125 38.8125 
Q 48.828125 37.15625 52.796875 32.3125 
Q 56.78125 27.484375 56.78125 20.515625 
Q 56.78125 9.90625 50.3125 4.234375 
Q 43.84375 -1.421875 31.78125 -1.421875 
Q 19.734375 -1.421875 13.25 4.234375 
Q 6.78125 9.90625 6.78125 20.515625 
Q 6.78125 27.484375 10.78125 32.3125 
Q 14.796875 37.15625 21.921875 38.8125 
z
M 18.3125 54.390625 
Q 18.3125 48.734375 21.84375 45.5625 
Q 25.390625 42.390625 31.78125 42.390625 
Q 38.140625 42.390625 41.71875 45.5625 
Q 45.3125 48.734375 45.3125 54.390625 
Q 45.3125 60.0625 41.71875 63.234375 
Q 38.140625 66.40625 31.78125 66.40625 
Q 25.390625 66.40625 21.84375 63.234375 
Q 18.3125 60.0625 18.3125 54.390625 
z
" id="DejaVuSans-56"/>
     <path d="M 8.015625 75.875 
L 15.828125 75.875 
Q 23.140625 64.359375 26.78125 53.3125 
Q 30.421875 42.28125 30.421875 31.390625 
Q 30.421875 20.453125 26.78125 9.375 
Q 23.140625 -1.703125 15.828125 -13.1875 
L 8.015625 -13.1875 
Q 14.5 -2 17.703125 9.0625 
Q 20.90625 20.125 20.90625 31.390625 
Q 20.90625 42.671875 17.703125 53.65625 
Q 14.5 64.65625 8.015625 75.875 
z
" id="DejaVuSans-41"/>
    </defs>
    <g transform="translate(28.610375 18.20475)scale(0.144 -0.144)">
     <use xlink:href="#DejaVuSans-82"/>
     <use x="69.482422" xlink:href="#DejaVuSans-70"/>
     <use x="127.001953" xlink:href="#DejaVuSans-124"/>
     <use x="160.693359" xlink:href="#DejaVuSans-67"/>
     <use x="230.517578" xlink:href="#DejaVuSans-121"/>
     <use x="289.681641" xlink:href="#DejaVuSans-45"/>
     <use x="325.84375" xlink:href="#DejaVuSans-74"/>
     <use x="355.335938" xlink:href="#DejaVuSans-111"/>
     <use x="416.517578" xlink:href="#DejaVuSans-104"/>
     <use x="479.896484" xlink:href="#DejaVuSans-110"/>
     <use x="543.275391" xlink:href="#DejaVuSans-80"/>
     <use x="603.578125" xlink:href="#DejaVuSans-104"/>
     <use x="666.957031" xlink:href="#DejaVuSans-111"/>
     <use x="728.138672" xlink:href="#DejaVuSans-115"/>
     <use x="780.238281" xlink:href="#DejaVuSans-124"/>
     <use x="813.929688" xlink:href="#DejaVuSans-68"/>
     <use x="890.931641" xlink:href="#DejaVuSans-70"/>
     <use x="948.435547" xlink:href="#DejaVuSans-84"/>
     <use x="1009.519531" xlink:href="#DejaVuSans-40"/>
     <use x="1048.533203" xlink:href="#DejaVuSans-82"/>
     <use x="1118.015625" xlink:href="#DejaVuSans-77"/>
     <use x="1204.294922" xlink:href="#DejaVuSans-83"/>
     <use x="1267.771484" xlink:href="#DejaVuSans-69"/>
     <use x="1330.955078" xlink:href="#DejaVuSans-32"/>
     <use x="1362.742188" xlink:href="#DejaVuSans-61"/>
     <use x="1446.53125" xlink:href="#DejaVuSans-32"/>
     <use x="1478.318359" xlink:href="#DejaVuSans-49"/>
     <use x="1541.941406" xlink:href="#DejaVuSans-54"/>
     <use x="1605.564453" xlink:href="#DejaVuSans-46"/>
     <use x="1637.351562" xlink:href="#DejaVuSans-55"/>
     <use x="1700.974609" xlink:href="#DejaVuSans-51"/>
     <use x="1764.597656" xlink:href="#DejaVuSans-44"/>
     <use x="1796.384766" xlink:href="#DejaVuSans-32"/>
     <use x="1828.171875" xlink:href="#DejaVuSans-82"/>
     <use x="1897.654297" xlink:href="#DejaVuSans-94"/>
     <use x="1981.443359" xlink:href="#DejaVuSans-50"/>
     <use x="2045.066406" xlink:href="#DejaVuSans-32"/>
     <use x="2076.853516" xlink:href="#DejaVuSans-61"/>
     <use x="2160.642578" xlink:href="#DejaVuSans-32"/>
     <use x="2192.429688" xlink:href="#DejaVuSans-45"/>
     <use x="2228.513672" xlink:href="#DejaVuSans-49"/>
     <use x="2292.136719" xlink:href="#DejaVuSans-53"/>
     <use x="2355.759766" xlink:href="#DejaVuSans-46"/>
     <use x="2387.546875" xlink:href="#DejaVuSans-57"/>
     <use x="2451.169922" xlink:href="#DejaVuSans-56"/>
     <use x="2514.792969" xlink:href="#DejaVuSans-41"/>
    </g>
   </g>
  </g>
 </g>
 <defs>
  <clipPath id="p18fa5be705">
   <rect height="326.16" width="334.8" x="45.08375" y="24.20475"/>
  </clipPath>
 </defs>
</svg>
