<?xml version="1.0" encoding="utf-8" standalone="no"?>
<!DOCTYPE svg PUBLIC "-//W3C//DTD SVG 1.1//EN"
  "http://www.w3.org/Graphics/SVG/1.1/DTD/svg11.dtd">
<!-- Created with matplotlib (https://matplotlib.org/) -->
<svg height="391.8755pt" version="1.1" viewBox="0 0 387.08375 391.8755" width="387.08375pt" xmlns="http://www.w3.org/2000/svg" xmlns:xlink="http://www.w3.org/1999/xlink">
 <defs>
  <style type="text/css">
*{stroke-linecap:butt;stroke-linejoin:round;}
  </style>
 </defs>
 <g id="figure_1">
  <g id="patch_1">
   <path d="M 0 391.8755 
L 387.08375 391.8755 
L 387.08375 0 
L 0 0 
z
" style="fill:#ffffff;"/>
  </g>
  <g id="axes_1">
   <g id="patch_2">
    <path d="M 45.08375 350.448 
L 379.88375 350.448 
L 379.88375 24.288 
L 45.08375 24.288 
z
" style="fill:#ffffff;"/>
   </g>
   <g id="line2d_1">
    <path clip-path="url(#p5dcbdcdb0f)" d="M 60.301932 335.581285 
L 364.665568 39.154715 
" style="fill:none;stroke:#000000;stroke-linecap:square;stroke-opacity:0.75;stroke-width:1.5;"/>
   </g>
   <g id="PathCollection_1">
    <defs>
     <path d="M 0 3 
C 0.795609 3 1.55874 2.683901 2.12132 2.12132 
C 2.683901 1.55874 3 0.795609 3 0 
C 3 -0.795609 2.683901 -1.55874 2.12132 -2.12132 
C 1.55874 -2.683901 0.795609 -3 0 -3 
C -0.795609 -3 -1.55874 -2.683901 -2.12132 -2.12132 
C -2.683901 -1.55874 -3 -0.795609 -3 0 
C -3 0.795609 -2.683901 1.55874 -2.12132 2.12132 
C -1.55874 2.683901 -0.795609 3 0 3 
z
" id="mbf9496bbb8" style="stroke:#000000;stroke-opacity:0.4;"/>
    </defs>
    <g clip-path="url(#p5dcbdcdb0f)">
     <use style="fill-opacity:0.4;stroke:#000000;stroke-opacity:0.4;" x="133.29909" xlink:href="#mbf9496bbb8" y="203.696582"/>
     <use style="fill-opacity:0.4;stroke:#000000;stroke-opacity:0.4;" x="140.333263" xlink:href="#mbf9496bbb8" y="135.466435"/>
     <use style="fill-opacity:0.4;stroke:#000000;stroke-opacity:0.4;" x="137.224774" xlink:href="#mbf9496bbb8" y="109.807235"/>
     <use style="fill-opacity:0.4;stroke:#000000;stroke-opacity:0.4;" x="114.592611" xlink:href="#mbf9496bbb8" y="204.055452"/>
     <use style="fill-opacity:0.4;stroke:#000000;stroke-opacity:0.4;" x="71.012046" xlink:href="#mbf9496bbb8" y="309.877225"/>
     <use style="fill-opacity:0.4;stroke:#000000;stroke-opacity:0.4;" x="75.489326" xlink:href="#mbf9496bbb8" y="317.682646"/>
     <use style="fill-opacity:0.4;stroke:#000000;stroke-opacity:0.4;" x="76.179672" xlink:href="#mbf9496bbb8" y="310.101519"/>
     <use style="fill-opacity:0.4;stroke:#000000;stroke-opacity:0.4;" x="73.811176" xlink:href="#mbf9496bbb8" y="320.733041"/>
     <use style="fill-opacity:0.4;stroke:#000000;stroke-opacity:0.4;" x="65.382643" xlink:href="#mbf9496bbb8" y="324.815186"/>
     <use style="fill-opacity:0.4;stroke:#000000;stroke-opacity:0.4;" x="69.649844" xlink:href="#mbf9496bbb8" y="328.134733"/>
     <use style="fill-opacity:0.4;stroke:#000000;stroke-opacity:0.4;" x="66.925434" xlink:href="#mbf9496bbb8" y="325.03948"/>
     <use style="fill-opacity:0.4;stroke:#000000;stroke-opacity:0.4;" x="69.281399" xlink:href="#mbf9496bbb8" y="329.211343"/>
     <use style="fill-opacity:0.4;stroke:#000000;stroke-opacity:0.4;" x="65.45253" xlink:href="#mbf9496bbb8" y="327.91044"/>
     <use style="fill-opacity:0.4;stroke:#000000;stroke-opacity:0.4;" x="70.365126" xlink:href="#mbf9496bbb8" y="330.960834"/>
     <use style="fill-opacity:0.4;stroke:#000000;stroke-opacity:0.4;" x="74.424676" xlink:href="#mbf9496bbb8" y="323.559142"/>
     <use style="fill-opacity:0.4;stroke:#000000;stroke-opacity:0.4;" x="71.010733" xlink:href="#mbf9496bbb8" y="330.781399"/>
     <use style="fill-opacity:0.4;stroke:#000000;stroke-opacity:0.4;" x="186.409716" xlink:href="#mbf9496bbb8" y="194.50054"/>
     <use style="fill-opacity:0.4;stroke:#000000;stroke-opacity:0.4;" x="243.671626" xlink:href="#mbf9496bbb8" y="77.598658"/>
     <use style="fill-opacity:0.4;stroke:#000000;stroke-opacity:0.4;" x="209.419386" xlink:href="#mbf9496bbb8" y="67.729734"/>
     <use style="fill-opacity:0.4;stroke:#000000;stroke-opacity:0.4;" x="159.050889" xlink:href="#mbf9496bbb8" y="167.181566"/>
     <use style="fill-opacity:0.4;stroke:#000000;stroke-opacity:0.4;" x="77.896464" xlink:href="#mbf9496bbb8" y="291.260847"/>
     <use style="fill-opacity:0.4;stroke:#000000;stroke-opacity:0.4;" x="82.882356" xlink:href="#mbf9496bbb8" y="301.982087"/>
     <use style="fill-opacity:0.4;stroke:#000000;stroke-opacity:0.4;" x="84.913199" xlink:href="#mbf9496bbb8" y="288.569323"/>
     <use style="fill-opacity:0.4;stroke:#000000;stroke-opacity:0.4;" x="80.576765" xlink:href="#mbf9496bbb8" y="312.748185"/>
     <use style="fill-opacity:0.4;stroke:#000000;stroke-opacity:0.4;" x="68.583733" xlink:href="#mbf9496bbb8" y="325.75722"/>
     <use style="fill-opacity:0.4;stroke:#000000;stroke-opacity:0.4;" x="71.79958" xlink:href="#mbf9496bbb8" y="322.617108"/>
     <use style="fill-opacity:0.4;stroke:#000000;stroke-opacity:0.4;" x="70.740474" xlink:href="#mbf9496bbb8" y="324.411458"/>
     <use style="fill-opacity:0.4;stroke:#000000;stroke-opacity:0.4;" x="73.585342" xlink:href="#mbf9496bbb8" y="324.860045"/>
     <use style="fill-opacity:0.4;stroke:#000000;stroke-opacity:0.4;" x="68.516807" xlink:href="#mbf9496bbb8" y="309.608073"/>
     <use style="fill-opacity:0.4;stroke:#000000;stroke-opacity:0.4;" x="73.421903" xlink:href="#mbf9496bbb8" y="321.719933"/>
     <use style="fill-opacity:0.4;stroke:#000000;stroke-opacity:0.4;" x="79.441779" xlink:href="#mbf9496bbb8" y="306.916548"/>
     <use style="fill-opacity:0.4;stroke:#000000;stroke-opacity:0.4;" x="73.116255" xlink:href="#mbf9496bbb8" y="335.581285"/>
     <use style="fill-opacity:0.4;stroke:#000000;stroke-opacity:0.4;" x="114.722837" xlink:href="#mbf9496bbb8" y="316.785472"/>
     <use style="fill-opacity:0.4;stroke:#000000;stroke-opacity:0.4;" x="103.433778" xlink:href="#mbf9496bbb8" y="271.971588"/>
     <use style="fill-opacity:0.4;stroke:#000000;stroke-opacity:0.4;" x="115.616676" xlink:href="#mbf9496bbb8" y="287.22356"/>
     <use style="fill-opacity:0.4;stroke:#000000;stroke-opacity:0.4;" x="96.857718" xlink:href="#mbf9496bbb8" y="274.214525"/>
     <use style="fill-opacity:0.4;stroke:#000000;stroke-opacity:0.4;" x="68.582538" xlink:href="#mbf9496bbb8" y="319.476996"/>
     <use style="fill-opacity:0.4;stroke:#000000;stroke-opacity:0.4;" x="71.295582" xlink:href="#mbf9496bbb8" y="326.205808"/>
     <use style="fill-opacity:0.4;stroke:#000000;stroke-opacity:0.4;" x="73.795749" xlink:href="#mbf9496bbb8" y="324.860045"/>
     <use style="fill-opacity:0.4;stroke:#000000;stroke-opacity:0.4;" x="72.679181" xlink:href="#mbf9496bbb8" y="325.75722"/>
     <use style="fill-opacity:0.4;stroke:#000000;stroke-opacity:0.4;" x="63.320485" xlink:href="#mbf9496bbb8" y="325.981514"/>
     <use style="fill-opacity:0.4;stroke:#000000;stroke-opacity:0.4;" x="66.601822" xlink:href="#mbf9496bbb8" y="328.089875"/>
     <use style="fill-opacity:0.4;stroke:#000000;stroke-opacity:0.4;" x="65.459177" xlink:href="#mbf9496bbb8" y="325.846938"/>
     <use style="fill-opacity:0.4;stroke:#000000;stroke-opacity:0.4;" x="66.060158" xlink:href="#mbf9496bbb8" y="331.364563"/>
     <use style="fill-opacity:0.4;stroke:#000000;stroke-opacity:0.4;" x="63.634212" xlink:href="#mbf9496bbb8" y="327.820722"/>
     <use style="fill-opacity:0.4;stroke:#000000;stroke-opacity:0.4;" x="68.297764" xlink:href="#mbf9496bbb8" y="329.659931"/>
     <use style="fill-opacity:0.4;stroke:#000000;stroke-opacity:0.4;" x="68.494511" xlink:href="#mbf9496bbb8" y="323.020837"/>
     <use style="fill-opacity:0.4;stroke:#000000;stroke-opacity:0.4;" x="68.316288" xlink:href="#mbf9496bbb8" y="329.256202"/>
     <use style="fill-opacity:0.4;stroke:#000000;stroke-opacity:0.4;" x="147.203829" xlink:href="#mbf9496bbb8" y="244.204027"/>
     <use style="fill-opacity:0.4;stroke:#000000;stroke-opacity:0.4;" x="159.862096" xlink:href="#mbf9496bbb8" y="218.679402"/>
     <use style="fill-opacity:0.4;stroke:#000000;stroke-opacity:0.4;" x="160.026345" xlink:href="#mbf9496bbb8" y="220.922339"/>
     <use style="fill-opacity:0.4;stroke:#000000;stroke-opacity:0.4;" x="132.176612" xlink:href="#mbf9496bbb8" y="236.622899"/>
     <use style="fill-opacity:0.4;stroke:#000000;stroke-opacity:0.4;" x="71.825587" xlink:href="#mbf9496bbb8" y="316.785472"/>
     <use style="fill-opacity:0.4;stroke:#000000;stroke-opacity:0.4;" x="77.978166" xlink:href="#mbf9496bbb8" y="325.75722"/>
     <use style="fill-opacity:0.4;stroke:#000000;stroke-opacity:0.4;" x="78.270833" xlink:href="#mbf9496bbb8" y="319.925584"/>
     <use style="fill-opacity:0.4;stroke:#000000;stroke-opacity:0.4;" x="76.544035" xlink:href="#mbf9496bbb8" y="323.065696"/>
     <use style="fill-opacity:0.4;stroke:#000000;stroke-opacity:0.4;" x="64.499218" xlink:href="#mbf9496bbb8" y="327.102982"/>
     <use style="fill-opacity:0.4;stroke:#000000;stroke-opacity:0.4;" x="68.167558" xlink:href="#mbf9496bbb8" y="327.55157"/>
     <use style="fill-opacity:0.4;stroke:#000000;stroke-opacity:0.4;" x="68.630307" xlink:href="#mbf9496bbb8" y="326.205808"/>
     <use style="fill-opacity:0.4;stroke:#000000;stroke-opacity:0.4;" x="67.942809" xlink:href="#mbf9496bbb8" y="335.581285"/>
     <use style="fill-opacity:0.4;stroke:#000000;stroke-opacity:0.4;" x="64.565881" xlink:href="#mbf9496bbb8" y="328.897332"/>
     <use style="fill-opacity:0.4;stroke:#000000;stroke-opacity:0.4;" x="71.148617" xlink:href="#mbf9496bbb8" y="335.581285"/>
     <use style="fill-opacity:0.4;stroke:#000000;stroke-opacity:0.4;" x="69.690655" xlink:href="#mbf9496bbb8" y="324.860045"/>
     <use style="fill-opacity:0.4;stroke:#000000;stroke-opacity:0.4;" x="69.974757" xlink:href="#mbf9496bbb8" y="328.897332"/>
     <use style="fill-opacity:0.4;stroke:#000000;stroke-opacity:0.4;" x="181.963005" xlink:href="#mbf9496bbb8" y="203.696582"/>
     <use style="fill-opacity:0.4;stroke:#000000;stroke-opacity:0.4;" x="223.932024" xlink:href="#mbf9496bbb8" y="91.011421"/>
     <use style="fill-opacity:0.4;stroke:#000000;stroke-opacity:0.4;" x="211.77931" xlink:href="#mbf9496bbb8" y="99.085995"/>
     <use style="fill-opacity:0.4;stroke:#000000;stroke-opacity:0.4;" x="163.836049" xlink:href="#mbf9496bbb8" y="183.285854"/>
     <use style="fill-opacity:0.4;stroke:#000000;stroke-opacity:0.4;" x="77.130123" xlink:href="#mbf9496bbb8" y="296.643896"/>
     <use style="fill-opacity:0.4;stroke:#000000;stroke-opacity:0.4;" x="85.04451" xlink:href="#mbf9496bbb8" y="313.690218"/>
     <use style="fill-opacity:0.4;stroke:#000000;stroke-opacity:0.4;" x="84.44294" xlink:href="#mbf9496bbb8" y="310.101519"/>
     <use style="fill-opacity:0.4;stroke:#000000;stroke-opacity:0.4;" x="82.454169" xlink:href="#mbf9496bbb8" y="317.413494"/>
     <use style="fill-opacity:0.4;stroke:#000000;stroke-opacity:0.4;" x="66.496303" xlink:href="#mbf9496bbb8" y="324.815186"/>
     <use style="fill-opacity:0.4;stroke:#000000;stroke-opacity:0.4;" x="69.560622" xlink:href="#mbf9496bbb8" y="326.47496"/>
     <use style="fill-opacity:0.4;stroke:#000000;stroke-opacity:0.4;" x="69.617916" xlink:href="#mbf9496bbb8" y="324.546034"/>
     <use style="fill-opacity:0.4;stroke:#000000;stroke-opacity:0.4;" x="67.842181" xlink:href="#mbf9496bbb8" y="328.224451"/>
     <use style="fill-opacity:0.4;stroke:#000000;stroke-opacity:0.4;" x="65.011654" xlink:href="#mbf9496bbb8" y="327.91044"/>
     <use style="fill-opacity:0.4;stroke:#000000;stroke-opacity:0.4;" x="70.41393" xlink:href="#mbf9496bbb8" y="329.929083"/>
     <use style="fill-opacity:0.4;stroke:#000000;stroke-opacity:0.4;" x="73.807103" xlink:href="#mbf9496bbb8" y="323.559142"/>
     <use style="fill-opacity:0.4;stroke:#000000;stroke-opacity:0.4;" x="70.551277" xlink:href="#mbf9496bbb8" y="329.704789"/>
     <use style="fill-opacity:0.4;stroke:#000000;stroke-opacity:0.4;" x="90.040965" xlink:href="#mbf9496bbb8" y="318.220951"/>
     <use style="fill-opacity:0.4;stroke:#000000;stroke-opacity:0.4;" x="90.646682" xlink:href="#mbf9496bbb8" y="265.153059"/>
     <use style="fill-opacity:0.4;stroke:#000000;stroke-opacity:0.4;" x="91.43827" xlink:href="#mbf9496bbb8" y="296.15045"/>
     <use style="fill-opacity:0.4;stroke:#000000;stroke-opacity:0.4;" x="84.976048" xlink:href="#mbf9496bbb8" y="277.130343"/>
     <use style="fill-opacity:0.4;stroke:#000000;stroke-opacity:0.4;" x="68.270112" xlink:href="#mbf9496bbb8" y="330.153377"/>
     <use style="fill-opacity:0.4;stroke:#000000;stroke-opacity:0.4;" x="69.724229" xlink:href="#mbf9496bbb8" y="326.340384"/>
     <use style="fill-opacity:0.4;stroke:#000000;stroke-opacity:0.4;" x="69.845546" xlink:href="#mbf9496bbb8" y="326.071231"/>
     <use style="fill-opacity:0.4;stroke:#000000;stroke-opacity:0.4;" x="71.002709" xlink:href="#mbf9496bbb8" y="322.213379"/>
     <use style="fill-opacity:0.4;stroke:#000000;stroke-opacity:0.4;" x="63.435279" xlink:href="#mbf9496bbb8" y="335.581285"/>
     <use style="fill-opacity:0.4;stroke:#000000;stroke-opacity:0.4;" x="66.482837" xlink:href="#mbf9496bbb8" y="332.486031"/>
     <use style="fill-opacity:0.4;stroke:#000000;stroke-opacity:0.4;" x="65.661402" xlink:href="#mbf9496bbb8" y="335.581285"/>
     <use style="fill-opacity:0.4;stroke:#000000;stroke-opacity:0.4;" x="64.891127" xlink:href="#mbf9496bbb8" y="333.96637"/>
     <use style="fill-opacity:0.4;stroke:#000000;stroke-opacity:0.4;" x="65.433325" xlink:href="#mbf9496bbb8" y="334.235522"/>
     <use style="fill-opacity:0.4;stroke:#000000;stroke-opacity:0.4;" x="70.721515" xlink:href="#mbf9496bbb8" y="333.24863"/>
     <use style="fill-opacity:0.4;stroke:#000000;stroke-opacity:0.4;" x="69.769544" xlink:href="#mbf9496bbb8" y="335.581285"/>
     <use style="fill-opacity:0.4;stroke:#000000;stroke-opacity:0.4;" x="69.758229" xlink:href="#mbf9496bbb8" y="333.158913"/>
     <use style="fill-opacity:0.4;stroke:#000000;stroke-opacity:0.4;" x="121.961362" xlink:href="#mbf9496bbb8" y="230.701545"/>
     <use style="fill-opacity:0.4;stroke:#000000;stroke-opacity:0.4;" x="135.291179" xlink:href="#mbf9496bbb8" y="208.04788"/>
     <use style="fill-opacity:0.4;stroke:#000000;stroke-opacity:0.4;" x="127.870137" xlink:href="#mbf9496bbb8" y="209.169349"/>
     <use style="fill-opacity:0.4;stroke:#000000;stroke-opacity:0.4;" x="113.761414" xlink:href="#mbf9496bbb8" y="224.780191"/>
     <use style="fill-opacity:0.4;stroke:#000000;stroke-opacity:0.4;" x="72.54714" xlink:href="#mbf9496bbb8" y="321.226487"/>
     <use style="fill-opacity:0.4;stroke:#000000;stroke-opacity:0.4;" x="77.221578" xlink:href="#mbf9496bbb8" y="306.378243"/>
     <use style="fill-opacity:0.4;stroke:#000000;stroke-opacity:0.4;" x="77.991604" xlink:href="#mbf9496bbb8" y="314.3631"/>
     <use style="fill-opacity:0.4;stroke:#000000;stroke-opacity:0.4;" x="75.732413" xlink:href="#mbf9496bbb8" y="316.47146"/>
     <use style="fill-opacity:0.4;stroke:#000000;stroke-opacity:0.4;" x="64.974601" xlink:href="#mbf9496bbb8" y="333.517783"/>
     <use style="fill-opacity:0.4;stroke:#000000;stroke-opacity:0.4;" x="68.422971" xlink:href="#mbf9496bbb8" y="329.480496"/>
     <use style="fill-opacity:0.4;stroke:#000000;stroke-opacity:0.4;" x="67.222831" xlink:href="#mbf9496bbb8" y="319.34242"/>
     <use style="fill-opacity:0.4;stroke:#000000;stroke-opacity:0.4;" x="65.960085" xlink:href="#mbf9496bbb8" y="331.140269"/>
     <use style="fill-opacity:0.4;stroke:#000000;stroke-opacity:0.4;" x="66.934324" xlink:href="#mbf9496bbb8" y="328.62818"/>
     <use style="fill-opacity:0.4;stroke:#000000;stroke-opacity:0.4;" x="76.718234" xlink:href="#mbf9496bbb8" y="328.26931"/>
     <use style="fill-opacity:0.4;stroke:#000000;stroke-opacity:0.4;" x="75.865476" xlink:href="#mbf9496bbb8" y="308.531463"/>
     <use style="fill-opacity:0.4;stroke:#000000;stroke-opacity:0.4;" x="72.126735" xlink:href="#mbf9496bbb8" y="326.609536"/>
     <use style="fill-opacity:0.4;stroke:#000000;stroke-opacity:0.4;" x="163.628305" xlink:href="#mbf9496bbb8" y="145.604511"/>
     <use style="fill-opacity:0.4;stroke:#000000;stroke-opacity:0.4;" x="175.23444" xlink:href="#mbf9496bbb8" y="55.483298"/>
     <use style="fill-opacity:0.4;stroke:#000000;stroke-opacity:0.4;" x="155.152766" xlink:href="#mbf9496bbb8" y="39.154715"/>
     <use style="fill-opacity:0.4;stroke:#000000;stroke-opacity:0.4;" x="140.579407" xlink:href="#mbf9496bbb8" y="152.826768"/>
     <use style="fill-opacity:0.4;stroke:#000000;stroke-opacity:0.4;" x="77.447974" xlink:href="#mbf9496bbb8" y="293.234632"/>
     <use style="fill-opacity:0.4;stroke:#000000;stroke-opacity:0.4;" x="83.625548" xlink:href="#mbf9496bbb8" y="295.836439"/>
     <use style="fill-opacity:0.4;stroke:#000000;stroke-opacity:0.4;" x="85.021653" xlink:href="#mbf9496bbb8" y="267.26142"/>
     <use style="fill-opacity:0.4;stroke:#000000;stroke-opacity:0.4;" x="81.306278" xlink:href="#mbf9496bbb8" y="312.882761"/>
     <use style="fill-opacity:0.4;stroke:#000000;stroke-opacity:0.4;" x="67.78759" xlink:href="#mbf9496bbb8" y="327.013265"/>
     <use style="fill-opacity:0.4;stroke:#000000;stroke-opacity:0.4;" x="72.801084" xlink:href="#mbf9496bbb8" y="321.226487"/>
     <use style="fill-opacity:0.4;stroke:#000000;stroke-opacity:0.4;" x="72.703304" xlink:href="#mbf9496bbb8" y="324.232023"/>
     <use style="fill-opacity:0.4;stroke:#000000;stroke-opacity:0.4;" x="68.60305" xlink:href="#mbf9496bbb8" y="323.738577"/>
     <use style="fill-opacity:0.4;stroke:#000000;stroke-opacity:0.4;" x="68.839273" xlink:href="#mbf9496bbb8" y="305.750221"/>
     <use style="fill-opacity:0.4;stroke:#000000;stroke-opacity:0.4;" x="78.099514" xlink:href="#mbf9496bbb8" y="315.888297"/>
     <use style="fill-opacity:0.4;stroke:#000000;stroke-opacity:0.4;" x="79.070123" xlink:href="#mbf9496bbb8" y="306.51282"/>
     <use style="fill-opacity:0.4;stroke:#000000;stroke-opacity:0.4;" x="76.201387" xlink:href="#mbf9496bbb8" y="327.461852"/>
    </g>
   </g>
   <g id="matplotlib.axis_1">
    <g id="xtick_1">
     <g id="line2d_2">
      <defs>
       <path d="M 0 0 
L 0 3.5 
" id="me80e170b67" style="stroke:#000000;stroke-width:0.8;"/>
      </defs>
      <g>
       <use style="stroke:#000000;stroke-width:0.8;" x="60.301932" xlink:href="#me80e170b67" y="350.448"/>
      </g>
     </g>
     <g id="text_1">
      <!-- 0 -->
      <defs>
       <path d="M 31.78125 66.40625 
Q 24.171875 66.40625 20.328125 58.90625 
Q 16.5 51.421875 16.5 36.375 
Q 16.5 21.390625 20.328125 13.890625 
Q 24.171875 6.390625 31.78125 6.390625 
Q 39.453125 6.390625 43.28125 13.890625 
Q 47.125 21.390625 47.125 36.375 
Q 47.125 51.421875 43.28125 58.90625 
Q 39.453125 66.40625 31.78125 66.40625 
z
M 31.78125 74.21875 
Q 44.046875 74.21875 50.515625 64.515625 
Q 56.984375 54.828125 56.984375 36.375 
Q 56.984375 17.96875 50.515625 8.265625 
Q 44.046875 -1.421875 31.78125 -1.421875 
Q 19.53125 -1.421875 13.0625 8.265625 
Q 6.59375 17.96875 6.59375 36.375 
Q 6.59375 54.828125 13.0625 64.515625 
Q 19.53125 74.21875 31.78125 74.21875 
z
" id="DejaVuSans-48"/>
      </defs>
      <g transform="translate(56.484432 366.566125)scale(0.12 -0.12)">
       <use xlink:href="#DejaVuSans-48"/>
      </g>
     </g>
    </g>
    <g id="xtick_2">
     <g id="line2d_3">
      <g>
       <use style="stroke:#000000;stroke-width:0.8;" x="106.361804" xlink:href="#me80e170b67" y="350.448"/>
      </g>
     </g>
     <g id="text_2">
      <!-- 10 -->
      <defs>
       <path d="M 12.40625 8.296875 
L 28.515625 8.296875 
L 28.515625 63.921875 
L 10.984375 60.40625 
L 10.984375 69.390625 
L 28.421875 72.90625 
L 38.28125 72.90625 
L 38.28125 8.296875 
L 54.390625 8.296875 
L 54.390625 0 
L 12.40625 0 
z
" id="DejaVuSans-49"/>
      </defs>
      <g transform="translate(98.726804 366.566125)scale(0.12 -0.12)">
       <use xlink:href="#DejaVuSans-49"/>
       <use x="63.623047" xlink:href="#DejaVuSans-48"/>
      </g>
     </g>
    </g>
    <g id="xtick_3">
     <g id="line2d_4">
      <g>
       <use style="stroke:#000000;stroke-width:0.8;" x="152.421676" xlink:href="#me80e170b67" y="350.448"/>
      </g>
     </g>
     <g id="text_3">
      <!-- 20 -->
      <defs>
       <path d="M 19.1875 8.296875 
L 53.609375 8.296875 
L 53.609375 0 
L 7.328125 0 
L 7.328125 8.296875 
Q 12.9375 14.109375 22.625 23.890625 
Q 32.328125 33.6875 34.8125 36.53125 
Q 39.546875 41.84375 41.421875 45.53125 
Q 43.3125 49.21875 43.3125 52.78125 
Q 43.3125 58.59375 39.234375 62.25 
Q 35.15625 65.921875 28.609375 65.921875 
Q 23.96875 65.921875 18.8125 64.3125 
Q 13.671875 62.703125 7.8125 59.421875 
L 7.8125 69.390625 
Q 13.765625 71.78125 18.9375 73 
Q 24.125 74.21875 28.421875 74.21875 
Q 39.75 74.21875 46.484375 68.546875 
Q 53.21875 62.890625 53.21875 53.421875 
Q 53.21875 48.921875 51.53125 44.890625 
Q 49.859375 40.875 45.40625 35.40625 
Q 44.1875 33.984375 37.640625 27.21875 
Q 31.109375 20.453125 19.1875 8.296875 
z
" id="DejaVuSans-50"/>
      </defs>
      <g transform="translate(144.786676 366.566125)scale(0.12 -0.12)">
       <use xlink:href="#DejaVuSans-50"/>
       <use x="63.623047" xlink:href="#DejaVuSans-48"/>
      </g>
     </g>
    </g>
    <g id="xtick_4">
     <g id="line2d_5">
      <g>
       <use style="stroke:#000000;stroke-width:0.8;" x="198.481549" xlink:href="#me80e170b67" y="350.448"/>
      </g>
     </g>
     <g id="text_4">
      <!-- 30 -->
      <defs>
       <path d="M 40.578125 39.3125 
Q 47.65625 37.796875 51.625 33 
Q 55.609375 28.21875 55.609375 21.1875 
Q 55.609375 10.40625 48.1875 4.484375 
Q 40.765625 -1.421875 27.09375 -1.421875 
Q 22.515625 -1.421875 17.65625 -0.515625 
Q 12.796875 0.390625 7.625 2.203125 
L 7.625 11.71875 
Q 11.71875 9.328125 16.59375 8.109375 
Q 21.484375 6.890625 26.8125 6.890625 
Q 36.078125 6.890625 40.9375 10.546875 
Q 45.796875 14.203125 45.796875 21.1875 
Q 45.796875 27.640625 41.28125 31.265625 
Q 36.765625 34.90625 28.71875 34.90625 
L 20.21875 34.90625 
L 20.21875 43.015625 
L 29.109375 43.015625 
Q 36.375 43.015625 40.234375 45.921875 
Q 44.09375 48.828125 44.09375 54.296875 
Q 44.09375 59.90625 40.109375 62.90625 
Q 36.140625 65.921875 28.71875 65.921875 
Q 24.65625 65.921875 20.015625 65.03125 
Q 15.375 64.15625 9.8125 62.3125 
L 9.8125 71.09375 
Q 15.4375 72.65625 20.34375 73.4375 
Q 25.25 74.21875 29.59375 74.21875 
Q 40.828125 74.21875 47.359375 69.109375 
Q 53.90625 64.015625 53.90625 55.328125 
Q 53.90625 49.265625 50.4375 45.09375 
Q 46.96875 40.921875 40.578125 39.3125 
z
" id="DejaVuSans-51"/>
      </defs>
      <g transform="translate(190.846549 366.566125)scale(0.12 -0.12)">
       <use xlink:href="#DejaVuSans-51"/>
       <use x="63.623047" xlink:href="#DejaVuSans-48"/>
      </g>
     </g>
    </g>
    <g id="xtick_5">
     <g id="line2d_6">
      <g>
       <use style="stroke:#000000;stroke-width:0.8;" x="244.541421" xlink:href="#me80e170b67" y="350.448"/>
      </g>
     </g>
     <g id="text_5">
      <!-- 40 -->
      <defs>
       <path d="M 37.796875 64.3125 
L 12.890625 25.390625 
L 37.796875 25.390625 
z
M 35.203125 72.90625 
L 47.609375 72.90625 
L 47.609375 25.390625 
L 58.015625 25.390625 
L 58.015625 17.1875 
L 47.609375 17.1875 
L 47.609375 0 
L 37.796875 0 
L 37.796875 17.1875 
L 4.890625 17.1875 
L 4.890625 26.703125 
z
" id="DejaVuSans-52"/>
      </defs>
      <g transform="translate(236.906421 366.566125)scale(0.12 -0.12)">
       <use xlink:href="#DejaVuSans-52"/>
       <use x="63.623047" xlink:href="#DejaVuSans-48"/>
      </g>
     </g>
    </g>
    <g id="xtick_6">
     <g id="line2d_7">
      <g>
       <use style="stroke:#000000;stroke-width:0.8;" x="290.601293" xlink:href="#me80e170b67" y="350.448"/>
      </g>
     </g>
     <g id="text_6">
      <!-- 50 -->
      <defs>
       <path d="M 10.796875 72.90625 
L 49.515625 72.90625 
L 49.515625 64.59375 
L 19.828125 64.59375 
L 19.828125 46.734375 
Q 21.96875 47.46875 24.109375 47.828125 
Q 26.265625 48.1875 28.421875 48.1875 
Q 40.625 48.1875 47.75 41.5 
Q 54.890625 34.8125 54.890625 23.390625 
Q 54.890625 11.625 47.5625 5.09375 
Q 40.234375 -1.421875 26.90625 -1.421875 
Q 22.3125 -1.421875 17.546875 -0.640625 
Q 12.796875 0.140625 7.71875 1.703125 
L 7.71875 11.625 
Q 12.109375 9.234375 16.796875 8.0625 
Q 21.484375 6.890625 26.703125 6.890625 
Q 35.15625 6.890625 40.078125 11.328125 
Q 45.015625 15.765625 45.015625 23.390625 
Q 45.015625 31 40.078125 35.4375 
Q 35.15625 39.890625 26.703125 39.890625 
Q 22.75 39.890625 18.8125 39.015625 
Q 14.890625 38.140625 10.796875 36.28125 
z
" id="DejaVuSans-53"/>
      </defs>
      <g transform="translate(282.966293 366.566125)scale(0.12 -0.12)">
       <use xlink:href="#DejaVuSans-53"/>
       <use x="63.623047" xlink:href="#DejaVuSans-48"/>
      </g>
     </g>
    </g>
    <g id="xtick_7">
     <g id="line2d_8">
      <g>
       <use style="stroke:#000000;stroke-width:0.8;" x="336.661166" xlink:href="#me80e170b67" y="350.448"/>
      </g>
     </g>
     <g id="text_7">
      <!-- 60 -->
      <defs>
       <path d="M 33.015625 40.375 
Q 26.375 40.375 22.484375 35.828125 
Q 18.609375 31.296875 18.609375 23.390625 
Q 18.609375 15.53125 22.484375 10.953125 
Q 26.375 6.390625 33.015625 6.390625 
Q 39.65625 6.390625 43.53125 10.953125 
Q 47.40625 15.53125 47.40625 23.390625 
Q 47.40625 31.296875 43.53125 35.828125 
Q 39.65625 40.375 33.015625 40.375 
z
M 52.59375 71.296875 
L 52.59375 62.3125 
Q 48.875 64.0625 45.09375 64.984375 
Q 41.3125 65.921875 37.59375 65.921875 
Q 27.828125 65.921875 22.671875 59.328125 
Q 17.53125 52.734375 16.796875 39.40625 
Q 19.671875 43.65625 24.015625 45.921875 
Q 28.375 48.1875 33.59375 48.1875 
Q 44.578125 48.1875 50.953125 41.515625 
Q 57.328125 34.859375 57.328125 23.390625 
Q 57.328125 12.15625 50.6875 5.359375 
Q 44.046875 -1.421875 33.015625 -1.421875 
Q 20.359375 -1.421875 13.671875 8.265625 
Q 6.984375 17.96875 6.984375 36.375 
Q 6.984375 53.65625 15.1875 63.9375 
Q 23.390625 74.21875 37.203125 74.21875 
Q 40.921875 74.21875 44.703125 73.484375 
Q 48.484375 72.75 52.59375 71.296875 
z
" id="DejaVuSans-54"/>
      </defs>
      <g transform="translate(329.026166 366.566125)scale(0.12 -0.12)">
       <use xlink:href="#DejaVuSans-54"/>
       <use x="63.623047" xlink:href="#DejaVuSans-48"/>
      </g>
     </g>
    </g>
    <g id="text_8">
     <!-- predicted -->
     <defs>
      <path d="M 18.109375 8.203125 
L 18.109375 -20.796875 
L 9.078125 -20.796875 
L 9.078125 54.6875 
L 18.109375 54.6875 
L 18.109375 46.390625 
Q 20.953125 51.265625 25.265625 53.625 
Q 29.59375 56 35.59375 56 
Q 45.5625 56 51.78125 48.09375 
Q 58.015625 40.1875 58.015625 27.296875 
Q 58.015625 14.40625 51.78125 6.484375 
Q 45.5625 -1.421875 35.59375 -1.421875 
Q 29.59375 -1.421875 25.265625 0.953125 
Q 20.953125 3.328125 18.109375 8.203125 
z
M 48.6875 27.296875 
Q 48.6875 37.203125 44.609375 42.84375 
Q 40.53125 48.484375 33.40625 48.484375 
Q 26.265625 48.484375 22.1875 42.84375 
Q 18.109375 37.203125 18.109375 27.296875 
Q 18.109375 17.390625 22.1875 11.75 
Q 26.265625 6.109375 33.40625 6.109375 
Q 40.53125 6.109375 44.609375 11.75 
Q 48.6875 17.390625 48.6875 27.296875 
z
" id="DejaVuSans-112"/>
      <path d="M 41.109375 46.296875 
Q 39.59375 47.171875 37.8125 47.578125 
Q 36.03125 48 33.890625 48 
Q 26.265625 48 22.1875 43.046875 
Q 18.109375 38.09375 18.109375 28.8125 
L 18.109375 0 
L 9.078125 0 
L 9.078125 54.6875 
L 18.109375 54.6875 
L 18.109375 46.1875 
Q 20.953125 51.171875 25.484375 53.578125 
Q 30.03125 56 36.53125 56 
Q 37.453125 56 38.578125 55.875 
Q 39.703125 55.765625 41.0625 55.515625 
z
" id="DejaVuSans-114"/>
      <path d="M 56.203125 29.59375 
L 56.203125 25.203125 
L 14.890625 25.203125 
Q 15.484375 15.921875 20.484375 11.0625 
Q 25.484375 6.203125 34.421875 6.203125 
Q 39.59375 6.203125 44.453125 7.46875 
Q 49.3125 8.734375 54.109375 11.28125 
L 54.109375 2.78125 
Q 49.265625 0.734375 44.1875 -0.34375 
Q 39.109375 -1.421875 33.890625 -1.421875 
Q 20.796875 -1.421875 13.15625 6.1875 
Q 5.515625 13.8125 5.515625 26.8125 
Q 5.515625 40.234375 12.765625 48.109375 
Q 20.015625 56 32.328125 56 
Q 43.359375 56 49.78125 48.890625 
Q 56.203125 41.796875 56.203125 29.59375 
z
M 47.21875 32.234375 
Q 47.125 39.59375 43.09375 43.984375 
Q 39.0625 48.390625 32.421875 48.390625 
Q 24.90625 48.390625 20.390625 44.140625 
Q 15.875 39.890625 15.1875 32.171875 
z
" id="DejaVuSans-101"/>
      <path d="M 45.40625 46.390625 
L 45.40625 75.984375 
L 54.390625 75.984375 
L 54.390625 0 
L 45.40625 0 
L 45.40625 8.203125 
Q 42.578125 3.328125 38.25 0.953125 
Q 33.9375 -1.421875 27.875 -1.421875 
Q 17.96875 -1.421875 11.734375 6.484375 
Q 5.515625 14.40625 5.515625 27.296875 
Q 5.515625 40.1875 11.734375 48.09375 
Q 17.96875 56 27.875 56 
Q 33.9375 56 38.25 53.625 
Q 42.578125 51.265625 45.40625 46.390625 
z
M 14.796875 27.296875 
Q 14.796875 17.390625 18.875 11.75 
Q 22.953125 6.109375 30.078125 6.109375 
Q 37.203125 6.109375 41.296875 11.75 
Q 45.40625 17.390625 45.40625 27.296875 
Q 45.40625 37.203125 41.296875 42.84375 
Q 37.203125 48.484375 30.078125 48.484375 
Q 22.953125 48.484375 18.875 42.84375 
Q 14.796875 37.203125 14.796875 27.296875 
z
" id="DejaVuSans-100"/>
      <path d="M 9.421875 54.6875 
L 18.40625 54.6875 
L 18.40625 0 
L 9.421875 0 
z
M 9.421875 75.984375 
L 18.40625 75.984375 
L 18.40625 64.59375 
L 9.421875 64.59375 
z
" id="DejaVuSans-105"/>
      <path d="M 48.78125 52.59375 
L 48.78125 44.1875 
Q 44.96875 46.296875 41.140625 47.34375 
Q 37.3125 48.390625 33.40625 48.390625 
Q 24.65625 48.390625 19.8125 42.84375 
Q 14.984375 37.3125 14.984375 27.296875 
Q 14.984375 17.28125 19.8125 11.734375 
Q 24.65625 6.203125 33.40625 6.203125 
Q 37.3125 6.203125 41.140625 7.25 
Q 44.96875 8.296875 48.78125 10.40625 
L 48.78125 2.09375 
Q 45.015625 0.34375 40.984375 -0.53125 
Q 36.96875 -1.421875 32.421875 -1.421875 
Q 20.0625 -1.421875 12.78125 6.34375 
Q 5.515625 14.109375 5.515625 27.296875 
Q 5.515625 40.671875 12.859375 48.328125 
Q 20.21875 56 33.015625 56 
Q 37.15625 56 41.109375 55.140625 
Q 45.0625 54.296875 48.78125 52.59375 
z
" id="DejaVuSans-99"/>
      <path d="M 18.3125 70.21875 
L 18.3125 54.6875 
L 36.8125 54.6875 
L 36.8125 47.703125 
L 18.3125 47.703125 
L 18.3125 18.015625 
Q 18.3125 11.328125 20.140625 9.421875 
Q 21.96875 7.515625 27.59375 7.515625 
L 36.8125 7.515625 
L 36.8125 0 
L 27.59375 0 
Q 17.1875 0 13.234375 3.875 
Q 9.28125 7.765625 9.28125 18.015625 
L 9.28125 47.703125 
L 2.6875 47.703125 
L 2.6875 54.6875 
L 9.28125 54.6875 
L 9.28125 70.21875 
z
" id="DejaVuSans-116"/>
     </defs>
     <g transform="translate(183.89 382.179875)scale(0.12 -0.12)">
      <use xlink:href="#DejaVuSans-112"/>
      <use x="63.476562" xlink:href="#DejaVuSans-114"/>
      <use x="104.558594" xlink:href="#DejaVuSans-101"/>
      <use x="166.082031" xlink:href="#DejaVuSans-100"/>
      <use x="229.558594" xlink:href="#DejaVuSans-105"/>
      <use x="257.341797" xlink:href="#DejaVuSans-99"/>
      <use x="312.322266" xlink:href="#DejaVuSans-116"/>
      <use x="351.53125" xlink:href="#DejaVuSans-101"/>
      <use x="413.054688" xlink:href="#DejaVuSans-100"/>
     </g>
    </g>
   </g>
   <g id="matplotlib.axis_2">
    <g id="ytick_1">
     <g id="line2d_9">
      <defs>
       <path d="M 0 0 
L -3.5 0 
" id="m6d4a290d86" style="stroke:#000000;stroke-width:0.8;"/>
      </defs>
      <g>
       <use style="stroke:#000000;stroke-width:0.8;" x="45.08375" xlink:href="#m6d4a290d86" y="335.581285"/>
      </g>
     </g>
     <g id="text_9">
      <!-- 0 -->
      <g transform="translate(30.44875 340.140347)scale(0.12 -0.12)">
       <use xlink:href="#DejaVuSans-48"/>
      </g>
     </g>
    </g>
    <g id="ytick_2">
     <g id="line2d_10">
      <g>
       <use style="stroke:#000000;stroke-width:0.8;" x="45.08375" xlink:href="#m6d4a290d86" y="290.722542"/>
      </g>
     </g>
     <g id="text_10">
      <!-- 10 -->
      <g transform="translate(22.81375 295.281605)scale(0.12 -0.12)">
       <use xlink:href="#DejaVuSans-49"/>
       <use x="63.623047" xlink:href="#DejaVuSans-48"/>
      </g>
     </g>
    </g>
    <g id="ytick_3">
     <g id="line2d_11">
      <g>
       <use style="stroke:#000000;stroke-width:0.8;" x="45.08375" xlink:href="#m6d4a290d86" y="245.8638"/>
      </g>
     </g>
     <g id="text_11">
      <!-- 20 -->
      <g transform="translate(22.81375 250.422862)scale(0.12 -0.12)">
       <use xlink:href="#DejaVuSans-50"/>
       <use x="63.623047" xlink:href="#DejaVuSans-48"/>
      </g>
     </g>
    </g>
    <g id="ytick_4">
     <g id="line2d_12">
      <g>
       <use style="stroke:#000000;stroke-width:0.8;" x="45.08375" xlink:href="#m6d4a290d86" y="201.005058"/>
      </g>
     </g>
     <g id="text_12">
      <!-- 30 -->
      <g transform="translate(22.81375 205.56412)scale(0.12 -0.12)">
       <use xlink:href="#DejaVuSans-51"/>
       <use x="63.623047" xlink:href="#DejaVuSans-48"/>
      </g>
     </g>
    </g>
    <g id="ytick_5">
     <g id="line2d_13">
      <g>
       <use style="stroke:#000000;stroke-width:0.8;" x="45.08375" xlink:href="#m6d4a290d86" y="156.146315"/>
      </g>
     </g>
     <g id="text_13">
      <!-- 40 -->
      <g transform="translate(22.81375 160.705378)scale(0.12 -0.12)">
       <use xlink:href="#DejaVuSans-52"/>
       <use x="63.623047" xlink:href="#DejaVuSans-48"/>
      </g>
     </g>
    </g>
    <g id="ytick_6">
     <g id="line2d_14">
      <g>
       <use style="stroke:#000000;stroke-width:0.8;" x="45.08375" xlink:href="#m6d4a290d86" y="111.287573"/>
      </g>
     </g>
     <g id="text_14">
      <!-- 50 -->
      <g transform="translate(22.81375 115.846636)scale(0.12 -0.12)">
       <use xlink:href="#DejaVuSans-53"/>
       <use x="63.623047" xlink:href="#DejaVuSans-48"/>
      </g>
     </g>
    </g>
    <g id="ytick_7">
     <g id="line2d_15">
      <g>
       <use style="stroke:#000000;stroke-width:0.8;" x="45.08375" xlink:href="#m6d4a290d86" y="66.428831"/>
      </g>
     </g>
     <g id="text_15">
      <!-- 60 -->
      <g transform="translate(22.81375 70.987893)scale(0.12 -0.12)">
       <use xlink:href="#DejaVuSans-54"/>
       <use x="63.623047" xlink:href="#DejaVuSans-48"/>
      </g>
     </g>
    </g>
    <g id="text_16">
     <!-- observed -->
     <defs>
      <path d="M 30.609375 48.390625 
Q 23.390625 48.390625 19.1875 42.75 
Q 14.984375 37.109375 14.984375 27.296875 
Q 14.984375 17.484375 19.15625 11.84375 
Q 23.34375 6.203125 30.609375 6.203125 
Q 37.796875 6.203125 41.984375 11.859375 
Q 46.1875 17.53125 46.1875 27.296875 
Q 46.1875 37.015625 41.984375 42.703125 
Q 37.796875 48.390625 30.609375 48.390625 
z
M 30.609375 56 
Q 42.328125 56 49.015625 48.375 
Q 55.71875 40.765625 55.71875 27.296875 
Q 55.71875 13.875 49.015625 6.21875 
Q 42.328125 -1.421875 30.609375 -1.421875 
Q 18.84375 -1.421875 12.171875 6.21875 
Q 5.515625 13.875 5.515625 27.296875 
Q 5.515625 40.765625 12.171875 48.375 
Q 18.84375 56 30.609375 56 
z
" id="DejaVuSans-111"/>
      <path d="M 48.6875 27.296875 
Q 48.6875 37.203125 44.609375 42.84375 
Q 40.53125 48.484375 33.40625 48.484375 
Q 26.265625 48.484375 22.1875 42.84375 
Q 18.109375 37.203125 18.109375 27.296875 
Q 18.109375 17.390625 22.1875 11.75 
Q 26.265625 6.109375 33.40625 6.109375 
Q 40.53125 6.109375 44.609375 11.75 
Q 48.6875 17.390625 48.6875 27.296875 
z
M 18.109375 46.390625 
Q 20.953125 51.265625 25.265625 53.625 
Q 29.59375 56 35.59375 56 
Q 45.5625 56 51.78125 48.09375 
Q 58.015625 40.1875 58.015625 27.296875 
Q 58.015625 14.40625 51.78125 6.484375 
Q 45.5625 -1.421875 35.59375 -1.421875 
Q 29.59375 -1.421875 25.265625 0.953125 
Q 20.953125 3.328125 18.109375 8.203125 
L 18.109375 0 
L 9.078125 0 
L 9.078125 75.984375 
L 18.109375 75.984375 
z
" id="DejaVuSans-98"/>
      <path d="M 44.28125 53.078125 
L 44.28125 44.578125 
Q 40.484375 46.53125 36.375 47.5 
Q 32.28125 48.484375 27.875 48.484375 
Q 21.1875 48.484375 17.84375 46.4375 
Q 14.5 44.390625 14.5 40.28125 
Q 14.5 37.15625 16.890625 35.375 
Q 19.28125 33.59375 26.515625 31.984375 
L 29.59375 31.296875 
Q 39.15625 29.25 43.1875 25.515625 
Q 47.21875 21.78125 47.21875 15.09375 
Q 47.21875 7.46875 41.1875 3.015625 
Q 35.15625 -1.421875 24.609375 -1.421875 
Q 20.21875 -1.421875 15.453125 -0.5625 
Q 10.6875 0.296875 5.421875 2 
L 5.421875 11.28125 
Q 10.40625 8.6875 15.234375 7.390625 
Q 20.0625 6.109375 24.8125 6.109375 
Q 31.15625 6.109375 34.5625 8.28125 
Q 37.984375 10.453125 37.984375 14.40625 
Q 37.984375 18.0625 35.515625 20.015625 
Q 33.0625 21.96875 24.703125 23.78125 
L 21.578125 24.515625 
Q 13.234375 26.265625 9.515625 29.90625 
Q 5.8125 33.546875 5.8125 39.890625 
Q 5.8125 47.609375 11.28125 51.796875 
Q 16.75 56 26.8125 56 
Q 31.78125 56 36.171875 55.265625 
Q 40.578125 54.546875 44.28125 53.078125 
z
" id="DejaVuSans-115"/>
      <path d="M 2.984375 54.6875 
L 12.5 54.6875 
L 29.59375 8.796875 
L 46.6875 54.6875 
L 56.203125 54.6875 
L 35.6875 0 
L 23.484375 0 
z
" id="DejaVuSans-118"/>
     </defs>
     <g transform="translate(16.318125 215.184563)rotate(-90)scale(0.12 -0.12)">
      <use xlink:href="#DejaVuSans-111"/>
      <use x="61.181641" xlink:href="#DejaVuSans-98"/>
      <use x="124.658203" xlink:href="#DejaVuSans-115"/>
      <use x="176.757812" xlink:href="#DejaVuSans-101"/>
      <use x="238.28125" xlink:href="#DejaVuSans-114"/>
      <use x="279.394531" xlink:href="#DejaVuSans-118"/>
      <use x="338.574219" xlink:href="#DejaVuSans-101"/>
      <use x="400.097656" xlink:href="#DejaVuSans-100"/>
     </g>
    </g>
   </g>
   <g id="patch_3">
    <path d="M 45.08375 350.448 
L 45.08375 24.288 
" style="fill:none;stroke:#000000;stroke-linecap:square;stroke-linejoin:miter;stroke-width:0.8;"/>
   </g>
   <g id="patch_4">
    <path d="M 379.88375 350.448 
L 379.88375 24.288 
" style="fill:none;stroke:#000000;stroke-linecap:square;stroke-linejoin:miter;stroke-width:0.8;"/>
   </g>
   <g id="patch_5">
    <path d="M 45.08375 350.448 
L 379.88375 350.448 
" style="fill:none;stroke:#000000;stroke-linecap:square;stroke-linejoin:miter;stroke-width:0.8;"/>
   </g>
   <g id="patch_6">
    <path d="M 45.08375 24.288 
L 379.88375 24.288 
" style="fill:none;stroke:#000000;stroke-linecap:square;stroke-linejoin:miter;stroke-width:0.8;"/>
   </g>
   <g id="text_17">
    <!-- RF|$P(Ph)_2Cy$|DFT(RMSE = 8.99, R^2 = 0.65) -->
    <defs>
     <path d="M 44.390625 34.1875 
Q 47.5625 33.109375 50.5625 29.59375 
Q 53.5625 26.078125 56.59375 19.921875 
L 66.609375 0 
L 56 0 
L 46.6875 18.703125 
Q 43.0625 26.03125 39.671875 28.421875 
Q 36.28125 30.8125 30.421875 30.8125 
L 19.671875 30.8125 
L 19.671875 0 
L 9.8125 0 
L 9.8125 72.90625 
L 32.078125 72.90625 
Q 44.578125 72.90625 50.734375 67.671875 
Q 56.890625 62.453125 56.890625 51.90625 
Q 56.890625 45.015625 53.6875 40.46875 
Q 50.484375 35.9375 44.390625 34.1875 
z
M 19.671875 64.796875 
L 19.671875 38.921875 
L 32.078125 38.921875 
Q 39.203125 38.921875 42.84375 42.21875 
Q 46.484375 45.515625 46.484375 51.90625 
Q 46.484375 58.296875 42.84375 61.546875 
Q 39.203125 64.796875 32.078125 64.796875 
z
" id="DejaVuSans-82"/>
     <path d="M 9.8125 72.90625 
L 51.703125 72.90625 
L 51.703125 64.59375 
L 19.671875 64.59375 
L 19.671875 43.109375 
L 48.578125 43.109375 
L 48.578125 34.8125 
L 19.671875 34.8125 
L 19.671875 0 
L 9.8125 0 
z
" id="DejaVuSans-70"/>
     <path d="M 21 76.421875 
L 21 -23.578125 
L 12.703125 -23.578125 
L 12.703125 76.421875 
z
" id="DejaVuSans-124"/>
     <path d="M 16.890625 72.90625 
L 39.703125 72.90625 
Q 49.65625 72.90625 54.875 68.265625 
Q 60.109375 63.625 60.109375 54.6875 
Q 60.109375 42.671875 52.390625 35.984375 
Q 44.671875 29.296875 30.71875 29.296875 
L 18.3125 29.296875 
L 12.59375 0 
L 2.6875 0 
z
M 25.203125 64.796875 
L 19.921875 37.40625 
L 32.328125 37.40625 
Q 40.71875 37.40625 45.203125 41.703125 
Q 49.703125 46 49.703125 54 
Q 49.703125 59.125 46.65625 61.953125 
Q 43.609375 64.796875 38.09375 64.796875 
z
" id="DejaVuSans-Oblique-80"/>
     <path d="M 31 75.875 
Q 24.46875 64.65625 21.28125 53.65625 
Q 18.109375 42.671875 18.109375 31.390625 
Q 18.109375 20.125 21.3125 9.0625 
Q 24.515625 -2 31 -13.1875 
L 23.1875 -13.1875 
Q 15.875 -1.703125 12.234375 9.375 
Q 8.59375 20.453125 8.59375 31.390625 
Q 8.59375 42.28125 12.203125 53.3125 
Q 15.828125 64.359375 23.1875 75.875 
z
" id="DejaVuSans-40"/>
     <path d="M 55.71875 33.015625 
L 49.3125 0 
L 40.28125 0 
L 46.6875 32.671875 
Q 47.125 34.96875 47.359375 36.71875 
Q 47.609375 38.484375 47.609375 39.5 
Q 47.609375 43.609375 45.015625 45.890625 
Q 42.4375 48.1875 37.796875 48.1875 
Q 30.5625 48.1875 25.265625 43.296875 
Q 19.96875 38.421875 18.40625 30.328125 
L 12.5 0 
L 3.515625 0 
L 18.3125 75.984375 
L 27.296875 75.984375 
L 21.484375 46.09375 
Q 24.90625 50.6875 30.21875 53.34375 
Q 35.546875 56 41.40625 56 
Q 48.640625 56 52.609375 52.09375 
Q 56.59375 48.1875 56.59375 41.109375 
Q 56.59375 39.359375 56.375 37.359375 
Q 56.15625 35.359375 55.71875 33.015625 
z
" id="DejaVuSans-Oblique-104"/>
     <path d="M 8.015625 75.875 
L 15.828125 75.875 
Q 23.140625 64.359375 26.78125 53.3125 
Q 30.421875 42.28125 30.421875 31.390625 
Q 30.421875 20.453125 26.78125 9.375 
Q 23.140625 -1.703125 15.828125 -13.1875 
L 8.015625 -13.1875 
Q 14.5 -2 17.703125 9.0625 
Q 20.90625 20.125 20.90625 31.390625 
Q 20.90625 42.671875 17.703125 53.65625 
Q 14.5 64.65625 8.015625 75.875 
z
" id="DejaVuSans-41"/>
     <path d="M 69.484375 67.28125 
L 67.484375 56.890625 
Q 62.796875 61.625 57.546875 63.921875 
Q 52.296875 66.21875 46.1875 66.21875 
Q 37.84375 66.21875 31.515625 62.203125 
Q 25.203125 58.203125 20.609375 50 
Q 17.671875 44.734375 16.125 38.84375 
Q 14.59375 32.953125 14.59375 27 
Q 14.59375 17.046875 19.75 11.8125 
Q 24.90625 6.59375 34.71875 6.59375 
Q 41.5 6.59375 47.75 8.765625 
Q 54 10.9375 59.90625 15.28125 
L 57.625 3.609375 
Q 51.8125 1.125 45.875 -0.140625 
Q 39.9375 -1.421875 33.984375 -1.421875 
Q 19.96875 -1.421875 12.078125 6.1875 
Q 4.203125 13.8125 4.203125 27.390625 
Q 4.203125 36.078125 7.203125 44.46875 
Q 10.203125 52.875 15.828125 59.8125 
Q 21.78125 67.1875 29.421875 70.703125 
Q 37.0625 74.21875 47.21875 74.21875 
Q 53.46875 74.21875 59.0625 72.484375 
Q 64.65625 70.75 69.484375 67.28125 
z
" id="DejaVuSans-Oblique-67"/>
     <path d="M 24.8125 -5.078125 
Q 18.5625 -15.578125 14.625 -18.1875 
Q 10.6875 -20.796875 4.59375 -20.796875 
L -2.484375 -20.796875 
L -0.984375 -13.28125 
L 4.203125 -13.28125 
Q 7.953125 -13.28125 10.59375 -11.234375 
Q 13.234375 -9.1875 16.5 -3.21875 
L 19.28125 2 
L 7.171875 54.6875 
L 16.703125 54.6875 
L 25.78125 12.796875 
L 50.875 54.6875 
L 60.296875 54.6875 
z
" id="DejaVuSans-Oblique-121"/>
     <path d="M 19.671875 64.796875 
L 19.671875 8.109375 
L 31.59375 8.109375 
Q 46.6875 8.109375 53.6875 14.9375 
Q 60.6875 21.78125 60.6875 36.53125 
Q 60.6875 51.171875 53.6875 57.984375 
Q 46.6875 64.796875 31.59375 64.796875 
z
M 9.8125 72.90625 
L 30.078125 72.90625 
Q 51.265625 72.90625 61.171875 64.09375 
Q 71.09375 55.28125 71.09375 36.53125 
Q 71.09375 17.671875 61.125 8.828125 
Q 51.171875 0 30.078125 0 
L 9.8125 0 
z
" id="DejaVuSans-68"/>
     <path d="M -0.296875 72.90625 
L 61.375 72.90625 
L 61.375 64.59375 
L 35.5 64.59375 
L 35.5 0 
L 25.59375 0 
L 25.59375 64.59375 
L -0.296875 64.59375 
z
" id="DejaVuSans-84"/>
     <path d="M 9.8125 72.90625 
L 24.515625 72.90625 
L 43.109375 23.296875 
L 61.8125 72.90625 
L 76.515625 72.90625 
L 76.515625 0 
L 66.890625 0 
L 66.890625 64.015625 
L 48.09375 14.015625 
L 38.1875 14.015625 
L 19.390625 64.015625 
L 19.390625 0 
L 9.8125 0 
z
" id="DejaVuSans-77"/>
     <path d="M 53.515625 70.515625 
L 53.515625 60.890625 
Q 47.90625 63.578125 42.921875 64.890625 
Q 37.9375 66.21875 33.296875 66.21875 
Q 25.25 66.21875 20.875 63.09375 
Q 16.5 59.96875 16.5 54.203125 
Q 16.5 49.359375 19.40625 46.890625 
Q 22.3125 44.4375 30.421875 42.921875 
L 36.375 41.703125 
Q 47.40625 39.59375 52.65625 34.296875 
Q 57.90625 29 57.90625 20.125 
Q 57.90625 9.515625 50.796875 4.046875 
Q 43.703125 -1.421875 29.984375 -1.421875 
Q 24.8125 -1.421875 18.96875 -0.25 
Q 13.140625 0.921875 6.890625 3.21875 
L 6.890625 13.375 
Q 12.890625 10.015625 18.65625 8.296875 
Q 24.421875 6.59375 29.984375 6.59375 
Q 38.421875 6.59375 43.015625 9.90625 
Q 47.609375 13.234375 47.609375 19.390625 
Q 47.609375 24.75 44.3125 27.78125 
Q 41.015625 30.8125 33.5 32.328125 
L 27.484375 33.5 
Q 16.453125 35.6875 11.515625 40.375 
Q 6.59375 45.0625 6.59375 53.421875 
Q 6.59375 63.09375 13.40625 68.65625 
Q 20.21875 74.21875 32.171875 74.21875 
Q 37.3125 74.21875 42.625 73.28125 
Q 47.953125 72.359375 53.515625 70.515625 
z
" id="DejaVuSans-83"/>
     <path d="M 9.8125 72.90625 
L 55.90625 72.90625 
L 55.90625 64.59375 
L 19.671875 64.59375 
L 19.671875 43.015625 
L 54.390625 43.015625 
L 54.390625 34.71875 
L 19.671875 34.71875 
L 19.671875 8.296875 
L 56.78125 8.296875 
L 56.78125 0 
L 9.8125 0 
z
" id="DejaVuSans-69"/>
     <path id="DejaVuSans-32"/>
     <path d="M 10.59375 45.40625 
L 73.1875 45.40625 
L 73.1875 37.203125 
L 10.59375 37.203125 
z
M 10.59375 25.484375 
L 73.1875 25.484375 
L 73.1875 17.1875 
L 10.59375 17.1875 
z
" id="DejaVuSans-61"/>
     <path d="M 31.78125 34.625 
Q 24.75 34.625 20.71875 30.859375 
Q 16.703125 27.09375 16.703125 20.515625 
Q 16.703125 13.921875 20.71875 10.15625 
Q 24.75 6.390625 31.78125 6.390625 
Q 38.8125 6.390625 42.859375 10.171875 
Q 46.921875 13.96875 46.921875 20.515625 
Q 46.921875 27.09375 42.890625 30.859375 
Q 38.875 34.625 31.78125 34.625 
z
M 21.921875 38.8125 
Q 15.578125 40.375 12.03125 44.71875 
Q 8.5 49.078125 8.5 55.328125 
Q 8.5 64.0625 14.71875 69.140625 
Q 20.953125 74.21875 31.78125 74.21875 
Q 42.671875 74.21875 48.875 69.140625 
Q 55.078125 64.0625 55.078125 55.328125 
Q 55.078125 49.078125 51.53125 44.71875 
Q 48 40.375 41.703125 38.8125 
Q 48.828125 37.15625 52.796875 32.3125 
Q 56.78125 27.484375 56.78125 20.515625 
Q 56.78125 9.90625 50.3125 4.234375 
Q 43.84375 -1.421875 31.78125 -1.421875 
Q 19.734375 -1.421875 13.25 4.234375 
Q 6.78125 9.90625 6.78125 20.515625 
Q 6.78125 27.484375 10.78125 32.3125 
Q 14.796875 37.15625 21.921875 38.8125 
z
M 18.3125 54.390625 
Q 18.3125 48.734375 21.84375 45.5625 
Q 25.390625 42.390625 31.78125 42.390625 
Q 38.140625 42.390625 41.71875 45.5625 
Q 45.3125 48.734375 45.3125 54.390625 
Q 45.3125 60.0625 41.71875 63.234375 
Q 38.140625 66.40625 31.78125 66.40625 
Q 25.390625 66.40625 21.84375 63.234375 
Q 18.3125 60.0625 18.3125 54.390625 
z
" id="DejaVuSans-56"/>
     <path d="M 10.6875 12.40625 
L 21 12.40625 
L 21 0 
L 10.6875 0 
z
" id="DejaVuSans-46"/>
     <path d="M 10.984375 1.515625 
L 10.984375 10.5 
Q 14.703125 8.734375 18.5 7.8125 
Q 22.3125 6.890625 25.984375 6.890625 
Q 35.75 6.890625 40.890625 13.453125 
Q 46.046875 20.015625 46.78125 33.40625 
Q 43.953125 29.203125 39.59375 26.953125 
Q 35.25 24.703125 29.984375 24.703125 
Q 19.046875 24.703125 12.671875 31.3125 
Q 6.296875 37.9375 6.296875 49.421875 
Q 6.296875 60.640625 12.9375 67.421875 
Q 19.578125 74.21875 30.609375 74.21875 
Q 43.265625 74.21875 49.921875 64.515625 
Q 56.59375 54.828125 56.59375 36.375 
Q 56.59375 19.140625 48.40625 8.859375 
Q 40.234375 -1.421875 26.421875 -1.421875 
Q 22.703125 -1.421875 18.890625 -0.6875 
Q 15.09375 0.046875 10.984375 1.515625 
z
M 30.609375 32.421875 
Q 37.25 32.421875 41.125 36.953125 
Q 45.015625 41.5 45.015625 49.421875 
Q 45.015625 57.28125 41.125 61.84375 
Q 37.25 66.40625 30.609375 66.40625 
Q 23.96875 66.40625 20.09375 61.84375 
Q 16.21875 57.28125 16.21875 49.421875 
Q 16.21875 41.5 20.09375 36.953125 
Q 23.96875 32.421875 30.609375 32.421875 
z
" id="DejaVuSans-57"/>
     <path d="M 11.71875 12.40625 
L 22.015625 12.40625 
L 22.015625 4 
L 14.015625 -11.625 
L 7.71875 -11.625 
L 11.71875 4 
z
" id="DejaVuSans-44"/>
     <path d="M 46.6875 72.90625 
L 73.1875 45.703125 
L 63.375 45.703125 
L 41.890625 64.984375 
L 20.40625 45.703125 
L 10.59375 45.703125 
L 37.109375 72.90625 
z
" id="DejaVuSans-94"/>
    </defs>
    <g transform="translate(53.29175 18.288)scale(0.144 -0.144)">
     <use transform="translate(0 0.578125)" xlink:href="#DejaVuSans-82"/>
     <use transform="translate(69.482422 0.578125)" xlink:href="#DejaVuSans-70"/>
     <use transform="translate(127.001953 0.578125)" xlink:href="#DejaVuSans-124"/>
     <use transform="translate(160.693359 0.578125)" xlink:href="#DejaVuSans-Oblique-80"/>
     <use transform="translate(220.996094 0.578125)" xlink:href="#DejaVuSans-40"/>
     <use transform="translate(260.009766 0.578125)" xlink:href="#DejaVuSans-Oblique-80"/>
     <use transform="translate(320.3125 0.578125)" xlink:href="#DejaVuSans-Oblique-104"/>
     <use transform="translate(383.691406 0.578125)" xlink:href="#DejaVuSans-41"/>
     <use transform="translate(423.662109 -15.828125)scale(0.7)" xlink:href="#DejaVuSans-50"/>
     <use transform="translate(470.932617 0.578125)" xlink:href="#DejaVuSans-Oblique-67"/>
     <use transform="translate(540.756836 0.578125)" xlink:href="#DejaVuSans-Oblique-121"/>
     <use transform="translate(599.936523 0.578125)" xlink:href="#DejaVuSans-124"/>
     <use transform="translate(633.62793 0.578125)" xlink:href="#DejaVuSans-68"/>
     <use transform="translate(710.629883 0.578125)" xlink:href="#DejaVuSans-70"/>
     <use transform="translate(768.149414 0.578125)" xlink:href="#DejaVuSans-84"/>
     <use transform="translate(829.233398 0.578125)" xlink:href="#DejaVuSans-40"/>
     <use transform="translate(868.24707 0.578125)" xlink:href="#DejaVuSans-82"/>
     <use transform="translate(937.729492 0.578125)" xlink:href="#DejaVuSans-77"/>
     <use transform="translate(1024.008789 0.578125)" xlink:href="#DejaVuSans-83"/>
     <use transform="translate(1087.485352 0.578125)" xlink:href="#DejaVuSans-69"/>
     <use transform="translate(1150.668945 0.578125)" xlink:href="#DejaVuSans-32"/>
     <use transform="translate(1182.456055 0.578125)" xlink:href="#DejaVuSans-61"/>
     <use transform="translate(1266.245117 0.578125)" xlink:href="#DejaVuSans-32"/>
     <use transform="translate(1298.032227 0.578125)" xlink:href="#DejaVuSans-56"/>
     <use transform="translate(1361.655273 0.578125)" xlink:href="#DejaVuSans-46"/>
     <use transform="translate(1393.442383 0.578125)" xlink:href="#DejaVuSans-57"/>
     <use transform="translate(1457.06543 0.578125)" xlink:href="#DejaVuSans-57"/>
     <use transform="translate(1520.688477 0.578125)" xlink:href="#DejaVuSans-44"/>
     <use transform="translate(1552.475586 0.578125)" xlink:href="#DejaVuSans-32"/>
     <use transform="translate(1584.262695 0.578125)" xlink:href="#DejaVuSans-82"/>
     <use transform="translate(1653.745117 0.578125)" xlink:href="#DejaVuSans-94"/>
     <use transform="translate(1737.53418 0.578125)" xlink:href="#DejaVuSans-50"/>
     <use transform="translate(1801.157227 0.578125)" xlink:href="#DejaVuSans-32"/>
     <use transform="translate(1832.944336 0.578125)" xlink:href="#DejaVuSans-61"/>
     <use transform="translate(1916.733398 0.578125)" xlink:href="#DejaVuSans-32"/>
     <use transform="translate(1948.520508 0.578125)" xlink:href="#DejaVuSans-48"/>
     <use transform="translate(2012.143555 0.578125)" xlink:href="#DejaVuSans-46"/>
     <use transform="translate(2043.930664 0.578125)" xlink:href="#DejaVuSans-54"/>
     <use transform="translate(2107.553711 0.578125)" xlink:href="#DejaVuSans-53"/>
     <use transform="translate(2171.176758 0.578125)" xlink:href="#DejaVuSans-41"/>
    </g>
   </g>
  </g>
 </g>
 <defs>
  <clipPath id="p5dcbdcdb0f">
   <rect height="326.16" width="334.8" x="45.08375" y="24.288"/>
  </clipPath>
 </defs>
</svg>
