<?xml version="1.0" encoding="utf-8" standalone="no"?>
<!DOCTYPE svg PUBLIC "-//W3C//DTD SVG 1.1//EN"
  "http://www.w3.org/Graphics/SVG/1.1/DTD/svg11.dtd">
<!-- Created with matplotlib (https://matplotlib.org/) -->
<svg height="351.274375pt" version="1.1" viewBox="0 0 712.470312 351.274375" width="712.470312pt" xmlns="http://www.w3.org/2000/svg" xmlns:xlink="http://www.w3.org/1999/xlink">
 <defs>
  <style type="text/css">
*{stroke-linecap:butt;stroke-linejoin:round;}
  </style>
 </defs>
 <g id="figure_1">
  <g id="patch_1">
   <path d="M 0 351.274375 
L 712.470312 351.274375 
L 712.470312 0 
L 0 0 
z
" style="fill:#ffffff;"/>
  </g>
  <g id="axes_1">
   <g id="patch_2">
    <path d="M 42.620313 313.718125 
L 350.670313 313.718125 
L 350.670313 22.318125 
L 42.620313 22.318125 
z
" style="fill:#ffffff;"/>
   </g>
   <g id="PathCollection_1">
    <defs>
     <path d="M 0 2.738613 
C 0.726289 2.738613 1.422928 2.450055 1.936492 1.936492 
C 2.450055 1.422928 2.738613 0.726289 2.738613 0 
C 2.738613 -0.726289 2.450055 -1.422928 1.936492 -1.936492 
C 1.422928 -2.450055 0.726289 -2.738613 0 -2.738613 
C -0.726289 -2.738613 -1.422928 -2.450055 -1.936492 -1.936492 
C -2.450055 -1.422928 -2.738613 -0.726289 -2.738613 0 
C -2.738613 0.726289 -2.450055 1.422928 -1.936492 1.936492 
C -1.422928 2.450055 -0.726289 2.738613 0 2.738613 
z
" id="mcbc09796e2"/>
    </defs>
    <g clip-path="url(#p167cbb6bfa)">
     <use style="fill-opacity:0.5;" x="199.933486" xlink:href="#mcbc09796e2" y="116.283616"/>
     <use style="fill-opacity:0.5;" x="86.174366" xlink:href="#mcbc09796e2" y="203.027295"/>
     <use style="fill-opacity:0.5;" x="128.52388" xlink:href="#mcbc09796e2" y="266.602116"/>
     <use style="fill-opacity:0.5;" x="180.724026" xlink:href="#mcbc09796e2" y="188.829145"/>
     <use style="fill-opacity:0.5;" x="150.183593" xlink:href="#mcbc09796e2" y="235.163515"/>
     <use style="fill-opacity:0.5;" x="159.878626" xlink:href="#mcbc09796e2" y="244.217531"/>
     <use style="fill-opacity:0.5;" x="206.513651" xlink:href="#mcbc09796e2" y="146.799151"/>
     <use style="fill-opacity:0.5;" x="165.619974" xlink:href="#mcbc09796e2" y="120.88386"/>
     <use style="fill-opacity:0.5;" x="155.027257" xlink:href="#mcbc09796e2" y="164.286614"/>
     <use style="fill-opacity:0.5;" x="147.606739" xlink:href="#mcbc09796e2" y="127.309492"/>
     <use style="fill-opacity:0.5;" x="139.199793" xlink:href="#mcbc09796e2" y="246.736492"/>
     <use style="fill-opacity:0.5;" x="233.126217" xlink:href="#mcbc09796e2" y="179.661709"/>
     <use style="fill-opacity:0.5;" x="262.990365" xlink:href="#mcbc09796e2" y="77.888636"/>
     <use style="fill-opacity:0.5;" x="178.942266" xlink:href="#mcbc09796e2" y="184.814264"/>
     <use style="fill-opacity:0.5;" x="159.244248" xlink:href="#mcbc09796e2" y="232.48433"/>
     <use style="fill-opacity:0.5;" x="165.243478" xlink:href="#mcbc09796e2" y="233.833384"/>
     <use style="fill-opacity:0.5;" x="96.75976" xlink:href="#mcbc09796e2" y="265.072991"/>
     <use style="fill-opacity:0.5;" x="200.072025" xlink:href="#mcbc09796e2" y="179.151424"/>
     <use style="fill-opacity:0.5;" x="258.70999" xlink:href="#mcbc09796e2" y="139.835452"/>
     <use style="fill-opacity:0.5;" x="152.915883" xlink:href="#mcbc09796e2" y="236.145602"/>
     <use style="fill-opacity:0.5;" x="147.606739" xlink:href="#mcbc09796e2" y="127.309492"/>
     <use style="fill-opacity:0.5;" x="197.57911" xlink:href="#mcbc09796e2" y="211.919975"/>
     <use style="fill-opacity:0.5;" x="156.958093" xlink:href="#mcbc09796e2" y="246.72066"/>
     <use style="fill-opacity:0.5;" x="172.514963" xlink:href="#mcbc09796e2" y="207.770496"/>
     <use style="fill-opacity:0.5;" x="199.930777" xlink:href="#mcbc09796e2" y="35.853701"/>
     <use style="fill-opacity:0.5;" x="121.154071" xlink:href="#mcbc09796e2" y="263.409396"/>
     <use style="fill-opacity:0.5;" x="111.206132" xlink:href="#mcbc09796e2" y="236.112464"/>
     <use style="fill-opacity:0.5;" x="134.111246" xlink:href="#mcbc09796e2" y="267.301995"/>
     <use style="fill-opacity:0.5;" x="223.442167" xlink:href="#mcbc09796e2" y="198.294491"/>
     <use style="fill-opacity:0.5;" x="175.442632" xlink:href="#mcbc09796e2" y="193.951029"/>
     <use style="fill-opacity:0.5;" x="195.035337" xlink:href="#mcbc09796e2" y="136.849057"/>
     <use style="fill-opacity:0.5;" x="144.613844" xlink:href="#mcbc09796e2" y="131.915442"/>
     <use style="fill-opacity:0.5;" x="239.391347" xlink:href="#mcbc09796e2" y="165.290962"/>
     <use style="fill-opacity:0.5;" x="145.189641" xlink:href="#mcbc09796e2" y="272.510483"/>
     <use style="fill-opacity:0.5;" x="116.943346" xlink:href="#mcbc09796e2" y="233.251149"/>
     <use style="fill-opacity:0.5;" x="188.47207" xlink:href="#mcbc09796e2" y="192.466063"/>
     <use style="fill-opacity:0.5;" x="164.865478" xlink:href="#mcbc09796e2" y="158.357628"/>
     <use style="fill-opacity:0.5;" x="336.451608" xlink:href="#mcbc09796e2" y="255.786056"/>
     <use style="fill-opacity:0.5;" x="77.640564" xlink:href="#mcbc09796e2" y="95.631685"/>
     <use style="fill-opacity:0.5;" x="204.611868" xlink:href="#mcbc09796e2" y="281.845031"/>
     <use style="fill-opacity:0.5;" x="266.087002" xlink:href="#mcbc09796e2" y="201.082845"/>
     <use style="fill-opacity:0.5;" x="190.299157" xlink:href="#mcbc09796e2" y="248.972291"/>
     <use style="fill-opacity:0.5;" x="174.467212" xlink:href="#mcbc09796e2" y="271.556826"/>
     <use style="fill-opacity:0.5;" x="140.667307" xlink:href="#mcbc09796e2" y="64.106473"/>
     <use style="fill-opacity:0.5;" x="171.579912" xlink:href="#mcbc09796e2" y="98.593486"/>
     <use style="fill-opacity:0.5;" x="126.196113" xlink:href="#mcbc09796e2" y="259.602911"/>
     <use style="fill-opacity:0.5;" x="179.122754" xlink:href="#mcbc09796e2" y="111.292812"/>
     <use style="fill-opacity:0.5;" x="210.828728" xlink:href="#mcbc09796e2" y="291.691883"/>
     <use style="fill-opacity:0.5;" x="128.811841" xlink:href="#mcbc09796e2" y="203.010897"/>
     <use style="fill-opacity:0.5;" x="197.598832" xlink:href="#mcbc09796e2" y="179.751664"/>
     <use style="fill-opacity:0.5;" x="65.82658" xlink:href="#mcbc09796e2" y="144.450999"/>
     <use style="fill-opacity:0.5;" x="224.582572" xlink:href="#mcbc09796e2" y="108.35764"/>
     <use style="fill-opacity:0.5;" x="249.999949" xlink:href="#mcbc09796e2" y="206.871787"/>
     <use style="fill-opacity:0.5;" x="242.018043" xlink:href="#mcbc09796e2" y="272.032615"/>
     <use style="fill-opacity:0.5;" x="208.062017" xlink:href="#mcbc09796e2" y="164.94473"/>
     <use style="fill-opacity:0.5;" x="165.434347" xlink:href="#mcbc09796e2" y="243.491901"/>
     <use style="fill-opacity:0.5;" x="122.637373" xlink:href="#mcbc09796e2" y="205.705857"/>
     <use style="fill-opacity:0.5;" x="110.018862" xlink:href="#mcbc09796e2" y="252.900657"/>
     <use style="fill-opacity:0.5;" x="158.484878" xlink:href="#mcbc09796e2" y="106.586809"/>
     <use style="fill-opacity:0.5;" x="56.839017" xlink:href="#mcbc09796e2" y="60.581906"/>
     <use style="fill-opacity:0.5;" x="128.408098" xlink:href="#mcbc09796e2" y="249.32397"/>
     <use style="fill-opacity:0.5;" x="245.678079" xlink:href="#mcbc09796e2" y="300.182549"/>
     <use style="fill-opacity:0.5;" x="178.183197" xlink:href="#mcbc09796e2" y="202.605026"/>
     <use style="fill-opacity:0.5;" x="167.412938" xlink:href="#mcbc09796e2" y="198.912222"/>
     <use style="fill-opacity:0.5;" x="210.056528" xlink:href="#mcbc09796e2" y="189.538054"/>
     <use style="fill-opacity:0.5;" x="202.962205" xlink:href="#mcbc09796e2" y="36.456389"/>
     <use style="fill-opacity:0.5;" x="137.981261" xlink:href="#mcbc09796e2" y="224.52725"/>
     <use style="fill-opacity:0.5;" x="119.593567" xlink:href="#mcbc09796e2" y="237.909592"/>
     <use style="fill-opacity:0.5;" x="120.496271" xlink:href="#mcbc09796e2" y="55.19894"/>
     <use style="fill-opacity:0.5;" x="199.599178" xlink:href="#mcbc09796e2" y="174.575321"/>
    </g>
   </g>
   <g id="matplotlib.axis_1">
    <g id="xtick_1">
     <g id="line2d_1">
      <defs>
       <path d="M 0 0 
L 0 3.5 
" id="m401b7699ef" style="stroke:#000000;stroke-width:0.8;"/>
      </defs>
      <g>
       <use style="stroke:#000000;stroke-width:0.8;" x="50.880908" xlink:href="#m401b7699ef" y="313.718125"/>
      </g>
     </g>
     <g id="text_1">
      <!-- −6 -->
      <defs>
       <path d="M 10.59375 35.5 
L 73.1875 35.5 
L 73.1875 27.203125 
L 10.59375 27.203125 
z
" id="DejaVuSans-8722"/>
       <path d="M 33.015625 40.375 
Q 26.375 40.375 22.484375 35.828125 
Q 18.609375 31.296875 18.609375 23.390625 
Q 18.609375 15.53125 22.484375 10.953125 
Q 26.375 6.390625 33.015625 6.390625 
Q 39.65625 6.390625 43.53125 10.953125 
Q 47.40625 15.53125 47.40625 23.390625 
Q 47.40625 31.296875 43.53125 35.828125 
Q 39.65625 40.375 33.015625 40.375 
z
M 52.59375 71.296875 
L 52.59375 62.3125 
Q 48.875 64.0625 45.09375 64.984375 
Q 41.3125 65.921875 37.59375 65.921875 
Q 27.828125 65.921875 22.671875 59.328125 
Q 17.53125 52.734375 16.796875 39.40625 
Q 19.671875 43.65625 24.015625 45.921875 
Q 28.375 48.1875 33.59375 48.1875 
Q 44.578125 48.1875 50.953125 41.515625 
Q 57.328125 34.859375 57.328125 23.390625 
Q 57.328125 12.15625 50.6875 5.359375 
Q 44.046875 -1.421875 33.015625 -1.421875 
Q 20.359375 -1.421875 13.671875 8.265625 
Q 6.984375 17.96875 6.984375 36.375 
Q 6.984375 53.65625 15.1875 63.9375 
Q 23.390625 74.21875 37.203125 74.21875 
Q 40.921875 74.21875 44.703125 73.484375 
Q 48.484375 72.75 52.59375 71.296875 
z
" id="DejaVuSans-54"/>
      </defs>
      <g transform="translate(43.509815 328.316562)scale(0.1 -0.1)">
       <use xlink:href="#DejaVuSans-8722"/>
       <use x="83.789062" xlink:href="#DejaVuSans-54"/>
      </g>
     </g>
    </g>
    <g id="xtick_2">
     <g id="line2d_2">
      <g>
       <use style="stroke:#000000;stroke-width:0.8;" x="90.970532" xlink:href="#m401b7699ef" y="313.718125"/>
      </g>
     </g>
     <g id="text_2">
      <!-- −4 -->
      <defs>
       <path d="M 37.796875 64.3125 
L 12.890625 25.390625 
L 37.796875 25.390625 
z
M 35.203125 72.90625 
L 47.609375 72.90625 
L 47.609375 25.390625 
L 58.015625 25.390625 
L 58.015625 17.1875 
L 47.609375 17.1875 
L 47.609375 0 
L 37.796875 0 
L 37.796875 17.1875 
L 4.890625 17.1875 
L 4.890625 26.703125 
z
" id="DejaVuSans-52"/>
      </defs>
      <g transform="translate(83.599438 328.316562)scale(0.1 -0.1)">
       <use xlink:href="#DejaVuSans-8722"/>
       <use x="83.789062" xlink:href="#DejaVuSans-52"/>
      </g>
     </g>
    </g>
    <g id="xtick_3">
     <g id="line2d_3">
      <g>
       <use style="stroke:#000000;stroke-width:0.8;" x="131.060155" xlink:href="#m401b7699ef" y="313.718125"/>
      </g>
     </g>
     <g id="text_3">
      <!-- −2 -->
      <defs>
       <path d="M 19.1875 8.296875 
L 53.609375 8.296875 
L 53.609375 0 
L 7.328125 0 
L 7.328125 8.296875 
Q 12.9375 14.109375 22.625 23.890625 
Q 32.328125 33.6875 34.8125 36.53125 
Q 39.546875 41.84375 41.421875 45.53125 
Q 43.3125 49.21875 43.3125 52.78125 
Q 43.3125 58.59375 39.234375 62.25 
Q 35.15625 65.921875 28.609375 65.921875 
Q 23.96875 65.921875 18.8125 64.3125 
Q 13.671875 62.703125 7.8125 59.421875 
L 7.8125 69.390625 
Q 13.765625 71.78125 18.9375 73 
Q 24.125 74.21875 28.421875 74.21875 
Q 39.75 74.21875 46.484375 68.546875 
Q 53.21875 62.890625 53.21875 53.421875 
Q 53.21875 48.921875 51.53125 44.890625 
Q 49.859375 40.875 45.40625 35.40625 
Q 44.1875 33.984375 37.640625 27.21875 
Q 31.109375 20.453125 19.1875 8.296875 
z
" id="DejaVuSans-50"/>
      </defs>
      <g transform="translate(123.689061 328.316562)scale(0.1 -0.1)">
       <use xlink:href="#DejaVuSans-8722"/>
       <use x="83.789062" xlink:href="#DejaVuSans-50"/>
      </g>
     </g>
    </g>
    <g id="xtick_4">
     <g id="line2d_4">
      <g>
       <use style="stroke:#000000;stroke-width:0.8;" x="171.149778" xlink:href="#m401b7699ef" y="313.718125"/>
      </g>
     </g>
     <g id="text_4">
      <!-- 0 -->
      <defs>
       <path d="M 31.78125 66.40625 
Q 24.171875 66.40625 20.328125 58.90625 
Q 16.5 51.421875 16.5 36.375 
Q 16.5 21.390625 20.328125 13.890625 
Q 24.171875 6.390625 31.78125 6.390625 
Q 39.453125 6.390625 43.28125 13.890625 
Q 47.125 21.390625 47.125 36.375 
Q 47.125 51.421875 43.28125 58.90625 
Q 39.453125 66.40625 31.78125 66.40625 
z
M 31.78125 74.21875 
Q 44.046875 74.21875 50.515625 64.515625 
Q 56.984375 54.828125 56.984375 36.375 
Q 56.984375 17.96875 50.515625 8.265625 
Q 44.046875 -1.421875 31.78125 -1.421875 
Q 19.53125 -1.421875 13.0625 8.265625 
Q 6.59375 17.96875 6.59375 36.375 
Q 6.59375 54.828125 13.0625 64.515625 
Q 19.53125 74.21875 31.78125 74.21875 
z
" id="DejaVuSans-48"/>
      </defs>
      <g transform="translate(167.968528 328.316562)scale(0.1 -0.1)">
       <use xlink:href="#DejaVuSans-48"/>
      </g>
     </g>
    </g>
    <g id="xtick_5">
     <g id="line2d_5">
      <g>
       <use style="stroke:#000000;stroke-width:0.8;" x="211.239401" xlink:href="#m401b7699ef" y="313.718125"/>
      </g>
     </g>
     <g id="text_5">
      <!-- 2 -->
      <g transform="translate(208.058151 328.316562)scale(0.1 -0.1)">
       <use xlink:href="#DejaVuSans-50"/>
      </g>
     </g>
    </g>
    <g id="xtick_6">
     <g id="line2d_6">
      <g>
       <use style="stroke:#000000;stroke-width:0.8;" x="251.329025" xlink:href="#m401b7699ef" y="313.718125"/>
      </g>
     </g>
     <g id="text_6">
      <!-- 4 -->
      <g transform="translate(248.147775 328.316562)scale(0.1 -0.1)">
       <use xlink:href="#DejaVuSans-52"/>
      </g>
     </g>
    </g>
    <g id="xtick_7">
     <g id="line2d_7">
      <g>
       <use style="stroke:#000000;stroke-width:0.8;" x="291.418648" xlink:href="#m401b7699ef" y="313.718125"/>
      </g>
     </g>
     <g id="text_7">
      <!-- 6 -->
      <g transform="translate(288.237398 328.316562)scale(0.1 -0.1)">
       <use xlink:href="#DejaVuSans-54"/>
      </g>
     </g>
    </g>
    <g id="xtick_8">
     <g id="line2d_8">
      <g>
       <use style="stroke:#000000;stroke-width:0.8;" x="331.508271" xlink:href="#m401b7699ef" y="313.718125"/>
      </g>
     </g>
     <g id="text_8">
      <!-- 8 -->
      <defs>
       <path d="M 31.78125 34.625 
Q 24.75 34.625 20.71875 30.859375 
Q 16.703125 27.09375 16.703125 20.515625 
Q 16.703125 13.921875 20.71875 10.15625 
Q 24.75 6.390625 31.78125 6.390625 
Q 38.8125 6.390625 42.859375 10.171875 
Q 46.921875 13.96875 46.921875 20.515625 
Q 46.921875 27.09375 42.890625 30.859375 
Q 38.875 34.625 31.78125 34.625 
z
M 21.921875 38.8125 
Q 15.578125 40.375 12.03125 44.71875 
Q 8.5 49.078125 8.5 55.328125 
Q 8.5 64.0625 14.71875 69.140625 
Q 20.953125 74.21875 31.78125 74.21875 
Q 42.671875 74.21875 48.875 69.140625 
Q 55.078125 64.0625 55.078125 55.328125 
Q 55.078125 49.078125 51.53125 44.71875 
Q 48 40.375 41.703125 38.8125 
Q 48.828125 37.15625 52.796875 32.3125 
Q 56.78125 27.484375 56.78125 20.515625 
Q 56.78125 9.90625 50.3125 4.234375 
Q 43.84375 -1.421875 31.78125 -1.421875 
Q 19.734375 -1.421875 13.25 4.234375 
Q 6.78125 9.90625 6.78125 20.515625 
Q 6.78125 27.484375 10.78125 32.3125 
Q 14.796875 37.15625 21.921875 38.8125 
z
M 18.3125 54.390625 
Q 18.3125 48.734375 21.84375 45.5625 
Q 25.390625 42.390625 31.78125 42.390625 
Q 38.140625 42.390625 41.71875 45.5625 
Q 45.3125 48.734375 45.3125 54.390625 
Q 45.3125 60.0625 41.71875 63.234375 
Q 38.140625 66.40625 31.78125 66.40625 
Q 25.390625 66.40625 21.84375 63.234375 
Q 18.3125 60.0625 18.3125 54.390625 
z
" id="DejaVuSans-56"/>
      </defs>
      <g transform="translate(328.327021 328.316562)scale(0.1 -0.1)">
       <use xlink:href="#DejaVuSans-56"/>
      </g>
     </g>
    </g>
    <g id="text_9">
     <!-- PC1 -->
     <defs>
      <path d="M 19.671875 64.796875 
L 19.671875 37.40625 
L 32.078125 37.40625 
Q 38.96875 37.40625 42.71875 40.96875 
Q 46.484375 44.53125 46.484375 51.125 
Q 46.484375 57.671875 42.71875 61.234375 
Q 38.96875 64.796875 32.078125 64.796875 
z
M 9.8125 72.90625 
L 32.078125 72.90625 
Q 44.34375 72.90625 50.609375 67.359375 
Q 56.890625 61.8125 56.890625 51.125 
Q 56.890625 40.328125 50.609375 34.8125 
Q 44.34375 29.296875 32.078125 29.296875 
L 19.671875 29.296875 
L 19.671875 0 
L 9.8125 0 
z
" id="DejaVuSans-80"/>
      <path d="M 64.40625 67.28125 
L 64.40625 56.890625 
Q 59.421875 61.53125 53.78125 63.8125 
Q 48.140625 66.109375 41.796875 66.109375 
Q 29.296875 66.109375 22.65625 58.46875 
Q 16.015625 50.828125 16.015625 36.375 
Q 16.015625 21.96875 22.65625 14.328125 
Q 29.296875 6.6875 41.796875 6.6875 
Q 48.140625 6.6875 53.78125 8.984375 
Q 59.421875 11.28125 64.40625 15.921875 
L 64.40625 5.609375 
Q 59.234375 2.09375 53.4375 0.328125 
Q 47.65625 -1.421875 41.21875 -1.421875 
Q 24.65625 -1.421875 15.125 8.703125 
Q 5.609375 18.84375 5.609375 36.375 
Q 5.609375 53.953125 15.125 64.078125 
Q 24.65625 74.21875 41.21875 74.21875 
Q 47.75 74.21875 53.53125 72.484375 
Q 59.328125 70.75 64.40625 67.28125 
z
" id="DejaVuSans-67"/>
      <path d="M 12.40625 8.296875 
L 28.515625 8.296875 
L 28.515625 63.921875 
L 10.984375 60.40625 
L 10.984375 69.390625 
L 28.421875 72.90625 
L 38.28125 72.90625 
L 38.28125 8.296875 
L 54.390625 8.296875 
L 54.390625 0 
L 12.40625 0 
z
" id="DejaVuSans-49"/>
     </defs>
     <g transform="translate(186.957813 341.994687)scale(0.1 -0.1)">
      <use xlink:href="#DejaVuSans-80"/>
      <use x="60.302734" xlink:href="#DejaVuSans-67"/>
      <use x="130.126953" xlink:href="#DejaVuSans-49"/>
     </g>
    </g>
   </g>
   <g id="matplotlib.axis_2">
    <g id="ytick_1">
     <g id="line2d_9">
      <defs>
       <path d="M 0 0 
L -3.5 0 
" id="m787b8946a1" style="stroke:#000000;stroke-width:0.8;"/>
      </defs>
      <g>
       <use style="stroke:#000000;stroke-width:0.8;" x="42.620313" xlink:href="#m787b8946a1" y="304.695054"/>
      </g>
     </g>
     <g id="text_10">
      <!-- −4 -->
      <g transform="translate(20.878125 308.494273)scale(0.1 -0.1)">
       <use xlink:href="#DejaVuSans-8722"/>
       <use x="83.789062" xlink:href="#DejaVuSans-52"/>
      </g>
     </g>
    </g>
    <g id="ytick_2">
     <g id="line2d_10">
      <g>
       <use style="stroke:#000000;stroke-width:0.8;" x="42.620313" xlink:href="#m787b8946a1" y="247.107457"/>
      </g>
     </g>
     <g id="text_11">
      <!-- −2 -->
      <g transform="translate(20.878125 250.906676)scale(0.1 -0.1)">
       <use xlink:href="#DejaVuSans-8722"/>
       <use x="83.789062" xlink:href="#DejaVuSans-50"/>
      </g>
     </g>
    </g>
    <g id="ytick_3">
     <g id="line2d_11">
      <g>
       <use style="stroke:#000000;stroke-width:0.8;" x="42.620313" xlink:href="#m787b8946a1" y="189.51986"/>
      </g>
     </g>
     <g id="text_12">
      <!-- 0 -->
      <g transform="translate(29.257813 193.319078)scale(0.1 -0.1)">
       <use xlink:href="#DejaVuSans-48"/>
      </g>
     </g>
    </g>
    <g id="ytick_4">
     <g id="line2d_12">
      <g>
       <use style="stroke:#000000;stroke-width:0.8;" x="42.620313" xlink:href="#m787b8946a1" y="131.932263"/>
      </g>
     </g>
     <g id="text_13">
      <!-- 2 -->
      <g transform="translate(29.257813 135.731481)scale(0.1 -0.1)">
       <use xlink:href="#DejaVuSans-50"/>
      </g>
     </g>
    </g>
    <g id="ytick_5">
     <g id="line2d_13">
      <g>
       <use style="stroke:#000000;stroke-width:0.8;" x="42.620313" xlink:href="#m787b8946a1" y="74.344665"/>
      </g>
     </g>
     <g id="text_14">
      <!-- 4 -->
      <g transform="translate(29.257813 78.143884)scale(0.1 -0.1)">
       <use xlink:href="#DejaVuSans-52"/>
      </g>
     </g>
    </g>
    <g id="text_15">
     <!-- PC2 -->
     <g transform="translate(14.798438 177.705625)rotate(-90)scale(0.1 -0.1)">
      <use xlink:href="#DejaVuSans-80"/>
      <use x="60.302734" xlink:href="#DejaVuSans-67"/>
      <use x="130.126953" xlink:href="#DejaVuSans-50"/>
     </g>
    </g>
   </g>
   <g id="patch_3">
    <path d="M 42.620313 313.718125 
L 42.620313 22.318125 
" style="fill:none;stroke:#000000;stroke-linecap:square;stroke-linejoin:miter;stroke-width:0.8;"/>
   </g>
   <g id="patch_4">
    <path d="M 350.670313 313.718125 
L 350.670313 22.318125 
" style="fill:none;stroke:#000000;stroke-linecap:square;stroke-linejoin:miter;stroke-width:0.8;"/>
   </g>
   <g id="patch_5">
    <path d="M 42.620313 313.718125 
L 350.670313 313.718125 
" style="fill:none;stroke:#000000;stroke-linecap:square;stroke-linejoin:miter;stroke-width:0.8;"/>
   </g>
   <g id="patch_6">
    <path d="M 42.620313 22.318125 
L 350.670313 22.318125 
" style="fill:none;stroke:#000000;stroke-linecap:square;stroke-linejoin:miter;stroke-width:0.8;"/>
   </g>
   <g id="text_16">
    <!-- Principal Components Analysis -->
    <defs>
     <path d="M 41.109375 46.296875 
Q 39.59375 47.171875 37.8125 47.578125 
Q 36.03125 48 33.890625 48 
Q 26.265625 48 22.1875 43.046875 
Q 18.109375 38.09375 18.109375 28.8125 
L 18.109375 0 
L 9.078125 0 
L 9.078125 54.6875 
L 18.109375 54.6875 
L 18.109375 46.1875 
Q 20.953125 51.171875 25.484375 53.578125 
Q 30.03125 56 36.53125 56 
Q 37.453125 56 38.578125 55.875 
Q 39.703125 55.765625 41.0625 55.515625 
z
" id="DejaVuSans-114"/>
     <path d="M 9.421875 54.6875 
L 18.40625 54.6875 
L 18.40625 0 
L 9.421875 0 
z
M 9.421875 75.984375 
L 18.40625 75.984375 
L 18.40625 64.59375 
L 9.421875 64.59375 
z
" id="DejaVuSans-105"/>
     <path d="M 54.890625 33.015625 
L 54.890625 0 
L 45.90625 0 
L 45.90625 32.71875 
Q 45.90625 40.484375 42.875 44.328125 
Q 39.84375 48.1875 33.796875 48.1875 
Q 26.515625 48.1875 22.3125 43.546875 
Q 18.109375 38.921875 18.109375 30.90625 
L 18.109375 0 
L 9.078125 0 
L 9.078125 54.6875 
L 18.109375 54.6875 
L 18.109375 46.1875 
Q 21.34375 51.125 25.703125 53.5625 
Q 30.078125 56 35.796875 56 
Q 45.21875 56 50.046875 50.171875 
Q 54.890625 44.34375 54.890625 33.015625 
z
" id="DejaVuSans-110"/>
     <path d="M 48.78125 52.59375 
L 48.78125 44.1875 
Q 44.96875 46.296875 41.140625 47.34375 
Q 37.3125 48.390625 33.40625 48.390625 
Q 24.65625 48.390625 19.8125 42.84375 
Q 14.984375 37.3125 14.984375 27.296875 
Q 14.984375 17.28125 19.8125 11.734375 
Q 24.65625 6.203125 33.40625 6.203125 
Q 37.3125 6.203125 41.140625 7.25 
Q 44.96875 8.296875 48.78125 10.40625 
L 48.78125 2.09375 
Q 45.015625 0.34375 40.984375 -0.53125 
Q 36.96875 -1.421875 32.421875 -1.421875 
Q 20.0625 -1.421875 12.78125 6.34375 
Q 5.515625 14.109375 5.515625 27.296875 
Q 5.515625 40.671875 12.859375 48.328125 
Q 20.21875 56 33.015625 56 
Q 37.15625 56 41.109375 55.140625 
Q 45.0625 54.296875 48.78125 52.59375 
z
" id="DejaVuSans-99"/>
     <path d="M 18.109375 8.203125 
L 18.109375 -20.796875 
L 9.078125 -20.796875 
L 9.078125 54.6875 
L 18.109375 54.6875 
L 18.109375 46.390625 
Q 20.953125 51.265625 25.265625 53.625 
Q 29.59375 56 35.59375 56 
Q 45.5625 56 51.78125 48.09375 
Q 58.015625 40.1875 58.015625 27.296875 
Q 58.015625 14.40625 51.78125 6.484375 
Q 45.5625 -1.421875 35.59375 -1.421875 
Q 29.59375 -1.421875 25.265625 0.953125 
Q 20.953125 3.328125 18.109375 8.203125 
z
M 48.6875 27.296875 
Q 48.6875 37.203125 44.609375 42.84375 
Q 40.53125 48.484375 33.40625 48.484375 
Q 26.265625 48.484375 22.1875 42.84375 
Q 18.109375 37.203125 18.109375 27.296875 
Q 18.109375 17.390625 22.1875 11.75 
Q 26.265625 6.109375 33.40625 6.109375 
Q 40.53125 6.109375 44.609375 11.75 
Q 48.6875 17.390625 48.6875 27.296875 
z
" id="DejaVuSans-112"/>
     <path d="M 34.28125 27.484375 
Q 23.390625 27.484375 19.1875 25 
Q 14.984375 22.515625 14.984375 16.5 
Q 14.984375 11.71875 18.140625 8.90625 
Q 21.296875 6.109375 26.703125 6.109375 
Q 34.1875 6.109375 38.703125 11.40625 
Q 43.21875 16.703125 43.21875 25.484375 
L 43.21875 27.484375 
z
M 52.203125 31.203125 
L 52.203125 0 
L 43.21875 0 
L 43.21875 8.296875 
Q 40.140625 3.328125 35.546875 0.953125 
Q 30.953125 -1.421875 24.3125 -1.421875 
Q 15.921875 -1.421875 10.953125 3.296875 
Q 6 8.015625 6 15.921875 
Q 6 25.140625 12.171875 29.828125 
Q 18.359375 34.515625 30.609375 34.515625 
L 43.21875 34.515625 
L 43.21875 35.40625 
Q 43.21875 41.609375 39.140625 45 
Q 35.0625 48.390625 27.6875 48.390625 
Q 23 48.390625 18.546875 47.265625 
Q 14.109375 46.140625 10.015625 43.890625 
L 10.015625 52.203125 
Q 14.9375 54.109375 19.578125 55.046875 
Q 24.21875 56 28.609375 56 
Q 40.484375 56 46.34375 49.84375 
Q 52.203125 43.703125 52.203125 31.203125 
z
" id="DejaVuSans-97"/>
     <path d="M 9.421875 75.984375 
L 18.40625 75.984375 
L 18.40625 0 
L 9.421875 0 
z
" id="DejaVuSans-108"/>
     <path id="DejaVuSans-32"/>
     <path d="M 30.609375 48.390625 
Q 23.390625 48.390625 19.1875 42.75 
Q 14.984375 37.109375 14.984375 27.296875 
Q 14.984375 17.484375 19.15625 11.84375 
Q 23.34375 6.203125 30.609375 6.203125 
Q 37.796875 6.203125 41.984375 11.859375 
Q 46.1875 17.53125 46.1875 27.296875 
Q 46.1875 37.015625 41.984375 42.703125 
Q 37.796875 48.390625 30.609375 48.390625 
z
M 30.609375 56 
Q 42.328125 56 49.015625 48.375 
Q 55.71875 40.765625 55.71875 27.296875 
Q 55.71875 13.875 49.015625 6.21875 
Q 42.328125 -1.421875 30.609375 -1.421875 
Q 18.84375 -1.421875 12.171875 6.21875 
Q 5.515625 13.875 5.515625 27.296875 
Q 5.515625 40.765625 12.171875 48.375 
Q 18.84375 56 30.609375 56 
z
" id="DejaVuSans-111"/>
     <path d="M 52 44.1875 
Q 55.375 50.25 60.0625 53.125 
Q 64.75 56 71.09375 56 
Q 79.640625 56 84.28125 50.015625 
Q 88.921875 44.046875 88.921875 33.015625 
L 88.921875 0 
L 79.890625 0 
L 79.890625 32.71875 
Q 79.890625 40.578125 77.09375 44.375 
Q 74.3125 48.1875 68.609375 48.1875 
Q 61.625 48.1875 57.5625 43.546875 
Q 53.515625 38.921875 53.515625 30.90625 
L 53.515625 0 
L 44.484375 0 
L 44.484375 32.71875 
Q 44.484375 40.625 41.703125 44.40625 
Q 38.921875 48.1875 33.109375 48.1875 
Q 26.21875 48.1875 22.15625 43.53125 
Q 18.109375 38.875 18.109375 30.90625 
L 18.109375 0 
L 9.078125 0 
L 9.078125 54.6875 
L 18.109375 54.6875 
L 18.109375 46.1875 
Q 21.1875 51.21875 25.484375 53.609375 
Q 29.78125 56 35.6875 56 
Q 41.65625 56 45.828125 52.96875 
Q 50 49.953125 52 44.1875 
z
" id="DejaVuSans-109"/>
     <path d="M 56.203125 29.59375 
L 56.203125 25.203125 
L 14.890625 25.203125 
Q 15.484375 15.921875 20.484375 11.0625 
Q 25.484375 6.203125 34.421875 6.203125 
Q 39.59375 6.203125 44.453125 7.46875 
Q 49.3125 8.734375 54.109375 11.28125 
L 54.109375 2.78125 
Q 49.265625 0.734375 44.1875 -0.34375 
Q 39.109375 -1.421875 33.890625 -1.421875 
Q 20.796875 -1.421875 13.15625 6.1875 
Q 5.515625 13.8125 5.515625 26.8125 
Q 5.515625 40.234375 12.765625 48.109375 
Q 20.015625 56 32.328125 56 
Q 43.359375 56 49.78125 48.890625 
Q 56.203125 41.796875 56.203125 29.59375 
z
M 47.21875 32.234375 
Q 47.125 39.59375 43.09375 43.984375 
Q 39.0625 48.390625 32.421875 48.390625 
Q 24.90625 48.390625 20.390625 44.140625 
Q 15.875 39.890625 15.1875 32.171875 
z
" id="DejaVuSans-101"/>
     <path d="M 18.3125 70.21875 
L 18.3125 54.6875 
L 36.8125 54.6875 
L 36.8125 47.703125 
L 18.3125 47.703125 
L 18.3125 18.015625 
Q 18.3125 11.328125 20.140625 9.421875 
Q 21.96875 7.515625 27.59375 7.515625 
L 36.8125 7.515625 
L 36.8125 0 
L 27.59375 0 
Q 17.1875 0 13.234375 3.875 
Q 9.28125 7.765625 9.28125 18.015625 
L 9.28125 47.703125 
L 2.6875 47.703125 
L 2.6875 54.6875 
L 9.28125 54.6875 
L 9.28125 70.21875 
z
" id="DejaVuSans-116"/>
     <path d="M 44.28125 53.078125 
L 44.28125 44.578125 
Q 40.484375 46.53125 36.375 47.5 
Q 32.28125 48.484375 27.875 48.484375 
Q 21.1875 48.484375 17.84375 46.4375 
Q 14.5 44.390625 14.5 40.28125 
Q 14.5 37.15625 16.890625 35.375 
Q 19.28125 33.59375 26.515625 31.984375 
L 29.59375 31.296875 
Q 39.15625 29.25 43.1875 25.515625 
Q 47.21875 21.78125 47.21875 15.09375 
Q 47.21875 7.46875 41.1875 3.015625 
Q 35.15625 -1.421875 24.609375 -1.421875 
Q 20.21875 -1.421875 15.453125 -0.5625 
Q 10.6875 0.296875 5.421875 2 
L 5.421875 11.28125 
Q 10.40625 8.6875 15.234375 7.390625 
Q 20.0625 6.109375 24.8125 6.109375 
Q 31.15625 6.109375 34.5625 8.28125 
Q 37.984375 10.453125 37.984375 14.40625 
Q 37.984375 18.0625 35.515625 20.015625 
Q 33.0625 21.96875 24.703125 23.78125 
L 21.578125 24.515625 
Q 13.234375 26.265625 9.515625 29.90625 
Q 5.8125 33.546875 5.8125 39.890625 
Q 5.8125 47.609375 11.28125 51.796875 
Q 16.75 56 26.8125 56 
Q 31.78125 56 36.171875 55.265625 
Q 40.578125 54.546875 44.28125 53.078125 
z
" id="DejaVuSans-115"/>
     <path d="M 34.1875 63.1875 
L 20.796875 26.90625 
L 47.609375 26.90625 
z
M 28.609375 72.90625 
L 39.796875 72.90625 
L 67.578125 0 
L 57.328125 0 
L 50.6875 18.703125 
L 17.828125 18.703125 
L 11.1875 0 
L 0.78125 0 
z
" id="DejaVuSans-65"/>
     <path d="M 32.171875 -5.078125 
Q 28.375 -14.84375 24.75 -17.8125 
Q 21.140625 -20.796875 15.09375 -20.796875 
L 7.90625 -20.796875 
L 7.90625 -13.28125 
L 13.1875 -13.28125 
Q 16.890625 -13.28125 18.9375 -11.515625 
Q 21 -9.765625 23.484375 -3.21875 
L 25.09375 0.875 
L 2.984375 54.6875 
L 12.5 54.6875 
L 29.59375 11.921875 
L 46.6875 54.6875 
L 56.203125 54.6875 
z
" id="DejaVuSans-121"/>
    </defs>
    <g transform="translate(104.479688 16.318125)scale(0.12 -0.12)">
     <use xlink:href="#DejaVuSans-80"/>
     <use x="60.287109" xlink:href="#DejaVuSans-114"/>
     <use x="101.400391" xlink:href="#DejaVuSans-105"/>
     <use x="129.183594" xlink:href="#DejaVuSans-110"/>
     <use x="192.5625" xlink:href="#DejaVuSans-99"/>
     <use x="247.542969" xlink:href="#DejaVuSans-105"/>
     <use x="275.326172" xlink:href="#DejaVuSans-112"/>
     <use x="338.802734" xlink:href="#DejaVuSans-97"/>
     <use x="400.082031" xlink:href="#DejaVuSans-108"/>
     <use x="427.865234" xlink:href="#DejaVuSans-32"/>
     <use x="459.652344" xlink:href="#DejaVuSans-67"/>
     <use x="529.476562" xlink:href="#DejaVuSans-111"/>
     <use x="590.658203" xlink:href="#DejaVuSans-109"/>
     <use x="688.070312" xlink:href="#DejaVuSans-112"/>
     <use x="751.546875" xlink:href="#DejaVuSans-111"/>
     <use x="812.728516" xlink:href="#DejaVuSans-110"/>
     <use x="876.107422" xlink:href="#DejaVuSans-101"/>
     <use x="937.630859" xlink:href="#DejaVuSans-110"/>
     <use x="1001.009766" xlink:href="#DejaVuSans-116"/>
     <use x="1040.21875" xlink:href="#DejaVuSans-115"/>
     <use x="1092.318359" xlink:href="#DejaVuSans-32"/>
     <use x="1124.105469" xlink:href="#DejaVuSans-65"/>
     <use x="1192.513672" xlink:href="#DejaVuSans-110"/>
     <use x="1255.892578" xlink:href="#DejaVuSans-97"/>
     <use x="1317.171875" xlink:href="#DejaVuSans-108"/>
     <use x="1344.955078" xlink:href="#DejaVuSans-121"/>
     <use x="1404.134766" xlink:href="#DejaVuSans-115"/>
     <use x="1456.234375" xlink:href="#DejaVuSans-105"/>
     <use x="1484.017578" xlink:href="#DejaVuSans-115"/>
    </g>
   </g>
  </g>
  <g id="axes_2">
   <g id="patch_7">
    <path d="M 397.220313 313.718125 
L 705.270313 313.718125 
L 705.270313 22.318125 
L 397.220313 22.318125 
z
" style="fill:#ffffff;"/>
   </g>
   <g id="PathCollection_2">
    <g clip-path="url(#p720812aff0)">
     <use style="fill-opacity:0.5;" x="413.200002" xlink:href="#mcbc09796e2" y="163.488557"/>
     <use style="fill-opacity:0.5;" x="556.52724" xlink:href="#mcbc09796e2" y="73.937528"/>
     <use style="fill-opacity:0.5;" x="628.660264" xlink:href="#mcbc09796e2" y="90.866848"/>
     <use style="fill-opacity:0.5;" x="505.351378" xlink:href="#mcbc09796e2" y="153.813397"/>
     <use style="fill-opacity:0.5;" x="640.705606" xlink:href="#mcbc09796e2" y="127.656438"/>
     <use style="fill-opacity:0.5;" x="552.135682" xlink:href="#mcbc09796e2" y="132.40483"/>
     <use style="fill-opacity:0.5;" x="413.84239" xlink:href="#mcbc09796e2" y="165.075109"/>
     <use style="fill-opacity:0.5;" x="539.054127" xlink:href="#mcbc09796e2" y="252.085528"/>
     <use style="fill-opacity:0.5;" x="515.461673" xlink:href="#mcbc09796e2" y="158.131931"/>
     <use style="fill-opacity:0.5;" x="606.187521" xlink:href="#mcbc09796e2" y="299.976202"/>
     <use style="fill-opacity:0.5;" x="608.596756" xlink:href="#mcbc09796e2" y="105.006294"/>
     <use style="fill-opacity:0.5;" x="461.381072" xlink:href="#mcbc09796e2" y="196.209623"/>
     <use style="fill-opacity:0.5;" x="468.465644" xlink:href="#mcbc09796e2" y="285.283578"/>
     <use style="fill-opacity:0.5;" x="492.784738" xlink:href="#mcbc09796e2" y="164.773301"/>
     <use style="fill-opacity:0.5;" x="575.049762" xlink:href="#mcbc09796e2" y="152.306177"/>
     <use style="fill-opacity:0.5;" x="572.212459" xlink:href="#mcbc09796e2" y="154.872017"/>
     <use style="fill-opacity:0.5;" x="617.467723" xlink:href="#mcbc09796e2" y="42.072578"/>
     <use style="fill-opacity:0.5;" x="477.949737" xlink:href="#mcbc09796e2" y="185.97849"/>
     <use style="fill-opacity:0.5;" x="459.901678" xlink:href="#mcbc09796e2" y="239.205991"/>
     <use style="fill-opacity:0.5;" x="580.432315" xlink:href="#mcbc09796e2" y="148.834094"/>
     <use style="fill-opacity:0.5;" x="605.479358" xlink:href="#mcbc09796e2" y="299.099982"/>
     <use style="fill-opacity:0.5;" x="499.692553" xlink:href="#mcbc09796e2" y="178.698159"/>
     <use style="fill-opacity:0.5;" x="641.454057" xlink:href="#mcbc09796e2" y="126.530863"/>
     <use style="fill-opacity:0.5;" x="498.664865" xlink:href="#mcbc09796e2" y="134.790838"/>
     <use style="fill-opacity:0.5;" x="493.161199" xlink:href="#mcbc09796e2" y="294.450153"/>
     <use style="fill-opacity:0.5;" x="607.093273" xlink:href="#mcbc09796e2" y="94.531826"/>
     <use style="fill-opacity:0.5;" x="572.426285" xlink:href="#mcbc09796e2" y="97.673353"/>
     <use style="fill-opacity:0.5;" x="655.075688" xlink:href="#mcbc09796e2" y="58.271019"/>
     <use style="fill-opacity:0.5;" x="474.977334" xlink:href="#mcbc09796e2" y="191.30927"/>
     <use style="fill-opacity:0.5;" x="511.001077" xlink:href="#mcbc09796e2" y="153.848605"/>
     <use style="fill-opacity:0.5;" x="430.765919" xlink:href="#mcbc09796e2" y="129.937511"/>
     <use style="fill-opacity:0.5;" x="457.445723" xlink:href="#mcbc09796e2" y="118.372863"/>
     <use style="fill-opacity:0.5;" x="411.810402" xlink:href="#mcbc09796e2" y="177.82763"/>
     <use style="fill-opacity:0.5;" x="606.294558" xlink:href="#mcbc09796e2" y="79.133198"/>
     <use style="fill-opacity:0.5;" x="573.046543" xlink:href="#mcbc09796e2" y="97.240735"/>
     <use style="fill-opacity:0.5;" x="507.235827" xlink:href="#mcbc09796e2" y="171.692777"/>
     <use style="fill-opacity:0.5;" x="563.137244" xlink:href="#mcbc09796e2" y="226.728807"/>
     <use style="fill-opacity:0.5;" x="682.136178" xlink:href="#mcbc09796e2" y="212.996098"/>
     <use style="fill-opacity:0.5;" x="627.014663" xlink:href="#mcbc09796e2" y="257.848258"/>
     <use style="fill-opacity:0.5;" x="603.177017" xlink:href="#mcbc09796e2" y="176.35285"/>
     <use style="fill-opacity:0.5;" x="449.9718" xlink:href="#mcbc09796e2" y="212.478091"/>
     <use style="fill-opacity:0.5;" x="690.680223" xlink:href="#mcbc09796e2" y="135.782027"/>
     <use style="fill-opacity:0.5;" x="603.815116" xlink:href="#mcbc09796e2" y="158.784101"/>
     <use style="fill-opacity:0.5;" x="545.56339" xlink:href="#mcbc09796e2" y="274.800705"/>
     <use style="fill-opacity:0.5;" x="531.324752" xlink:href="#mcbc09796e2" y="261.717494"/>
     <use style="fill-opacity:0.5;" x="632.251824" xlink:href="#mcbc09796e2" y="93.772694"/>
     <use style="fill-opacity:0.5;" x="528.743816" xlink:href="#mcbc09796e2" y="249.801412"/>
     <use style="fill-opacity:0.5;" x="606.190902" xlink:href="#mcbc09796e2" y="177.156235"/>
     <use style="fill-opacity:0.5;" x="542.117828" xlink:href="#mcbc09796e2" y="106.140151"/>
     <use style="fill-opacity:0.5;" x="520.809388" xlink:href="#mcbc09796e2" y="212.191347"/>
     <use style="fill-opacity:0.5;" x="531.730911" xlink:href="#mcbc09796e2" y="47.679745"/>
     <use style="fill-opacity:0.5;" x="486.160137" xlink:href="#mcbc09796e2" y="249.717867"/>
     <use style="fill-opacity:0.5;" x="439.217091" xlink:href="#mcbc09796e2" y="181.016594"/>
     <use style="fill-opacity:0.5;" x="490.276124" xlink:href="#mcbc09796e2" y="97.158654"/>
     <use style="fill-opacity:0.5;" x="520.371974" xlink:href="#mcbc09796e2" y="232.859708"/>
     <use style="fill-opacity:0.5;" x="569.87722" xlink:href="#mcbc09796e2" y="143.182669"/>
     <use style="fill-opacity:0.5;" x="548.224398" xlink:href="#mcbc09796e2" y="110.541154"/>
     <use style="fill-opacity:0.5;" x="587.119217" xlink:href="#mcbc09796e2" y="89.73736"/>
     <use style="fill-opacity:0.5;" x="536.249045" xlink:href="#mcbc09796e2" y="256.321241"/>
     <use style="fill-opacity:0.5;" x="503.384443" xlink:href="#mcbc09796e2" y="36.060048"/>
     <use style="fill-opacity:0.5;" x="596.653671" xlink:href="#mcbc09796e2" y="108.648893"/>
     <use style="fill-opacity:0.5;" x="619.421159" xlink:href="#mcbc09796e2" y="189.697604"/>
     <use style="fill-opacity:0.5;" x="507.622711" xlink:href="#mcbc09796e2" y="168.209353"/>
     <use style="fill-opacity:0.5;" x="515.039549" xlink:href="#mcbc09796e2" y="146.278944"/>
     <use style="fill-opacity:0.5;" x="495.584433" xlink:href="#mcbc09796e2" y="191.13671"/>
     <use style="fill-opacity:0.5;" x="492.386107" xlink:href="#mcbc09796e2" y="294.433242"/>
     <use style="fill-opacity:0.5;" x="571.363545" xlink:href="#mcbc09796e2" y="113.057413"/>
     <use style="fill-opacity:0.5;" x="574.655798" xlink:href="#mcbc09796e2" y="104.599779"/>
     <use style="fill-opacity:0.5;" x="545.964344" xlink:href="#mcbc09796e2" y="280.408427"/>
     <use style="fill-opacity:0.5;" x="466.490675" xlink:href="#mcbc09796e2" y="155.101807"/>
    </g>
   </g>
   <g id="matplotlib.axis_3">
    <g id="xtick_9">
     <g id="line2d_14">
      <g>
       <use style="stroke:#000000;stroke-width:0.8;" x="449.730573" xlink:href="#m401b7699ef" y="313.718125"/>
      </g>
     </g>
     <g id="text_17">
      <!-- −4 -->
      <g transform="translate(442.35948 328.316562)scale(0.1 -0.1)">
       <use xlink:href="#DejaVuSans-8722"/>
       <use x="83.789062" xlink:href="#DejaVuSans-52"/>
      </g>
     </g>
    </g>
    <g id="xtick_10">
     <g id="line2d_15">
      <g>
       <use style="stroke:#000000;stroke-width:0.8;" x="504.171126" xlink:href="#m401b7699ef" y="313.718125"/>
      </g>
     </g>
     <g id="text_18">
      <!-- −3 -->
      <defs>
       <path d="M 40.578125 39.3125 
Q 47.65625 37.796875 51.625 33 
Q 55.609375 28.21875 55.609375 21.1875 
Q 55.609375 10.40625 48.1875 4.484375 
Q 40.765625 -1.421875 27.09375 -1.421875 
Q 22.515625 -1.421875 17.65625 -0.515625 
Q 12.796875 0.390625 7.625 2.203125 
L 7.625 11.71875 
Q 11.71875 9.328125 16.59375 8.109375 
Q 21.484375 6.890625 26.8125 6.890625 
Q 36.078125 6.890625 40.9375 10.546875 
Q 45.796875 14.203125 45.796875 21.1875 
Q 45.796875 27.640625 41.28125 31.265625 
Q 36.765625 34.90625 28.71875 34.90625 
L 20.21875 34.90625 
L 20.21875 43.015625 
L 29.109375 43.015625 
Q 36.375 43.015625 40.234375 45.921875 
Q 44.09375 48.828125 44.09375 54.296875 
Q 44.09375 59.90625 40.109375 62.90625 
Q 36.140625 65.921875 28.71875 65.921875 
Q 24.65625 65.921875 20.015625 65.03125 
Q 15.375 64.15625 9.8125 62.3125 
L 9.8125 71.09375 
Q 15.4375 72.65625 20.34375 73.4375 
Q 25.25 74.21875 29.59375 74.21875 
Q 40.828125 74.21875 47.359375 69.109375 
Q 53.90625 64.015625 53.90625 55.328125 
Q 53.90625 49.265625 50.4375 45.09375 
Q 46.96875 40.921875 40.578125 39.3125 
z
" id="DejaVuSans-51"/>
      </defs>
      <g transform="translate(496.800032 328.316562)scale(0.1 -0.1)">
       <use xlink:href="#DejaVuSans-8722"/>
       <use x="83.789062" xlink:href="#DejaVuSans-51"/>
      </g>
     </g>
    </g>
    <g id="xtick_11">
     <g id="line2d_16">
      <g>
       <use style="stroke:#000000;stroke-width:0.8;" x="558.611679" xlink:href="#m401b7699ef" y="313.718125"/>
      </g>
     </g>
     <g id="text_19">
      <!-- −2 -->
      <g transform="translate(551.240585 328.316562)scale(0.1 -0.1)">
       <use xlink:href="#DejaVuSans-8722"/>
       <use x="83.789062" xlink:href="#DejaVuSans-50"/>
      </g>
     </g>
    </g>
    <g id="xtick_12">
     <g id="line2d_17">
      <g>
       <use style="stroke:#000000;stroke-width:0.8;" x="613.052232" xlink:href="#m401b7699ef" y="313.718125"/>
      </g>
     </g>
     <g id="text_20">
      <!-- −1 -->
      <g transform="translate(605.681138 328.316562)scale(0.1 -0.1)">
       <use xlink:href="#DejaVuSans-8722"/>
       <use x="83.789062" xlink:href="#DejaVuSans-49"/>
      </g>
     </g>
    </g>
    <g id="xtick_13">
     <g id="line2d_18">
      <g>
       <use style="stroke:#000000;stroke-width:0.8;" x="667.492784" xlink:href="#m401b7699ef" y="313.718125"/>
      </g>
     </g>
     <g id="text_21">
      <!-- 0 -->
      <g transform="translate(664.311534 328.316562)scale(0.1 -0.1)">
       <use xlink:href="#DejaVuSans-48"/>
      </g>
     </g>
    </g>
    <g id="text_22">
     <!-- t-SNE1 -->
     <defs>
      <path d="M 4.890625 31.390625 
L 31.203125 31.390625 
L 31.203125 23.390625 
L 4.890625 23.390625 
z
" id="DejaVuSans-45"/>
      <path d="M 53.515625 70.515625 
L 53.515625 60.890625 
Q 47.90625 63.578125 42.921875 64.890625 
Q 37.9375 66.21875 33.296875 66.21875 
Q 25.25 66.21875 20.875 63.09375 
Q 16.5 59.96875 16.5 54.203125 
Q 16.5 49.359375 19.40625 46.890625 
Q 22.3125 44.4375 30.421875 42.921875 
L 36.375 41.703125 
Q 47.40625 39.59375 52.65625 34.296875 
Q 57.90625 29 57.90625 20.125 
Q 57.90625 9.515625 50.796875 4.046875 
Q 43.703125 -1.421875 29.984375 -1.421875 
Q 24.8125 -1.421875 18.96875 -0.25 
Q 13.140625 0.921875 6.890625 3.21875 
L 6.890625 13.375 
Q 12.890625 10.015625 18.65625 8.296875 
Q 24.421875 6.59375 29.984375 6.59375 
Q 38.421875 6.59375 43.015625 9.90625 
Q 47.609375 13.234375 47.609375 19.390625 
Q 47.609375 24.75 44.3125 27.78125 
Q 41.015625 30.8125 33.5 32.328125 
L 27.484375 33.5 
Q 16.453125 35.6875 11.515625 40.375 
Q 6.59375 45.0625 6.59375 53.421875 
Q 6.59375 63.09375 13.40625 68.65625 
Q 20.21875 74.21875 32.171875 74.21875 
Q 37.3125 74.21875 42.625 73.28125 
Q 47.953125 72.359375 53.515625 70.515625 
z
" id="DejaVuSans-83"/>
      <path d="M 9.8125 72.90625 
L 23.09375 72.90625 
L 55.421875 11.921875 
L 55.421875 72.90625 
L 64.984375 72.90625 
L 64.984375 0 
L 51.703125 0 
L 19.390625 60.984375 
L 19.390625 0 
L 9.8125 0 
z
" id="DejaVuSans-78"/>
      <path d="M 9.8125 72.90625 
L 55.90625 72.90625 
L 55.90625 64.59375 
L 19.671875 64.59375 
L 19.671875 43.015625 
L 54.390625 43.015625 
L 54.390625 34.71875 
L 19.671875 34.71875 
L 19.671875 8.296875 
L 56.78125 8.296875 
L 56.78125 0 
L 9.8125 0 
z
" id="DejaVuSans-69"/>
     </defs>
     <g transform="translate(534.225781 341.994687)scale(0.1 -0.1)">
      <use xlink:href="#DejaVuSans-116"/>
      <use x="39.208984" xlink:href="#DejaVuSans-45"/>
      <use x="75.292969" xlink:href="#DejaVuSans-83"/>
      <use x="138.769531" xlink:href="#DejaVuSans-78"/>
      <use x="213.574219" xlink:href="#DejaVuSans-69"/>
      <use x="276.757812" xlink:href="#DejaVuSans-49"/>
     </g>
    </g>
   </g>
   <g id="matplotlib.axis_4">
    <g id="ytick_6">
     <g id="line2d_19">
      <g>
       <use style="stroke:#000000;stroke-width:0.8;" x="397.220313" xlink:href="#m787b8946a1" y="282.585565"/>
      </g>
     </g>
     <g id="text_23">
      <!-- −1 -->
      <g transform="translate(375.478125 286.384784)scale(0.1 -0.1)">
       <use xlink:href="#DejaVuSans-8722"/>
       <use x="83.789062" xlink:href="#DejaVuSans-49"/>
      </g>
     </g>
    </g>
    <g id="ytick_7">
     <g id="line2d_20">
      <g>
       <use style="stroke:#000000;stroke-width:0.8;" x="397.220313" xlink:href="#m787b8946a1" y="233.312438"/>
      </g>
     </g>
     <g id="text_24">
      <!-- 0 -->
      <g transform="translate(383.857813 237.111657)scale(0.1 -0.1)">
       <use xlink:href="#DejaVuSans-48"/>
      </g>
     </g>
    </g>
    <g id="ytick_8">
     <g id="line2d_21">
      <g>
       <use style="stroke:#000000;stroke-width:0.8;" x="397.220313" xlink:href="#m787b8946a1" y="184.039312"/>
      </g>
     </g>
     <g id="text_25">
      <!-- 1 -->
      <g transform="translate(383.857813 187.838531)scale(0.1 -0.1)">
       <use xlink:href="#DejaVuSans-49"/>
      </g>
     </g>
    </g>
    <g id="ytick_9">
     <g id="line2d_22">
      <g>
       <use style="stroke:#000000;stroke-width:0.8;" x="397.220313" xlink:href="#m787b8946a1" y="134.766186"/>
      </g>
     </g>
     <g id="text_26">
      <!-- 2 -->
      <g transform="translate(383.857813 138.565404)scale(0.1 -0.1)">
       <use xlink:href="#DejaVuSans-50"/>
      </g>
     </g>
    </g>
    <g id="ytick_10">
     <g id="line2d_23">
      <g>
       <use style="stroke:#000000;stroke-width:0.8;" x="397.220313" xlink:href="#m787b8946a1" y="85.493059"/>
      </g>
     </g>
     <g id="text_27">
      <!-- 3 -->
      <g transform="translate(383.857813 89.292278)scale(0.1 -0.1)">
       <use xlink:href="#DejaVuSans-51"/>
      </g>
     </g>
    </g>
    <g id="ytick_11">
     <g id="line2d_24">
      <g>
       <use style="stroke:#000000;stroke-width:0.8;" x="397.220313" xlink:href="#m787b8946a1" y="36.219933"/>
      </g>
     </g>
     <g id="text_28">
      <!-- 4 -->
      <g transform="translate(383.857813 40.019152)scale(0.1 -0.1)">
       <use xlink:href="#DejaVuSans-52"/>
      </g>
     </g>
    </g>
    <g id="text_29">
     <!-- t-SNE2 -->
     <g transform="translate(369.398438 185.037656)rotate(-90)scale(0.1 -0.1)">
      <use xlink:href="#DejaVuSans-116"/>
      <use x="39.208984" xlink:href="#DejaVuSans-45"/>
      <use x="75.292969" xlink:href="#DejaVuSans-83"/>
      <use x="138.769531" xlink:href="#DejaVuSans-78"/>
      <use x="213.574219" xlink:href="#DejaVuSans-69"/>
      <use x="276.757812" xlink:href="#DejaVuSans-50"/>
     </g>
    </g>
   </g>
   <g id="patch_8">
    <path d="M 397.220313 313.718125 
L 397.220313 22.318125 
" style="fill:none;stroke:#000000;stroke-linecap:square;stroke-linejoin:miter;stroke-width:0.8;"/>
   </g>
   <g id="patch_9">
    <path d="M 705.270313 313.718125 
L 705.270313 22.318125 
" style="fill:none;stroke:#000000;stroke-linecap:square;stroke-linejoin:miter;stroke-width:0.8;"/>
   </g>
   <g id="patch_10">
    <path d="M 397.220313 313.718125 
L 705.270313 313.718125 
" style="fill:none;stroke:#000000;stroke-linecap:square;stroke-linejoin:miter;stroke-width:0.8;"/>
   </g>
   <g id="patch_11">
    <path d="M 397.220313 22.318125 
L 705.270313 22.318125 
" style="fill:none;stroke:#000000;stroke-linecap:square;stroke-linejoin:miter;stroke-width:0.8;"/>
   </g>
   <g id="text_30">
    <!-- Stochastic Neighbor Embedding -->
    <defs>
     <path d="M 54.890625 33.015625 
L 54.890625 0 
L 45.90625 0 
L 45.90625 32.71875 
Q 45.90625 40.484375 42.875 44.328125 
Q 39.84375 48.1875 33.796875 48.1875 
Q 26.515625 48.1875 22.3125 43.546875 
Q 18.109375 38.921875 18.109375 30.90625 
L 18.109375 0 
L 9.078125 0 
L 9.078125 75.984375 
L 18.109375 75.984375 
L 18.109375 46.1875 
Q 21.34375 51.125 25.703125 53.5625 
Q 30.078125 56 35.796875 56 
Q 45.21875 56 50.046875 50.171875 
Q 54.890625 44.34375 54.890625 33.015625 
z
" id="DejaVuSans-104"/>
     <path d="M 45.40625 27.984375 
Q 45.40625 37.75 41.375 43.109375 
Q 37.359375 48.484375 30.078125 48.484375 
Q 22.859375 48.484375 18.828125 43.109375 
Q 14.796875 37.75 14.796875 27.984375 
Q 14.796875 18.265625 18.828125 12.890625 
Q 22.859375 7.515625 30.078125 7.515625 
Q 37.359375 7.515625 41.375 12.890625 
Q 45.40625 18.265625 45.40625 27.984375 
z
M 54.390625 6.78125 
Q 54.390625 -7.171875 48.1875 -13.984375 
Q 42 -20.796875 29.203125 -20.796875 
Q 24.46875 -20.796875 20.265625 -20.09375 
Q 16.0625 -19.390625 12.109375 -17.921875 
L 12.109375 -9.1875 
Q 16.0625 -11.328125 19.921875 -12.34375 
Q 23.78125 -13.375 27.78125 -13.375 
Q 36.625 -13.375 41.015625 -8.765625 
Q 45.40625 -4.15625 45.40625 5.171875 
L 45.40625 9.625 
Q 42.625 4.78125 38.28125 2.390625 
Q 33.9375 0 27.875 0 
Q 17.828125 0 11.671875 7.65625 
Q 5.515625 15.328125 5.515625 27.984375 
Q 5.515625 40.671875 11.671875 48.328125 
Q 17.828125 56 27.875 56 
Q 33.9375 56 38.28125 53.609375 
Q 42.625 51.21875 45.40625 46.390625 
L 45.40625 54.6875 
L 54.390625 54.6875 
z
" id="DejaVuSans-103"/>
     <path d="M 48.6875 27.296875 
Q 48.6875 37.203125 44.609375 42.84375 
Q 40.53125 48.484375 33.40625 48.484375 
Q 26.265625 48.484375 22.1875 42.84375 
Q 18.109375 37.203125 18.109375 27.296875 
Q 18.109375 17.390625 22.1875 11.75 
Q 26.265625 6.109375 33.40625 6.109375 
Q 40.53125 6.109375 44.609375 11.75 
Q 48.6875 17.390625 48.6875 27.296875 
z
M 18.109375 46.390625 
Q 20.953125 51.265625 25.265625 53.625 
Q 29.59375 56 35.59375 56 
Q 45.5625 56 51.78125 48.09375 
Q 58.015625 40.1875 58.015625 27.296875 
Q 58.015625 14.40625 51.78125 6.484375 
Q 45.5625 -1.421875 35.59375 -1.421875 
Q 29.59375 -1.421875 25.265625 0.953125 
Q 20.953125 3.328125 18.109375 8.203125 
L 18.109375 0 
L 9.078125 0 
L 9.078125 75.984375 
L 18.109375 75.984375 
z
" id="DejaVuSans-98"/>
     <path d="M 45.40625 46.390625 
L 45.40625 75.984375 
L 54.390625 75.984375 
L 54.390625 0 
L 45.40625 0 
L 45.40625 8.203125 
Q 42.578125 3.328125 38.25 0.953125 
Q 33.9375 -1.421875 27.875 -1.421875 
Q 17.96875 -1.421875 11.734375 6.484375 
Q 5.515625 14.40625 5.515625 27.296875 
Q 5.515625 40.1875 11.734375 48.09375 
Q 17.96875 56 27.875 56 
Q 33.9375 56 38.25 53.625 
Q 42.578125 51.265625 45.40625 46.390625 
z
M 14.796875 27.296875 
Q 14.796875 17.390625 18.875 11.75 
Q 22.953125 6.109375 30.078125 6.109375 
Q 37.203125 6.109375 41.296875 11.75 
Q 45.40625 17.390625 45.40625 27.296875 
Q 45.40625 37.203125 41.296875 42.84375 
Q 37.203125 48.484375 30.078125 48.484375 
Q 22.953125 48.484375 18.875 42.84375 
Q 14.796875 37.203125 14.796875 27.296875 
z
" id="DejaVuSans-100"/>
    </defs>
    <g transform="translate(454.937813 16.318125)scale(0.12 -0.12)">
     <use xlink:href="#DejaVuSans-83"/>
     <use x="63.476562" xlink:href="#DejaVuSans-116"/>
     <use x="102.685547" xlink:href="#DejaVuSans-111"/>
     <use x="163.867188" xlink:href="#DejaVuSans-99"/>
     <use x="218.847656" xlink:href="#DejaVuSans-104"/>
     <use x="282.226562" xlink:href="#DejaVuSans-97"/>
     <use x="343.505859" xlink:href="#DejaVuSans-115"/>
     <use x="395.605469" xlink:href="#DejaVuSans-116"/>
     <use x="434.814453" xlink:href="#DejaVuSans-105"/>
     <use x="462.597656" xlink:href="#DejaVuSans-99"/>
     <use x="517.578125" xlink:href="#DejaVuSans-32"/>
     <use x="549.365234" xlink:href="#DejaVuSans-78"/>
     <use x="624.169922" xlink:href="#DejaVuSans-101"/>
     <use x="685.693359" xlink:href="#DejaVuSans-105"/>
     <use x="713.476562" xlink:href="#DejaVuSans-103"/>
     <use x="776.953125" xlink:href="#DejaVuSans-104"/>
     <use x="840.332031" xlink:href="#DejaVuSans-98"/>
     <use x="903.808594" xlink:href="#DejaVuSans-111"/>
     <use x="964.990234" xlink:href="#DejaVuSans-114"/>
     <use x="1006.103516" xlink:href="#DejaVuSans-32"/>
     <use x="1037.890625" xlink:href="#DejaVuSans-69"/>
     <use x="1101.074219" xlink:href="#DejaVuSans-109"/>
     <use x="1198.486328" xlink:href="#DejaVuSans-98"/>
     <use x="1261.962891" xlink:href="#DejaVuSans-101"/>
     <use x="1323.486328" xlink:href="#DejaVuSans-100"/>
     <use x="1386.962891" xlink:href="#DejaVuSans-100"/>
     <use x="1450.439453" xlink:href="#DejaVuSans-105"/>
     <use x="1478.222656" xlink:href="#DejaVuSans-110"/>
     <use x="1541.601562" xlink:href="#DejaVuSans-103"/>
    </g>
   </g>
  </g>
 </g>
 <defs>
  <clipPath id="p167cbb6bfa">
   <rect height="291.4" width="308.05" x="42.620313" y="22.318125"/>
  </clipPath>
  <clipPath id="p720812aff0">
   <rect height="291.4" width="308.05" x="397.220313" y="22.318125"/>
  </clipPath>
 </defs>
</svg>
